<svg width="70" height="70" viewBox="0 0 70 70" fill="none" xmlns="http://www.w3.org/2000/svg">
  <g filter="url(#filter0_d_165_7666)">
    <circle cx="34" cy="34" r="30" fill="#1F5FDB" />
    <circle cx="34" cy="34" r="29" stroke="white" stroke-width="2" />
  </g>
  <mask id="path-3-inside-1_165_7666" fill="white">
    <path d="M52 39L35.0294 55.9706L18.0589 39L35.0295 22.0295L52 39Z" />
  </mask>
  <path d="M35.0295 22.0295L36.4437 20.6152L35.0295 19.201L33.6152 20.6152L35.0295 22.0295ZM18.0589 39L19.4731 40.4142L36.4437 23.4437L35.0295 22.0295L33.6152 20.6152L16.6447 37.5858L18.0589 39ZM35.0295 22.0295L33.6152 23.4437L50.5858 40.4142L52 39L53.4142 37.5858L36.4437 20.6152L35.0295 22.0295Z" fill="white" mask="url(#path-3-inside-1_165_7666)" />
  <defs>
    <filter id="filter0_d_165_7666" x="0" y="0" width="70" height="70" filterUnits="userSpaceOnUse" color-interpolation-filters="sRGB">
      <feFlood flood-opacity="0" result="BackgroundImageFix" />
      <feColorMatrix in="SourceAlpha" type="matrix" values="0 0 0 0 0 0 0 0 0 0 0 0 0 0 0 0 0 0 127 0" result="hardAlpha" />
      <feOffset dx="1" dy="1" />
      <feGaussianBlur stdDeviation="2.5" />
      <feComposite in2="hardAlpha" operator="out" />
      <feColorMatrix type="matrix" values="0 0 0 0 0.168627 0 0 0 0 0.192157 0 0 0 0 0.239216 0 0 0 0.3 0" />
      <feBlend mode="normal" in2="BackgroundImageFix" result="effect1_dropShadow_165_7666" />
      <feBlend mode="normal" in="SourceGraphic" in2="effect1_dropShadow_165_7666" result="shape" />
    </filter>
  </defs>
</svg>