<svg width="30" height="30" viewBox="0 0 30 30" fill="none" xmlns="http://www.w3.org/2000/svg">
  <g clip-path="url(#clip0_231_8108)">
    <path fill-rule="evenodd" clip-rule="evenodd" d="M1.0637 26.0709V11.9766H28.9361V26.0709C28.9361 27.5308 27.5299 28.9366 26.0696 28.9366H3.93026C2.46994 28.9366 1.0637 27.5308 1.0637 26.0709ZM1.0637 6.73175C1.0637 5.8486 1.57751 5.1547 2.15443 4.614C2.83051 3.98318 3.69589 3.85701 4.84072 3.85701C4.84072 4.86633 4.72353 5.57825 5.32749 6.31721C6.0216 7.17333 7.99575 7.27245 8.83408 6.38029C9.48312 5.6954 9.3479 4.83929 9.3479 3.85701H20.5708V4.92941C20.5708 6.0018 21.346 6.97507 22.3737 6.97507H23.2751C24.1946 6.97507 25.087 6.08291 25.087 5.17272V3.85701C26.5744 3.85701 27.8724 4.1544 28.5305 5.41604C28.6747 5.6954 28.9361 6.2271 28.9361 6.65065V10.9853H1.0637V6.73175ZM21.6435 5.09162V1.89246C21.6435 0.784019 24.0143 0.729949 24.0143 1.89246V5.17272C24.0143 6.28117 21.6435 6.31721 21.6435 5.09162ZM5.90441 5.09162V1.89246C5.90441 0.720937 8.27519 0.856113 8.27519 1.73025V5.17272C8.27519 6.28117 5.90441 6.31721 5.90441 5.09162ZM4.84072 2.13578V2.87474H3.93026C1.76682 2.87474 0 4.8483 0 7.05617V25.7375C0 28.1706 1.83893 30 4.2638 30H25.736C28.1699 30 29.9998 28.1706 29.9998 25.7375V7.05617C29.9998 4.80324 28.1969 2.87474 26.0696 2.87474H25.087V1.89246C25.087 -0.57675 20.5708 -0.738961 20.5708 2.05467V2.87474H9.3479V1.89246C9.3479 -0.549715 4.84072 -0.793031 4.84072 2.13578Z" fill="#1F5FDB" />
    <path fill-rule="evenodd" clip-rule="evenodd" d="M6.55323 15.419H9.42881V18.2848H6.55323V15.419ZM5.65179 14.5089C5.47151 15.3019 5.57066 17.9513 5.57066 18.9426C5.57066 19.1319 5.79602 19.3481 5.98532 19.3481H9.91559C10.3032 19.3481 10.4925 19.1589 10.4925 18.7714V15.0045C10.4925 14.7251 10.3483 14.4277 10.0778 14.4277C9.38374 14.4277 6.08448 14.3466 5.65179 14.5089Z" fill="#1F5FDB" />
    <path fill-rule="evenodd" clip-rule="evenodd" d="M6.55337 21.8894H9.42895V24.7552H6.55337V21.8894ZM5.5708 21.2316V25.3319C5.5708 25.5212 5.79616 25.7374 5.98546 25.7374H9.91573C10.3033 25.7374 10.4926 25.5482 10.4926 25.1697V21.3938C10.4926 21.0153 10.3033 20.826 9.91573 20.826H5.98546C5.79616 20.826 5.5708 21.0423 5.5708 21.2316Z" fill="#1F5FDB" />
    <path fill-rule="evenodd" clip-rule="evenodd" d="M20.4899 15.419H23.3655V18.2847H20.4899V15.419ZM19.5073 14.8423V18.9426C19.5073 19.2039 19.8048 19.3481 20.0842 19.3481H23.8523C24.2399 19.3481 24.4292 19.1589 24.4292 18.7714V15.0045C24.4292 14.7251 24.2849 14.4277 24.0145 14.4277H19.922C19.7237 14.4277 19.5073 14.653 19.5073 14.8423Z" fill="#1F5FDB" />
    <path fill-rule="evenodd" clip-rule="evenodd" d="M13.5216 21.8894H16.4783V24.7552H13.5216V21.8894ZM12.5391 21.2316V25.3319C12.5391 25.5212 12.7644 25.7374 12.9537 25.7374H17.0462C17.2446 25.7374 17.4609 25.5212 17.4609 25.3319V21.2316C17.4609 20.9702 17.1634 20.826 16.884 20.826H13.116C12.8365 20.826 12.5391 20.9702 12.5391 21.2316Z" fill="#1F5FDB" />
    <path fill-rule="evenodd" clip-rule="evenodd" d="M13.5216 15.419H16.4783V18.2847H13.5216V15.419ZM12.5391 14.8423V18.7714C12.5391 19.1589 12.7284 19.3481 13.116 19.3481H16.884C17.2716 19.3481 17.4609 19.1589 17.4609 18.7714V14.8423C17.4609 14.653 17.2446 14.4277 17.0462 14.4277H12.9537C12.7644 14.4277 12.5391 14.653 12.5391 14.8423Z" fill="#1F5FDB" />
    <path fill-rule="evenodd" clip-rule="evenodd" d="M21.5626 24.0163C21.0939 23.7099 20.4899 22.7907 19.922 22.7907C19.5975 22.7907 19.5073 23.1061 19.5073 23.3674C19.5073 23.6468 20.562 24.5389 20.7964 24.7732C21.7609 25.7465 21.7789 25.3139 23.7531 23.3404L24.8078 22.3581C25.3396 21.8354 24.9971 21.3127 24.5914 21.3127C24.1768 21.3127 21.9773 23.7369 21.5626 24.0163Z" fill="#1F5FDB" />
  </g>
  <defs>
    <clipPath id="clip0_231_8108">
      <rect width="30" height="30" fill="white" />
    </clipPath>
  </defs>
</svg>