<svg width="26" height="26" viewBox="0 0 26 26" fill="none" xmlns="http://www.w3.org/2000/svg">
<g clip-path="url(#clip0_416_3547)">
<path fill-rule="evenodd" clip-rule="evenodd" d="M9.27491 10.4855C9.35502 10.9038 9.29271 17.1701 9.29271 18.3896C9.30161 19.7069 8.3581 19.4755 7.16535 19.4755C6.57788 19.4755 6.14173 19.5645 5.78569 19.1996C5.44745 18.8435 5.53646 18.4341 5.53646 17.8733V11.5269C5.53646 10.9928 5.73228 10.6546 6.15953 10.53C6.52448 10.4231 8.71414 10.4855 9.27491 10.4855ZM9.72886 18.6655V10.6635C9.71996 10.165 9.93358 9.80007 10.1116 9.39952C10.432 8.65183 10.7347 7.89524 11.0462 7.13865C11.2064 6.75591 11.3578 6.40876 11.5091 6.02602C11.8829 5.10031 12.0431 4.91339 13.4228 5.72338C14.847 6.56898 14.3129 7.82403 13.9391 9.16809C13.5118 10.7347 13.3249 10.4855 15.3365 10.4855C17.0633 10.4855 19.5912 10.0582 20.3478 11.8473C20.6327 12.5149 20.1787 13.761 20.0007 14.4642C19.7782 15.3187 19.5734 16.1732 19.3509 17.0188C18.6388 19.7604 17.3393 19.4755 15.3899 19.4755C14.3218 19.4755 13.2537 19.4666 12.1856 19.4755C11.2242 19.4844 10.5567 18.8792 9.72886 18.6655ZM0 12.5416C0 15.0695 0.231428 16.2177 1.20164 18.5053C1.37076 18.8881 1.54878 19.1818 1.75351 19.52C1.86922 19.7159 1.92263 19.8227 2.03834 20.0007C2.42109 20.5704 2.58131 20.8196 3.06197 21.3714C3.3468 21.7097 3.65834 22.0835 3.99658 22.3595L4.60185 22.9202C4.90448 23.1695 5.17152 23.4009 5.48305 23.6145C7.46799 25.0209 10.076 26 12.5416 26C13.859 26 14.9182 25.9911 16.1821 25.6262C18.1671 25.0565 20.3211 24.0685 21.772 22.5909L22.2081 22.2081C22.3506 22.0657 22.404 21.9589 22.5642 21.7987C23.1161 21.2557 23.8281 20.241 24.2376 19.5645C25.2612 17.8555 26 15.47 26 13.4584C26 11.7316 25.8843 10.2095 25.2523 8.61623C24.7182 7.25436 24.4779 6.7381 23.6412 5.51866L22.2081 3.79185L21.3982 3.07977C21.0955 2.83054 20.8285 2.60801 20.5169 2.38548C18.5409 0.988018 15.9418 0 13.4584 0C10.9305 0 9.78227 0.231428 7.50359 1.20164C6.56008 1.60219 4.94009 2.68812 4.228 3.41801C3.84526 3.80075 4.05888 3.49812 3.64053 3.99658C3.20438 4.52174 2.97295 4.65526 2.38548 5.48305C1.46868 6.79151 0.783293 8.19788 0.382746 9.78227C0.186922 10.5656 0 11.607 0 12.5416Z" fill="#1F5FDB"/>
</g>
<defs>
<clipPath id="clip0_416_3547">
<rect width="26" height="26" fill="white"/>
</clipPath>
</defs>
</svg>
