<svg width="60" height="60" viewBox="0 0 60 60" fill="none" xmlns="http://www.w3.org/2000/svg">
<rect width="60" height="60" rx="16" fill="#1F5FDB"/>
<path d="M26.7288 37.1814C26.6813 37.3751 25.5113 41.7501 19.0001 41.7501C18.8012 41.7501 18.6104 41.6711 18.4698 41.5305C18.3291 41.3898 18.2501 41.199 18.2501 41.0001C18.2501 34.4889 22.6326 33.3189 22.8188 33.2726C23.0104 33.2282 23.2118 33.2608 23.3796 33.3635C23.5474 33.4661 23.6682 33.6305 23.7159 33.8214C23.7636 34.0122 23.7344 34.2141 23.6347 34.3836C23.5349 34.5531 23.3726 34.6767 23.1826 34.7276C23.0576 34.7614 20.0776 35.6126 19.7751 40.2276C24.4426 39.9189 25.2651 36.8526 25.2751 36.8201C25.3233 36.627 25.4463 36.461 25.617 36.3585C25.7876 36.2561 25.992 36.2256 26.1851 36.2739C26.3782 36.3221 26.5442 36.4451 26.6467 36.6158C26.7491 36.7864 26.7796 36.9908 26.7313 37.1839L26.7288 37.1814ZM38.4201 28.6414L37.7501 29.3101V36.7064C37.7506 36.9361 37.7055 37.1636 37.6175 37.3758C37.5296 37.588 37.4004 37.7806 37.2376 37.9426L32.9438 42.2364C32.7142 42.4658 32.4254 42.6268 32.1095 42.7015C31.7936 42.7762 31.4632 42.7615 31.1552 42.6592C30.8472 42.5569 30.5737 42.3709 30.3653 42.1221C30.1569 41.8732 30.0218 41.5713 29.9751 41.2501L29.2926 36.3564L23.6476 30.7076L18.7563 30.0251C18.4344 29.9796 18.1315 29.8452 17.8816 29.6371C17.6317 29.429 17.4448 29.1555 17.3417 28.847C17.2386 28.5386 17.2235 28.2076 17.2981 27.8911C17.3727 27.5746 17.5339 27.2851 17.7638 27.0551L22.0576 22.7614C22.2197 22.5987 22.4123 22.4698 22.6245 22.382C22.8367 22.2943 23.0642 22.2494 23.2938 22.2501H30.6901L31.3588 21.5814C34.6226 18.3176 38.5551 18.1776 40.0938 18.2689C40.5196 18.2952 40.9212 18.4761 41.223 18.7776C41.5247 19.0792 41.706 19.4806 41.7326 19.9064C41.8238 21.4451 41.6826 25.3751 38.4201 28.6414ZM18.9663 28.5401L23.7338 29.2051L29.1901 23.7501H23.2938C23.2276 23.7504 23.1643 23.7769 23.1176 23.8239L18.8251 28.1151C18.7932 28.1473 18.7706 28.1876 18.7598 28.2316C18.749 28.2757 18.7504 28.3218 18.7638 28.3651C18.7766 28.411 18.8026 28.4521 18.8386 28.4833C18.8746 28.5144 18.9191 28.5342 18.9663 28.5401ZM36.2501 30.8101L30.7938 36.2664L31.4588 41.0364C31.4657 41.0823 31.4852 41.1253 31.5152 41.1608C31.5452 41.1962 31.5844 41.2226 31.6285 41.237C31.6726 41.2514 31.7199 41.2532 31.765 41.2423C31.81 41.2314 31.8512 41.2081 31.8838 41.1751L36.1763 36.8826C36.2233 36.836 36.2498 36.7726 36.2501 36.7064V30.8101ZM40.2351 20.0001C40.2303 19.9411 40.2046 19.8857 40.1627 19.8438C40.1208 19.8019 40.0654 19.7762 40.0063 19.7714C38.6099 19.6818 37.2105 19.8919 35.9021 20.3878C34.5936 20.8837 33.4064 21.6538 32.4201 22.6464L25.0613 30.0001L30.0001 34.9389L36.4701 28.4701L37.3588 27.5814C38.351 26.5958 39.121 25.4094 39.617 24.1019C40.1131 22.7943 40.3238 21.3958 40.2351 20.0001Z" fill="white"/>
</svg>
