<svg width="60" height="60" viewBox="0 0 60 60" fill="none" xmlns="http://www.w3.org/2000/svg">
<rect width="60" height="60" rx="16" fill="#1F5FDB"/>
<path d="M33 26.25H27C26.8011 26.25 26.6103 26.329 26.4697 26.4697C26.329 26.6103 26.25 26.8011 26.25 27V33C26.25 33.1989 26.329 33.3897 26.4697 33.5303C26.6103 33.671 26.8011 33.75 27 33.75H33C33.1989 33.75 33.3897 33.671 33.5303 33.5303C33.671 33.3897 33.75 33.1989 33.75 33V27C33.75 26.8011 33.671 26.6103 33.5303 26.4697C33.3897 26.329 33.1989 26.25 33 26.25ZM32.25 32.25H27.75V27.75H32.25V32.25ZM43 32.25H40.75V27.75H43C43.1989 27.75 43.3897 27.671 43.5303 27.5303C43.671 27.3897 43.75 27.1989 43.75 27C43.75 26.8011 43.671 26.6103 43.5303 26.4697C43.3897 26.329 43.1989 26.25 43 26.25H40.75V21C40.75 20.5359 40.5656 20.0908 40.2374 19.7626C39.9092 19.4344 39.4641 19.25 39 19.25H33.75V17C33.75 16.8011 33.671 16.6103 33.5303 16.4697C33.3897 16.329 33.1989 16.25 33 16.25C32.8011 16.25 32.6103 16.329 32.4697 16.4697C32.329 16.6103 32.25 16.8011 32.25 17V19.25H27.75V17C27.75 16.8011 27.671 16.6103 27.5303 16.4697C27.3897 16.329 27.1989 16.25 27 16.25C26.8011 16.25 26.6103 16.329 26.4697 16.4697C26.329 16.6103 26.25 16.8011 26.25 17V19.25H21C20.5359 19.25 20.0908 19.4344 19.7626 19.7626C19.4344 20.0908 19.25 20.5359 19.25 21V26.25H17C16.8011 26.25 16.6103 26.329 16.4697 26.4697C16.329 26.6103 16.25 26.8011 16.25 27C16.25 27.1989 16.329 27.3897 16.4697 27.5303C16.6103 27.671 16.8011 27.75 17 27.75H19.25V32.25H17C16.8011 32.25 16.6103 32.329 16.4697 32.4697C16.329 32.6103 16.25 32.8011 16.25 33C16.25 33.1989 16.329 33.3897 16.4697 33.5303C16.6103 33.671 16.8011 33.75 17 33.75H19.25V39C19.25 39.4641 19.4344 39.9092 19.7626 40.2374C20.0908 40.5656 20.5359 40.75 21 40.75H26.25V43C26.25 43.1989 26.329 43.3897 26.4697 43.5303C26.6103 43.671 26.8011 43.75 27 43.75C27.1989 43.75 27.3897 43.671 27.5303 43.5303C27.671 43.3897 27.75 43.1989 27.75 43V40.75H32.25V43C32.25 43.1989 32.329 43.3897 32.4697 43.5303C32.6103 43.671 32.8011 43.75 33 43.75C33.1989 43.75 33.3897 43.671 33.5303 43.5303C33.671 43.3897 33.75 43.1989 33.75 43V40.75H39C39.4641 40.75 39.9092 40.5656 40.2374 40.2374C40.5656 39.9092 40.75 39.4641 40.75 39V33.75H43C43.1989 33.75 43.3897 33.671 43.5303 33.5303C43.671 33.3897 43.75 33.1989 43.75 33C43.75 32.8011 43.671 32.6103 43.5303 32.4697C43.3897 32.329 43.1989 32.25 43 32.25ZM39.25 39C39.25 39.0663 39.2237 39.1299 39.1768 39.1768C39.1299 39.2237 39.0663 39.25 39 39.25H21C20.9337 39.25 20.8701 39.2237 20.8232 39.1768C20.7763 39.1299 20.75 39.0663 20.75 39V21C20.75 20.9337 20.7763 20.8701 20.8232 20.8232C20.8701 20.7763 20.9337 20.75 21 20.75H39C39.0663 20.75 39.1299 20.7763 39.1768 20.8232C39.2237 20.8701 39.25 20.9337 39.25 21V39Z" fill="white"/>
</svg>
