<svg width="60" height="60" viewBox="0 0 60 60" fill="none" xmlns="http://www.w3.org/2000/svg">
<rect width="60" height="60" rx="16" fill="#1F5FDB"/>
<path d="M40 19.25H20C19.5359 19.25 19.0908 19.4344 18.7626 19.7626C18.4344 20.0908 18.25 20.5359 18.25 21V28.3462C18.25 39.3775 27.585 43.0362 29.4563 43.6575C29.8088 43.7775 30.1912 43.7775 30.5438 43.6575C32.4188 43.0325 41.75 39.3775 41.75 28.3462V21C41.75 20.5359 41.5656 20.0908 41.2374 19.7626C40.9092 19.4344 40.4641 19.25 40 19.25ZM40.25 21V28.3462C40.25 28.6537 40.2412 28.9538 40.2262 29.2475H30.75V20.75H40C40.0663 20.75 40.1299 20.7763 40.1768 20.8232C40.2237 20.8701 40.25 20.9337 40.25 21ZM19.75 21C19.75 20.9337 19.7763 20.8701 19.8232 20.8232C19.8701 20.7763 19.9337 20.75 20 20.75H29.25V29.25H19.7737C19.7587 28.9563 19.75 28.6562 19.75 28.3488V21ZM19.925 30.75H29.25V41.9875C26.8962 41.055 21.01 38.0225 19.925 30.75ZM30.75 41.9875V30.75H40.075C38.99 38.0212 33.1038 41.055 30.75 41.9875Z" fill="white"/>
</svg>
