<svg width="60" height="60" viewBox="0 0 60 60" fill="none" xmlns="http://www.w3.org/2000/svg">
<rect width="60" height="60" rx="16" fill="#1F5FDB"/>
<path d="M45.3526 25.339L30.3526 17.339C30.2443 17.2806 30.1231 17.25 30.0001 17.25C29.877 17.25 29.7559 17.2806 29.6476 17.339L14.6476 25.339C14.5279 25.4031 14.4278 25.4984 14.3581 25.6149C14.2883 25.7313 14.2515 25.8645 14.2515 26.0003C14.2515 26.136 14.2883 26.2692 14.3581 26.3857C14.4278 26.5021 14.5279 26.5975 14.6476 26.6615L18.2501 28.584V34.7865C18.25 35.2161 18.4079 35.6308 18.6938 35.9515C20.3026 37.7428 23.9113 40.7503 30.0001 40.7503C32.1441 40.7704 34.27 40.3567 36.2501 39.534V44.0003C36.2501 44.1992 36.3291 44.3899 36.4697 44.5306C36.6104 44.6712 36.8011 44.7503 37.0001 44.7503C37.199 44.7503 37.3897 44.6712 37.5304 44.5306C37.671 44.3899 37.7501 44.1992 37.7501 44.0003V38.794C39.0812 38.0443 40.2822 37.084 41.3063 35.9503C41.5929 35.6304 41.7509 35.2159 41.7501 34.7865V28.584L45.3526 26.6615C45.4722 26.5975 45.5723 26.5021 45.6421 26.3857C45.7118 26.2692 45.7487 26.136 45.7487 26.0003C45.7487 25.8645 45.7118 25.7313 45.6421 25.6149C45.5723 25.4984 45.4722 25.4031 45.3526 25.339ZM30.0001 39.2503C24.5001 39.2503 21.2501 36.5553 19.8101 34.949C19.7713 34.9037 19.7501 34.8461 19.7501 34.7865V29.384L29.6476 34.6615C29.7561 34.7193 29.8771 34.7495 30.0001 34.7495C30.123 34.7495 30.2441 34.7193 30.3526 34.6615L36.2501 31.5165V37.8915C34.6251 38.669 32.5563 39.2503 30.0001 39.2503ZM40.2501 34.7865C40.2501 34.8461 40.2288 34.9037 40.1901 34.949C39.4697 35.747 38.6496 36.4491 37.7501 37.0378V30.7165L40.2501 29.384V34.7865ZM37.4813 29.1615C37.4426 29.1279 37.4008 29.0982 37.3563 29.0728L30.3563 25.3403C30.1819 25.2565 29.9819 25.2434 29.7981 25.3036C29.6142 25.3639 29.4608 25.4928 29.3698 25.6635C29.2788 25.8342 29.2572 26.0335 29.3097 26.2197C29.3622 26.4059 29.4846 26.5647 29.6513 26.6628L35.9063 30.0003L30.0001 33.1503L16.5938 26.0003L30.0001 18.8503L43.4063 26.0003L37.4813 29.1615Z" fill="white"/>
</svg>
