<svg width="32" height="32" viewBox="0 0 32 32" fill="none" xmlns="http://www.w3.org/2000/svg">
  <g opacity="0.3" clip-path="url(#clip0_371_3728)">
    <path d="M16 32C24.8366 32 32 24.8366 32 16C32 7.16344 24.8366 0 16 0C7.16344 0 0 7.16344 0 16C0 24.8366 7.16344 32 16 32Z" fill="black" stroke="#2B2A29" stroke-width="0.666607" />
    <path fill-rule="evenodd" clip-rule="evenodd" d="M21.1132 19.7923C20.9175 19.5721 20.9786 19.7066 20.8318 19.6088C19.5107 20.4284 17.7493 20.2326 17.1866 18.8015C16.8563 17.9207 16.9419 14.5201 16.9908 13.3703L18.8135 13.3825C18.8624 14.6547 18.7768 15.9146 18.8135 17.1256C18.8624 18.777 19.7064 18.6669 20.8808 18.1654V13.3947L22.7034 13.3703L22.7279 19.9513C22.2508 19.9635 21.4312 20.1103 21.1132 19.7923ZM14.1407 16.2449C14.4954 17.0522 16.2936 19.2541 16.367 19.9513C13.419 19.9391 14.8257 20.4773 12.3548 16.7831L11.2294 16.7464C11.156 19.3764 11.5841 19.9024 10.7645 19.9758C10.3731 20.0002 9.73703 19.9758 9.51684 19.8534C9.29666 19.4131 9.33336 12.2693 9.45568 11.3397C11.1193 10.9605 14.0184 11.1684 15.0092 12.1226C15.5597 12.6485 15.8899 13.517 15.6453 14.5201C15.3762 15.5966 14.8624 15.6822 14.1407 16.2449ZM8.8196 6.42224C5.46791 7.21735 6.11623 10.7648 6.11623 13.4926C6.11623 15.254 5.90828 21.9329 6.26302 23.1073C7.16822 26.092 10.2141 25.6027 13.4924 25.6027C15.5352 25.6027 21.5535 25.8596 23.1315 25.517C24.3303 25.2479 25.3701 24.306 25.7003 23.2051C26.0551 22.043 25.9694 9.70053 25.737 8.88096C24.8685 5.78616 21.8716 6.33662 18.4954 6.33662C16.5382 6.33662 10.263 6.07974 8.8196 6.42224Z" fill="#FEFEFE" />
    <path fill-rule="evenodd" clip-rule="evenodd" d="M11.2173 15.1678H12.0002C13.0888 15.1678 14.1531 14.9477 13.8473 13.6633C13.6148 12.7214 12.2081 12.8437 11.2173 12.8682V15.1678Z" fill="#FEFEFE" />
    <path fill-rule="evenodd" clip-rule="evenodd" d="M8.81957 6.42202C10.263 6.07951 16.5382 6.33639 18.4954 6.33639C21.8716 6.33639 24.8685 5.78593 25.737 8.88073C25.9694 9.70031 26.055 22.0428 25.7003 23.2049C25.37 24.3058 24.3303 25.2477 23.1315 25.5168C21.5535 25.8593 15.5352 25.6024 13.4924 25.6024C10.2141 25.6024 7.1682 26.0917 6.263 23.107C5.90826 21.9327 6.11621 15.2538 6.11621 13.4924C6.11621 10.7645 5.46789 7.21713 8.81957 6.42202ZM0 15.2538C0 18.5321 0.207951 19.9511 1.50459 22.8746C3.73089 27.8899 9.63914 32 15.2538 32C18.5321 32 19.9511 31.7798 22.8746 30.4954C27.9021 28.2691 32 22.3609 32 16.7462C32 13.4679 31.7798 12.0367 30.4954 9.12538C29.37 6.58104 27.4495 4.56269 25.2966 2.94801C23.1682 1.33333 19.6453 0 16.7462 0C13.4679 0 12.0367 0.207951 9.12538 1.50459C6.59327 2.61774 4.58716 4.52599 2.94801 6.69113C1.33333 8.81957 0 12.3547 0 15.2538Z" fill="black" />
    <path fill-rule="evenodd" clip-rule="evenodd" d="M11.2169 12.8679C12.2077 12.8434 13.6145 12.7211 13.8469 13.663C14.1527 14.9474 13.0885 15.1675 11.9998 15.1675H11.2169V12.8679ZM14.1405 16.244C14.8622 15.6813 15.3759 15.5957 15.645 14.5192C15.8897 13.5162 15.5594 12.6477 15.009 12.1217C14.0181 11.1675 11.1191 10.9596 9.45545 11.3388C9.33312 12.2685 9.29642 19.4122 9.51661 19.8526C9.73679 19.9749 10.3729 19.9994 10.7643 19.9749C11.5839 19.9015 11.1558 19.3755 11.2291 16.7455L12.3545 16.7822C14.8255 20.4764 13.4187 19.9382 16.3668 19.9504C16.2934 19.2532 14.4952 17.0513 14.1405 16.244Z" fill="black" />
    <path fill-rule="evenodd" clip-rule="evenodd" d="M20.8319 19.6077C21.0521 19.4731 20.5628 19.4364 21.101 19.4976L21.1132 19.7912C21.4313 20.1092 22.2508 19.9624 22.7279 19.9502L22.7034 13.3691L20.8808 13.3936V18.1642C19.7065 18.6658 18.8625 18.7759 18.8135 17.1245C18.7768 15.9135 18.8625 14.6535 18.8135 13.3814L16.9909 13.3691C16.942 14.519 16.8563 17.9196 17.1866 18.8003C17.7493 20.2315 19.5108 20.4272 20.8319 19.6077Z" fill="black" />
    <path fill-rule="evenodd" clip-rule="evenodd" d="M21.1134 19.793L21.1011 19.4994C20.5629 19.4382 21.0522 19.4749 20.832 19.6095C20.9788 19.7073 20.9177 19.5728 21.1134 19.793Z" fill="#909090" />
  </g>
  <defs>
    <clipPath id="clip0_371_3728">
      <rect width="32" height="32" fill="white" />
    </clipPath>
  </defs>
</svg>