<svg width="32" height="32" viewBox="0 0 32 32" fill="none" xmlns="http://www.w3.org/2000/svg">
  <g opacity="0.2" clip-path="url(#clip0_371_3744)">
    <path fill-rule="evenodd" clip-rule="evenodd" d="M12.6239 10.7523C13.1498 10.0306 14.7278 10.1284 15.7431 10.1284C17.9205 10.1284 17.7492 10.8135 17.7492 12.5015C17.7492 13.1132 17.1621 17.945 19.3517 14.9847L20.9419 12.318C21.1743 11.7676 21.37 11.2171 21.6269 10.7523C22.4954 10.7523 23.3761 10.7523 24.2446 10.7523C25.4557 10.7523 27.792 9.92049 24.7829 13.9083C23.2905 15.8899 22.3486 16.5627 23.4006 17.5902C24.2202 18.3976 26.2508 20.1468 26.2508 21.2477C26.2508 21.7492 25.7492 21.7125 25.2599 21.7615L22.6177 21.8716C20.7217 21.8716 19.6208 19.1193 18.7523 19.1193C17.1988 19.1193 18.2752 21.7492 17.1254 21.7492C14.8746 21.7492 13.419 21.7859 11.5963 20.2813C9.72477 18.7278 8.36697 16.526 7.25382 14.3731C6.74006 13.3945 5.74924 11.8654 5.74924 10.7523L8.8685 10.6177C10.2018 10.6177 9.88379 11.2661 11.0336 13.3333C11.7431 14.5933 12.2691 15.8777 13.4924 15.8777C13.6024 15.4128 13.6636 15.4985 13.7737 14.8991C13.9205 14.0306 13.9205 12.4771 13.6514 11.7309C13.37 10.9725 12.9297 11.1682 12.6239 10.7523ZM0 15.2538C0 18.5321 0.207951 19.9511 1.50459 22.8746C3.73089 27.8899 9.63914 32 15.2538 32C18.5321 32 19.9511 31.7798 22.8746 30.4954C27.9021 28.2691 32 22.3609 32 16.7462C32 13.4679 31.7798 12.0367 30.4954 9.12538C29.37 6.58104 27.4495 4.56269 25.2966 2.94801C23.1682 1.33333 19.6453 0 16.7462 0C13.4679 0 12.0367 0.207951 9.12538 1.50459C6.59327 2.61774 4.58716 4.52599 2.94801 6.69113C1.33333 8.81957 0 12.3547 0 15.2538Z" fill="black" />
  </g>
  <defs>
    <clipPath id="clip0_371_3744">
      <rect width="32" height="32" fill="white" />
    </clipPath>
  </defs>
</svg>