<svg width="32" height="32" viewBox="0 0 32 32" fill="none" xmlns="http://www.w3.org/2000/svg">
  <g opacity="0.2" clip-path="url(#clip0_371_3741)">
    <path fill-rule="evenodd" clip-rule="evenodd" d="M16 0C24.8318 0 32 7.1682 32 16C32 24.8318 24.8318 32 16 32C7.1682 32 0 24.8318 0 16C0 7.1682 7.1682 0 16 0ZM14.63 12.685L7.69419 15.6942C7.52294 15.9388 6.11621 16.1101 6.12844 16.8685C6.23853 17.2844 6.45872 17.3456 6.91132 17.5168C7.68196 17.7982 9.34557 18.2997 10.0917 18.3853C11.4862 18.5443 15.0581 15.7431 16.3792 14.8624C16.7095 14.6544 18.8502 13.0887 19.1315 13.3578C19.3884 13.7492 18.7645 14.1407 18.5443 14.3486C18.263 14.6177 18.2018 14.7645 17.7492 15.1804C16.6606 16.1835 15.6086 17.1988 14.5443 18.2141C14.3609 18.3976 14.2141 18.5688 14.0306 18.7034C13.737 18.9969 13.4924 19.4006 13.7982 19.8777C14.0306 20.2569 14.6422 20.5994 15.0214 20.844C15.1315 20.9174 15.1682 20.9419 15.2783 21.0153L18.9358 23.4862C21.9327 25.5046 21.5535 21.8593 21.9817 20.7339L23.4251 11.4251C23.4862 10.6789 23.6453 9.85933 22.8379 9.71254C22.3119 9.60245 21.4557 9.94495 20.9908 10.1162C18.9113 10.8746 16.685 11.8287 14.63 12.685Z" fill="black" />
  </g>
  <defs>
    <clipPath id="clip0_371_3741">
      <rect width="32" height="32" fill="white" />
    </clipPath>
  </defs>
</svg>