<svg width="32" height="25" viewBox="0 0 32 25" fill="none" xmlns="http://www.w3.org/2000/svg">
  <g clip-path="url(#clip0_387_3524)">
    <path fill-rule="evenodd" clip-rule="evenodd" d="M25.5575 23.766H3.20944C2.0413 23.766 1.16814 22.7797 1.16814 21.8052C1.16814 21.2534 1.46313 20.5489 1.59292 20.1262L3.15044 15.1361C3.45723 14.0559 3.88201 12.9405 4.20059 11.8133C4.46018 10.9092 4.84956 9.45328 6.20649 9.45328H28.9911C30.0059 9.45328 30.8201 10.4983 30.8201 11.3436C30.8201 11.919 28.0118 20.6193 27.7286 21.4882C27.5044 22.1457 27.4572 22.5332 27.1032 23.0381C26.8437 23.402 26.1947 23.766 25.5575 23.766ZM1.16814 17.2965V3.85264C1.16814 2.8781 1.27434 1.9975 2.15929 1.50436C2.35988 1.38695 2.79646 1.23431 3.06785 1.23431H10.4425C12.5192 1.23431 12.4956 3.87612 15.5634 4.20488C16.6136 4.32229 23.115 4.16966 24.9793 4.21662C26.0649 4.2401 26.8791 5.12071 26.8791 6.40052V8.20869H6.27729C5.35693 8.20869 4.35398 8.84272 3.9528 9.38283C3.17404 10.4278 2.17109 14.3612 1.64012 15.9463C1.52212 16.2633 1.33333 17.0734 1.16814 17.2965ZM0 2.98378V22.0283C0 23.5899 1.49852 24.9989 3.57522 24.9989H25.1917C26.6903 24.9989 27.7758 24.4353 28.413 23.1907C28.6844 22.6388 29.3687 20.2671 29.6637 19.4217C29.8643 18.8112 30.0413 18.1654 30.2419 17.5196L31.4454 13.7154C32 12.0951 32.5074 10.557 31.0206 9.10104C30.1003 8.19695 29.2389 8.20869 28.0472 8.20869C28.0472 6.52967 28.295 5.03852 27.115 3.91134C26.6431 3.45343 25.8997 3.019 25.0501 2.98378C22.7847 2.8781 18.5841 2.97203 16 2.98378C14.7729 2.98378 14.4779 2.74895 13.8643 2.12665C13.4513 1.72745 12.7552 0.952517 12.3422 0.658982C11.7168 0.201068 11.0206 0.00146484 9.9351 0.00146484H3.57522C2.34808 0.00146484 1.80531 0.259775 1.10914 0.81162C0.60177 1.21083 0 2.10317 0 2.98378Z" fill="white" />
  </g>
  <defs>
    <clipPath id="clip0_387_3524">
      <rect width="32" height="25" fill="white" />
    </clipPath>
  </defs>
</svg>