<svg width="60" height="60" viewBox="0 0 60 60" fill="none" xmlns="http://www.w3.org/2000/svg">
  <rect width="60" height="60" rx="30" fill="white" />
  <path fill-rule="evenodd" clip-rule="evenodd" d="M29.9941 44.6893C29.2167 44.6893 26.2011 43.0755 25.4354 42.569L24.0101 41.5559C23.8334 41.4145 23.692 41.3203 23.5154 41.179C23.1973 40.8962 22.9028 40.696 22.6083 40.3897C22.3138 40.0834 22.0311 39.895 21.7366 39.5769L20.9592 38.7288C19.9462 37.5272 19.6634 37.0914 18.8624 35.7603C18.5562 35.2538 18.0496 34.0522 17.8494 33.4632C17.6138 32.7565 17.3075 31.5196 17.3075 30.6243V18.88C17.708 18.88 18.297 18.7504 18.674 18.6797C20.9239 18.1967 23.48 17.1366 25.3765 15.8761C25.5179 15.7819 26.2482 15.2518 26.3778 15.2518H33.6222C33.74 15.2518 34.435 15.7466 34.5881 15.8526C34.9062 16.0646 35.236 16.2649 35.5658 16.4416C37.6626 17.5724 38.923 18.1261 41.2789 18.6562C41.6677 18.7386 42.2802 18.88 42.6807 18.88V30.5065C42.6807 33.263 41.1494 36.0783 39.4884 38.1869L38.6992 39.0822C38.4518 39.3295 38.3105 39.5887 37.8864 39.9539C37.7097 40.107 37.6273 40.1541 37.4506 40.3308C36.7202 41.0729 35.4834 41.9446 34.5999 42.5336C33.8814 43.0166 33.2217 43.3582 32.4325 43.7469C32.0673 43.9354 30.4182 44.6893 29.9941 44.6893ZM16 18.3145V30.1885C16 33.051 17.3075 36.1019 18.9802 38.3283C19.1334 38.5285 19.2394 38.6699 19.3925 38.8583L20.7 40.3662C21.6895 41.3439 22.5494 42.1449 23.692 42.9341C24.0572 43.2051 24.4106 43.4407 24.7993 43.6998L26.578 44.7364C27.273 45.078 29.3816 45.9969 29.9941 45.9969C30.9836 45.9969 34.1287 44.4184 35.1653 43.7234L36.7791 42.6043C36.9794 42.4512 37.1207 42.3216 37.2974 42.1802C38.0278 41.603 38.605 41.0494 39.2646 40.3897C39.8772 39.7772 40.4308 39.1057 40.9609 38.3989L42.0799 36.7144C43.1754 34.7355 44 32.5915 44 30.1885V18.3145C44 18.0907 43.8469 17.8316 43.682 17.7491C43.517 17.6667 43.199 17.6431 42.9398 17.6313C42.4687 17.596 41.8443 17.4664 41.3849 17.3604C40.419 17.1601 39.4767 16.8421 38.6285 16.5005C37.5684 16.0764 36.0606 15.2989 35.0947 14.6511C34.8591 14.4861 34.223 14.0032 33.9403 14.0032H26.0597C25.777 14.0032 24.3753 15.0162 23.8098 15.3107C19.1334 17.8434 16.9188 17.5017 16.3534 17.7373C16.1649 17.808 16 18.0672 16 18.3145Z" fill="#1F5FDB" />
  <path fill-rule="evenodd" clip-rule="evenodd" d="M22.7499 29.3168C22.7499 27.8443 22.7617 27.0315 23.4567 25.6533C23.6805 25.2174 23.7983 24.9583 24.081 24.5813C24.3755 24.1926 24.5168 24.0159 24.8585 23.6743C25.9893 22.5435 27.8269 21.5657 29.4996 21.5657C30.972 21.5657 31.7848 21.5775 33.163 22.2725C34.0112 22.6966 34.4706 23.0029 35.142 23.6743C36.2728 24.8052 37.2505 26.6428 37.2505 28.3155C37.2505 29.788 37.2388 30.6008 36.5438 31.979C36.32 32.4148 36.2022 32.674 35.9195 33.051C35.6485 33.4043 35.4483 33.6399 35.142 33.958C34.8004 34.2878 34.6237 34.441 34.235 34.7355C33.3515 35.3951 31.7142 36.0666 30.5009 36.0666C29.0284 36.0666 28.2156 36.0548 26.8374 35.3598C25.9893 34.9357 25.5299 34.6294 24.8585 33.958C24.5168 33.6164 24.3755 33.4397 24.081 33.051C23.4213 32.1675 22.7499 30.5301 22.7499 29.3168ZM21.4424 28.6925C21.4424 33.6046 25.2118 37.3741 30.1239 37.3741C34.7062 37.3741 38.5581 33.581 38.5581 28.6925C38.5581 24.1102 34.7651 20.2582 29.8765 20.2582C25.3179 20.2582 21.4424 24.1337 21.4424 28.6925Z" fill="#1F5FDB" />
  <path fill-rule="evenodd" clip-rule="evenodd" d="M28.4982 30.7539L27.8621 29.9529C27.6265 29.6702 27.4381 29.3992 27.2025 29.1165C26.9669 28.8338 26.7902 28.5864 26.5664 28.3037C26.4604 28.1624 26.3543 28.021 26.2365 27.8914C25.8007 27.4085 25.0586 27.5969 25.0586 28.2566C25.0586 28.6453 27.0729 31.0248 27.4498 31.496C27.7915 31.9201 28.0153 32.3795 28.4982 32.3795C28.8752 32.3795 29.9 31.1898 30.2063 30.8953L34.2349 26.8666C34.3998 26.7017 35.3775 25.936 34.7296 25.4059C34.1995 24.9701 33.7283 25.5473 33.481 25.7947C32.7978 26.4897 28.7927 30.5537 28.4982 30.7539Z" fill="#1F5FDB" />
</svg>