<svg width="42" height="48" viewBox="0 0 42 48" fill="none" xmlns="http://www.w3.org/2000/svg">
  <g clip-path="url(#clip0_304_3548)">
    <path fill-rule="evenodd" clip-rule="evenodd" d="M1.4451 14.8941C1.93591 14.6824 22.9145 14.8094 25.3965 14.8094V25.6941C22.8864 25.6941 2.03407 25.8212 1.4451 25.6235C1.27682 25.2141 1.27682 15.2894 1.4451 14.8941ZM10.2656 0H12.0045C12.1307 0 12.2429 0 12.3691 0C13.7574 0 15.1597 0 16.562 0H21.3579H21.4981H21.6524H21.8066H21.9469C23.4053 0 24.9057 0.0423529 26.3641 0H27.6122C28.706 0.0988235 28.7901 0.592941 29.8419 1.60941L41.7895 13.68C42.1121 14.2871 41.9718 17.3929 41.9718 18.2824V42.2824C41.9718 43.8212 42.1822 44.9929 41.2286 46.32C40.4433 47.3788 39.4477 47.9294 38.1435 48H33.3196H14.2201H14.2061H10.3918C8.9755 47.8447 7.6994 47.3224 6.90008 45.8118C6.1849 44.4282 6.49341 38.4706 6.49341 36.5647C6.49341 33.3741 6.49341 30.1976 6.49341 27.0071C5.37156 27.0071 4.24972 27.0071 3.14189 27.0071C2.25844 27.0071 0.968312 27.2612 0.365319 26.5129C-0.125489 25.9059 0.0708344 24.24 0.0708344 23.4353C0.0708344 22.3482 0.0708344 21.2471 0.0708344 20.16C0.0708344 12.4941 -1.10711 13.4118 6.49341 13.4118C6.49341 11.7882 6.49341 10.1647 6.49341 8.52706C6.49341 5.32235 5.84835 2.27294 8.26032 0.649412C8.91941 0.211765 9.57849 0.0564706 10.2656 0ZM7.79756 4.68706C7.79756 2.32941 8.80722 1.31294 11.1491 1.31294H10.5882C16.1413 1.31294 21.7085 1.31294 27.2616 1.31294V11.7176C27.2616 13.8776 28.3133 14.8094 30.4308 14.8094H40.6256L40.6677 41.7318C40.6677 43.0306 40.878 44.7388 39.9525 45.7835C38.9288 46.9271 37.3302 46.7012 35.9279 46.7012H12.4532C8.31641 46.7012 7.79756 46.1788 7.79756 42L7.61526 27.0071C13.2245 27.0071 18.8478 27.0071 24.471 27.0071C26.4623 27.0071 26.7989 26.9082 26.7989 24.4659V16.0376C26.7989 13.5388 26.5324 13.4118 23.9942 13.4118H7.79756V4.68706ZM28.6639 2.34353L39.6721 13.3835L31.4545 13.4118C30.6692 13.4118 29.6035 13.6235 29.0005 13.0588C28.4396 12.5506 28.6639 11.4353 28.6639 10.6871V2.34353Z" fill="#1F5FDB" />
    <path fill-rule="evenodd" clip-rule="evenodd" d="M11.7937 36.1977C11.3169 36.3812 11.1487 36.8471 11.4992 37.2424C11.7797 37.5953 12.5089 37.5106 12.9156 37.5106C16.6317 37.4824 36.236 37.6094 36.6707 37.4259C37.0914 37.2424 37.2456 36.7341 36.9652 36.3671C36.6987 35.9859 35.9836 36.0989 35.5488 36.0989C31.7486 36.113 12.3827 35.9718 11.7937 36.1977Z" fill="#1F5FDB" />
    <path fill-rule="evenodd" clip-rule="evenodd" d="M11.6675 31.313C11.2749 31.5671 11.2328 32.0612 11.5834 32.3859C11.9199 32.6824 12.6491 32.5412 13.0979 32.5412C16.7298 32.5412 36.4323 32.64 36.7829 32.4565C37.1755 32.2447 37.2316 31.6941 36.8951 31.3836C36.5305 31.0588 32.604 31.2283 32.015 31.2283C29.2104 31.2283 12.0041 31.1012 11.6675 31.313Z" fill="#1F5FDB" />
    <path fill-rule="evenodd" clip-rule="evenodd" d="M11.6675 41.1528C11.2749 41.4069 11.2328 41.9011 11.5834 42.2258C11.9199 42.5222 12.6491 42.3811 13.0979 42.3811C16.7298 42.3811 36.4323 42.494 36.7829 42.3105C37.1755 42.0846 37.2316 41.534 36.8951 41.2234C36.5305 40.9128 32.604 41.0681 32.015 41.0681C29.2104 41.0681 12.0041 40.9411 11.6675 41.1528Z" fill="#1F5FDB" />
    <path fill-rule="evenodd" clip-rule="evenodd" d="M11.9906 22.687V17.7176C14.2343 17.7176 14.8793 17.6611 14.8793 20.1599C14.8793 21.0211 15.0055 21.7552 14.3465 22.3481C13.7294 22.8846 12.7759 22.687 11.9906 22.687ZM10.9669 16.5034C10.3499 16.8987 10.5883 18.7058 10.5883 19.4117C10.5883 20.5411 10.6023 21.6564 10.5883 22.7858C10.5742 24.4093 11.1913 24.0987 12.5515 24.0987C13.6173 24.0987 14.3605 24.1411 15.2159 23.4211C15.9311 22.814 16.1835 21.9952 16.1835 21.1058C16.1695 20.0611 16.3377 18.9317 15.9311 17.9717C15.6646 17.3364 14.8513 16.6446 14.1642 16.4611C13.6874 16.334 11.3034 16.2776 10.9669 16.5034Z" fill="#1F5FDB" />
    <path fill-rule="evenodd" clip-rule="evenodd" d="M5.74975 19.4964V17.7176C6.63321 17.7176 8.52632 17.3647 8.62449 18.5788C8.75069 19.9059 6.57712 19.4964 5.74975 19.4964ZM5.74975 20.9082C6.64723 20.9082 7.99345 21.0776 8.76472 20.6682C9.52196 20.2588 10.0408 19.44 10.0128 18.5788C9.98473 17.8023 9.43783 16.927 8.73667 16.5882C7.9654 16.2353 6.43688 16.4188 5.55343 16.4047C4.02491 16.3906 4.4456 17.1811 4.4456 18.5647C4.4456 19.6941 4.4456 20.8094 4.4456 21.9388C4.4456 22.3059 4.38951 23.2235 4.4456 23.5341C4.51572 23.9576 5.00653 24.24 5.42722 23.9717C5.88998 23.6894 5.74975 23.1106 5.74975 22.6023C5.74975 22.0376 5.74975 21.4729 5.74975 20.9082Z" fill="#1F5FDB" />
    <path fill-rule="evenodd" clip-rule="evenodd" d="M18.231 20.9082C18.8761 20.9082 19.5351 20.9082 20.1802 20.9082C20.9935 20.9082 21.1899 21.0776 21.7368 20.5129C21.849 19.5811 21.3441 19.4964 20.5588 19.4964C19.7876 19.4964 19.0023 19.4964 18.231 19.4964V17.7176C19.1846 17.7176 20.1522 17.7176 21.1198 17.7176C21.5404 17.7317 21.9892 17.8164 22.2556 17.4635C22.494 17.1388 22.4239 16.6729 22.0593 16.4752C21.7508 16.3199 18.5675 16.4046 17.7542 16.4046C17.2494 16.4046 16.9268 16.447 16.8427 16.9835L16.8287 22.7858C16.8287 23.2094 16.7445 23.6611 17.0811 23.9435C17.4597 24.2399 17.8664 24.0988 18.0767 23.7599C18.3712 23.2941 18.231 21.5576 18.231 20.9082Z" fill="#1F5FDB" />
  </g>
  <defs>
    <clipPath id="clip0_304_3548">
      <rect width="42" height="48" fill="white" />
    </clipPath>
  </defs>
</svg>