<svg width="42" height="42" viewBox="0 0 42 42" fill="none" xmlns="http://www.w3.org/2000/svg">
  <g filter="url(#filter0_d_2036_12597)">
    <path d="M20 35.5C11.4396 35.5 4.5 28.5604 4.5 20C4.5 11.4396 11.4396 4.5 20 4.5C28.5604 4.5 35.5 11.4396 35.5 20C35.5 28.5604 28.5604 35.5 20 35.5Z" stroke="#1F5FDB" shape-rendering="crispEdges" />
  </g>
  <mask id="path-2-inside-1_2036_12597" fill="white">
    <path d="M10.4004 17.333L19.4514 8.28204L28.5023 17.333L19.4513 26.384L10.4004 17.333Z" />
  </mask>
  <path d="M19.4513 26.384L18.7442 27.0911L19.4513 27.7982L20.1584 27.0911L19.4513 26.384ZM28.5023 17.333L27.7952 16.6259L18.7442 25.6769L19.4513 26.384L20.1584 27.0911L29.2094 18.0401L28.5023 17.333ZM19.4513 26.384L20.1584 25.6769L11.1075 16.6259L10.4004 17.333L9.69328 18.0401L18.7442 27.0911L19.4513 26.384Z" fill="#1F5FDB" mask="url(#path-2-inside-1_2036_12597)" />
  <defs>
    <filter id="filter0_d_2036_12597" x="0" y="0" width="42" height="42" filterUnits="userSpaceOnUse" color-interpolation-filters="sRGB">
      <feFlood flood-opacity="0" result="BackgroundImageFix" />
      <feColorMatrix in="SourceAlpha" type="matrix" values="0 0 0 0 0 0 0 0 0 0 0 0 0 0 0 0 0 0 127 0" result="hardAlpha" />
      <feOffset dx="1" dy="1" />
      <feGaussianBlur stdDeviation="2.5" />
      <feComposite in2="hardAlpha" operator="out" />
      <feColorMatrix type="matrix" values="0 0 0 0 0.168627 0 0 0 0 0.192157 0 0 0 0 0.239216 0 0 0 0.3 0" />
      <feBlend mode="normal" in2="BackgroundImageFix" result="effect1_dropShadow_2036_12597" />
      <feBlend mode="normal" in="SourceGraphic" in2="effect1_dropShadow_2036_12597" result="shape" />
    </filter>
  </defs>
</svg>