<svg width="32" height="32" viewBox="0 0 32 32" fill="none" xmlns="http://www.w3.org/2000/svg">
<path d="M16 31.4004C7.49482 31.4004 0.599611 24.5052 0.599611 16C0.599612 7.49482 7.49482 0.599614 16 0.599615C24.5052 0.599615 31.4004 7.49482 31.4004 16C31.4004 24.5052 24.5052 31.4004 16 31.4004Z" stroke="#1F5FDB" stroke-width="1.2"/>
<mask id="path-2-inside-1_2001_9422" fill="white">
<path d="M6.40039 13.333L15.4514 4.28205L24.5023 13.333L15.4513 22.384L6.40039 13.333Z"/>
</mask>
<path d="M15.4513 22.384L14.6028 23.2325L15.4513 24.081L16.2999 23.2325L15.4513 22.384ZM24.5023 13.333L23.6538 12.4845L14.6028 21.5354L15.4513 22.384L16.2999 23.2325L25.3508 14.1815L24.5023 13.333ZM15.4513 22.384L16.2999 21.5354L7.24892 12.4845L6.40039 13.333L5.55186 14.1815L14.6028 23.2325L15.4513 22.384Z" fill="#1F5FDB" mask="url(#path-2-inside-1_2001_9422)"/>
</svg>
