<svg width="30" height="26" viewBox="0 0 30 26" fill="none" xmlns="http://www.w3.org/2000/svg">
  <path d="M26.25 13C26.25 13.2155 26.1512 13.4222 25.9754 13.5745C25.7996 13.7269 25.5611 13.8125 25.3125 13.8125H15.9375V21.9375C15.9375 22.153 15.8387 22.3597 15.6629 22.512C15.4871 22.6644 15.2486 22.75 15 22.75C14.7514 22.75 14.5129 22.6644 14.3371 22.512C14.1613 22.3597 14.0625 22.153 14.0625 21.9375V13.8125H4.6875C4.43886 13.8125 4.2004 13.7269 4.02459 13.5745C3.84877 13.4222 3.75 13.2155 3.75 13C3.75 12.7845 3.84877 12.5778 4.02459 12.4255C4.2004 12.2731 4.43886 12.1875 4.6875 12.1875H14.0625V4.0625C14.0625 3.84701 14.1613 3.64035 14.3371 3.48798C14.5129 3.3356 14.7514 3.25 15 3.25C15.2486 3.25 15.4871 3.3356 15.6629 3.48798C15.8387 3.64035 15.9375 3.84701 15.9375 4.0625V12.1875H25.3125C25.5611 12.1875 25.7996 12.2731 25.9754 12.4255C26.1512 12.5778 26.25 12.7845 26.25 13Z" fill="black" />
</svg>