<svg width="60" height="60" viewBox="0 0 60 60" fill="none" xmlns="http://www.w3.org/2000/svg">
<rect width="60" height="60" rx="16" fill="#2B313D"/>
<path d="M35.6139 24.3864C35.3179 22.6204 34.5413 20.9699 33.3692 19.6162C32.1971 18.2624 30.6748 17.2575 28.9693 16.7118C27.2638 16.1661 25.441 16.1006 23.7007 16.5226C21.9604 16.9445 20.37 17.8376 19.1038 19.1038C17.8376 20.37 16.9445 21.9604 16.5226 23.7007C16.1006 25.441 16.1661 27.2638 16.7118 28.9693C17.2575 30.6748 18.2624 32.1971 19.6162 33.3692C20.9699 34.5413 22.6204 35.3179 24.3864 35.6139C24.6824 37.38 25.4591 39.0304 26.6312 40.3842C27.8032 41.738 29.3255 42.7428 31.031 43.2885C32.7366 43.8342 34.5594 43.8997 36.2997 43.4778C38.0399 43.0559 39.6304 42.1628 40.8966 40.8966C42.1628 39.6304 43.0559 38.0399 43.4778 36.2997C43.8997 34.5594 43.8342 32.7366 43.2885 31.031C42.7428 29.3255 41.738 27.8032 40.3842 26.6312C39.0304 25.4591 37.38 24.6824 35.6139 24.3864ZM17.7502 26.0002C17.7513 23.9653 18.5044 22.0027 19.8648 20.4894C21.2252 18.9761 23.0969 18.019 25.1201 17.8019C27.1434 17.5848 29.1754 18.1231 30.8259 19.3134C32.4763 20.5037 33.6287 22.2619 34.0614 24.2502H34.0002C31.4152 24.2532 28.937 25.2813 27.1092 27.1092C25.2813 28.937 24.2532 31.4152 24.2502 34.0002C24.2502 34.0214 24.2502 34.0414 24.2502 34.0614C22.4102 33.6597 20.7628 32.6415 19.5806 31.1754C18.3985 29.7094 17.7527 27.8835 17.7502 26.0002ZM25.7502 34.0002C25.7488 32.814 26.0047 31.6416 26.5002 30.5639L29.4364 33.5002C28.3587 33.9957 27.1864 34.2516 26.0002 34.2502C25.9189 34.2502 25.8377 34.2502 25.7502 34.2439C25.7502 34.1627 25.7502 34.0814 25.7502 34.0002ZM30.7789 32.7189L27.2789 29.2189C27.8136 28.4692 28.4692 27.8136 29.2189 27.2789L32.7189 30.7789C32.1842 31.5286 31.5286 32.1842 30.7789 32.7189ZM34.2502 26.0002C34.2516 27.1864 33.9957 28.3587 33.5002 29.4364L30.5639 26.5002C31.6416 26.0047 32.814 25.7488 34.0002 25.7502C34.0814 25.7502 34.1627 25.7502 34.2439 25.7502C34.2502 25.8377 34.2502 25.9189 34.2502 26.0002ZM34.0002 42.2502C32.1169 42.2477 30.291 41.6018 28.8249 40.4197C27.3589 39.2376 26.3407 37.5901 25.9389 35.7502H26.0002C28.5851 35.7472 31.0633 34.719 32.8912 32.8912C34.719 31.0633 35.7472 28.5851 35.7502 26.0002C35.7502 25.9789 35.7502 25.9589 35.7502 25.9389C37.7385 26.3717 39.4967 27.524 40.687 29.1745C41.8772 30.8249 42.4155 32.857 42.1985 34.8803C41.9814 36.9035 41.0243 38.7752 39.511 40.1355C37.9977 41.4959 36.035 42.249 34.0002 42.2502Z" fill="white"/>
</svg>
