<svg width="60" height="60" viewBox="0 0 60 60" fill="none" xmlns="http://www.w3.org/2000/svg">
<rect width="60" height="60" rx="16" fill="black"/>
<path d="M41.84 22.4873L30.84 16.4661C30.5828 16.324 30.2938 16.2495 30 16.2495C29.7062 16.2495 29.4172 16.324 29.16 16.4661L18.16 22.4886C17.8848 22.6392 17.6551 22.861 17.495 23.1308C17.3349 23.4006 17.2503 23.7086 17.25 24.0223V35.9773C17.2503 36.2911 17.3349 36.599 17.495 36.8688C17.6551 37.1386 17.8848 37.3605 18.16 37.5111L29.16 43.5336C29.4173 43.6754 29.7062 43.7497 30 43.7497C30.2938 43.7497 30.5827 43.6754 30.84 43.5336L41.84 37.5111C42.1152 37.3605 42.3449 37.1386 42.505 36.8688C42.6651 36.599 42.7497 36.2911 42.75 35.9773V24.0223C42.75 23.7083 42.6655 23.4002 42.5054 23.1301C42.3452 22.86 42.1154 22.638 41.84 22.4873ZM29.875 17.7811C29.9118 17.7609 29.9531 17.7504 29.995 17.7504C30.0369 17.7504 30.0782 17.7609 30.115 17.7811L40.5637 23.4998L30 29.2798L19.4363 23.4998L29.875 17.7811ZM18.875 36.1961C18.8367 36.1739 18.8049 36.142 18.7829 36.1036C18.761 36.0651 18.7496 36.0216 18.75 35.9773V24.8323L29.25 30.5823V41.8748L18.875 36.1961ZM41.115 36.1961L30.75 41.8748V30.5798L41.25 24.8298V35.9748C41.2508 36.0195 41.2397 36.0636 41.2177 36.1025C41.1957 36.1414 41.1637 36.1737 41.125 36.1961H41.115Z" fill="white"/>
</svg>
