<svg width="60" height="60" viewBox="0 0 60 60" fill="none" xmlns="http://www.w3.org/2000/svg">
<rect width="60" height="60" rx="16" fill="#1F5FDB"/>
<path d="M35.6488 33.375C34.4088 35.52 32.35 36.75 30 36.75C27.65 36.75 25.5913 35.52 24.3513 33.375C24.2616 33.2036 24.2416 33.0042 24.2955 32.8184C24.3494 32.6326 24.473 32.4748 24.6405 32.378C24.808 32.2812 25.0064 32.2529 25.1943 32.2989C25.3821 32.3449 25.545 32.4618 25.6488 32.625C26.6288 34.3175 28.1738 35.25 30 35.25C31.8263 35.25 33.375 34.3175 34.3513 32.625C34.3981 32.5354 34.4627 32.4562 34.541 32.3921C34.6193 32.3281 34.7097 32.2805 34.8069 32.2523C34.904 32.2242 35.0058 32.2159 35.1063 32.2281C35.2067 32.2403 35.3036 32.2727 35.3912 32.3233C35.4787 32.3739 35.5552 32.4418 35.6158 32.5227C35.6765 32.6036 35.7202 32.696 35.7443 32.7942C35.7683 32.8925 35.7723 32.9946 35.7559 33.0944C35.7395 33.1942 35.703 33.2896 35.6488 33.375ZM42.75 30C42.75 32.5217 42.0022 34.9868 40.6012 37.0835C39.2003 39.1802 37.209 40.8144 34.8792 41.7795C32.5495 42.7445 29.9859 42.997 27.5126 42.505C25.0393 42.0131 22.7675 40.7987 20.9844 39.0156C19.2013 37.2325 17.987 34.9607 17.495 32.4874C17.003 30.0141 17.2555 27.4505 18.2205 25.1208C19.1856 22.791 20.8198 20.7998 22.9165 19.3988C25.0132 17.9978 27.4783 17.25 30 17.25C33.3803 17.254 36.621 18.5985 39.0112 20.9888C41.4015 23.379 42.746 26.6197 42.75 30ZM41.25 30C41.25 27.775 40.5902 25.5999 39.354 23.7498C38.1179 21.8998 36.3609 20.4578 34.3052 19.6064C32.2495 18.7549 29.9875 18.5321 27.8052 18.9662C25.623 19.4002 23.6184 20.4717 22.0451 22.045C20.4717 23.6184 19.4003 25.6229 18.9662 27.8052C18.5321 29.9875 18.7549 32.2495 19.6064 34.3052C20.4578 36.3609 21.8998 38.1179 23.7498 39.354C25.5999 40.5902 27.775 41.25 30 41.25C32.9827 41.2467 35.8422 40.0604 37.9513 37.9513C40.0604 35.8422 41.2467 32.9827 41.25 30ZM25.5 28.75C25.7472 28.75 25.9889 28.6767 26.1945 28.5393C26.4 28.402 26.5602 28.2068 26.6549 27.9784C26.7495 27.7499 26.7742 27.4986 26.726 27.2561C26.6778 27.0137 26.5587 26.7909 26.3839 26.6161C26.2091 26.4413 25.9863 26.3222 25.7439 26.274C25.5014 26.2258 25.2501 26.2505 25.0217 26.3452C24.7932 26.4398 24.598 26.6 24.4607 26.8055C24.3233 27.0111 24.25 27.2528 24.25 27.5C24.25 27.8315 24.3817 28.1495 24.6161 28.3839C24.8505 28.6183 25.1685 28.75 25.5 28.75ZM34.5 26.25C34.2528 26.25 34.0111 26.3233 33.8055 26.4607C33.6 26.598 33.4398 26.7932 33.3452 27.0216C33.2505 27.2501 33.2258 27.5014 33.274 27.7439C33.3223 27.9863 33.4413 28.2091 33.6161 28.3839C33.7909 28.5587 34.0137 28.6778 34.2561 28.726C34.4986 28.7742 34.75 28.7495 34.9784 28.6548C35.2068 28.5602 35.402 28.4 35.5393 28.1945C35.6767 27.9889 35.75 27.7472 35.75 27.5C35.75 27.1685 35.6183 26.8505 35.3839 26.6161C35.1495 26.3817 34.8315 26.25 34.5 26.25Z" fill="white"/>
</svg>
