<svg width="60" height="60" viewBox="0 0 60 60" fill="none" xmlns="http://www.w3.org/2000/svg">
<rect width="60" height="60" rx="16" fill="#1F5FDB"/>
<path d="M42.75 20V25C42.75 25.1989 42.671 25.3897 42.5303 25.5303C42.3897 25.671 42.1989 25.75 42 25.75C41.8011 25.75 41.6103 25.671 41.4697 25.5303C41.329 25.3897 41.25 25.1989 41.25 25V20.75H37C36.8011 20.75 36.6103 20.671 36.4697 20.5303C36.329 20.3897 36.25 20.1989 36.25 20C36.25 19.8011 36.329 19.6103 36.4697 19.4697C36.6103 19.329 36.8011 19.25 37 19.25H42C42.1989 19.25 42.3897 19.329 42.5303 19.4697C42.671 19.6103 42.75 19.8011 42.75 20ZM23 39.25H18.75V35C18.75 34.8011 18.671 34.6103 18.5303 34.4697C18.3897 34.329 18.1989 34.25 18 34.25C17.8011 34.25 17.6103 34.329 17.4697 34.4697C17.329 34.6103 17.25 34.8011 17.25 35V40C17.25 40.1989 17.329 40.3897 17.4697 40.5303C17.6103 40.671 17.8011 40.75 18 40.75H23C23.1989 40.75 23.3897 40.671 23.5303 40.5303C23.671 40.3897 23.75 40.1989 23.75 40C23.75 39.8011 23.671 39.6103 23.5303 39.4697C23.3897 39.329 23.1989 39.25 23 39.25ZM42 34.25C41.8011 34.25 41.6103 34.329 41.4697 34.4697C41.329 34.6103 41.25 34.8011 41.25 35V39.25H37C36.8011 39.25 36.6103 39.329 36.4697 39.4697C36.329 39.6103 36.25 39.8011 36.25 40C36.25 40.1989 36.329 40.3897 36.4697 40.5303C36.6103 40.671 36.8011 40.75 37 40.75H42C42.1989 40.75 42.3897 40.671 42.5303 40.5303C42.671 40.3897 42.75 40.1989 42.75 40V35C42.75 34.8011 42.671 34.6103 42.5303 34.4697C42.3897 34.329 42.1989 34.25 42 34.25ZM18 25.75C18.1989 25.75 18.3897 25.671 18.5303 25.5303C18.671 25.3897 18.75 25.1989 18.75 25V20.75H23C23.1989 20.75 23.3897 20.671 23.5303 20.5303C23.671 20.3897 23.75 20.1989 23.75 20C23.75 19.8011 23.671 19.6103 23.5303 19.4697C23.3897 19.329 23.1989 19.25 23 19.25H18C17.8011 19.25 17.6103 19.329 17.4697 19.4697C17.329 19.6103 17.25 19.8011 17.25 20V25C17.25 25.1989 17.329 25.3897 17.4697 25.5303C17.6103 25.671 17.8011 25.75 18 25.75ZM24 24.25C23.8011 24.25 23.6103 24.329 23.4697 24.4697C23.329 24.6103 23.25 24.8011 23.25 25V35C23.25 35.1989 23.329 35.3897 23.4697 35.5303C23.6103 35.671 23.8011 35.75 24 35.75C24.1989 35.75 24.3897 35.671 24.5303 35.5303C24.671 35.3897 24.75 35.1989 24.75 35V25C24.75 24.8011 24.671 24.6103 24.5303 24.4697C24.3897 24.329 24.1989 24.25 24 24.25ZM36.75 35V25C36.75 24.8011 36.671 24.6103 36.5303 24.4697C36.3897 24.329 36.1989 24.25 36 24.25C35.8011 24.25 35.6103 24.329 35.4697 24.4697C35.329 24.6103 35.25 24.8011 35.25 25V35C35.25 35.1989 35.329 35.3897 35.4697 35.5303C35.6103 35.671 35.8011 35.75 36 35.75C36.1989 35.75 36.3897 35.671 36.5303 35.5303C36.671 35.3897 36.75 35.1989 36.75 35ZM32 24.25C31.8011 24.25 31.6103 24.329 31.4697 24.4697C31.329 24.6103 31.25 24.8011 31.25 25V35C31.25 35.1989 31.329 35.3897 31.4697 35.5303C31.6103 35.671 31.8011 35.75 32 35.75C32.1989 35.75 32.3897 35.671 32.5303 35.5303C32.671 35.3897 32.75 35.1989 32.75 35V25C32.75 24.8011 32.671 24.6103 32.5303 24.4697C32.3897 24.329 32.1989 24.25 32 24.25ZM28 24.25C27.8011 24.25 27.6103 24.329 27.4697 24.4697C27.329 24.6103 27.25 24.8011 27.25 25V35C27.25 35.1989 27.329 35.3897 27.4697 35.5303C27.6103 35.671 27.8011 35.75 28 35.75C28.1989 35.75 28.3897 35.671 28.5303 35.5303C28.671 35.3897 28.75 35.1989 28.75 35V25C28.75 24.8011 28.671 24.6103 28.5303 24.4697C28.3897 24.329 28.1989 24.25 28 24.25Z" fill="white"/>
</svg>
