<svg width="60" height="60" viewBox="0 0 60 60" fill="none" xmlns="http://www.w3.org/2000/svg">
<rect width="60" height="60" rx="16" fill="#2B313D"/>
<path d="M30 34.75C30.9395 34.75 31.8578 34.4714 32.639 33.9495C33.4201 33.4275 34.0289 32.6857 34.3884 31.8177C34.7479 30.9498 34.842 29.9947 34.6587 29.0733C34.4755 28.1519 34.0231 27.3055 33.3588 26.6412C32.6945 25.9769 31.8481 25.5245 30.9267 25.3413C30.0053 25.158 29.0502 25.2521 28.1823 25.6116C27.3143 25.9711 26.5725 26.5799 26.0505 27.361C25.5286 28.1422 25.25 29.0605 25.25 30C25.25 31.2598 25.7504 32.468 26.6412 33.3588C27.532 34.2496 28.7402 34.75 30 34.75ZM30 26.75C30.6428 26.75 31.2711 26.9406 31.8056 27.2977C32.3401 27.6548 32.7566 28.1624 33.0026 28.7563C33.2486 29.3501 33.313 30.0036 33.1876 30.634C33.0621 31.2645 32.7526 31.8436 32.2981 32.2981C31.8436 32.7526 31.2645 33.0621 30.634 33.1876C30.0036 33.313 29.3501 33.2486 28.7563 33.0026C28.1624 32.7566 27.6548 32.3401 27.2977 31.8056C26.9406 31.2711 26.75 30.6428 26.75 30C26.75 29.138 27.0924 28.3114 27.7019 27.7019C28.3114 27.0924 29.138 26.75 30 26.75ZM44 21.25H16C15.8011 21.25 15.6103 21.329 15.4697 21.4697C15.329 21.6103 15.25 21.8011 15.25 22V38C15.25 38.1989 15.329 38.3897 15.4697 38.5303C15.6103 38.671 15.8011 38.75 16 38.75H44C44.1989 38.75 44.3897 38.671 44.5303 38.5303C44.671 38.3897 44.75 38.1989 44.75 38V22C44.75 21.8011 44.671 21.6103 44.5303 21.4697C44.3897 21.329 44.1989 21.25 44 21.25ZM16.75 27.6025C17.9145 27.2927 18.9766 26.6808 19.8287 25.8287C20.6808 24.9766 21.2927 23.9145 21.6025 22.75H38.3975C38.7073 23.9145 39.3192 24.9766 40.1713 25.8287C41.0234 26.6808 42.0855 27.2927 43.25 27.6025V32.3975C42.0855 32.7073 41.0234 33.3192 40.1713 34.1713C39.3192 35.0234 38.7073 36.0855 38.3975 37.25H21.6025C21.2927 36.0855 20.6808 35.0234 19.8287 34.1713C18.9766 33.3192 17.9145 32.7073 16.75 32.3975V27.6025ZM43.25 26.0363C42.4904 25.7709 41.8004 25.3376 41.2314 24.7686C40.6624 24.1996 40.2291 23.5096 39.9638 22.75H43.25V26.0363ZM20.0363 22.75C19.7709 23.5096 19.3376 24.1996 18.7686 24.7686C18.1996 25.3376 17.5096 25.7709 16.75 26.0363V22.75H20.0363ZM16.75 33.9638C17.5096 34.2291 18.1996 34.6624 18.7686 35.2314C19.3376 35.8004 19.7709 36.4904 20.0363 37.25H16.75V33.9638ZM39.9638 37.25C40.2291 36.4904 40.6624 35.8004 41.2314 35.2314C41.8004 34.6624 42.4904 34.2291 43.25 33.9638V37.25H39.9638Z" fill="white"/>
</svg>
