<svg width="60" height="60" viewBox="0 0 60 60" fill="none" xmlns="http://www.w3.org/2000/svg">
<rect width="60" height="60" rx="16" fill="#1F5FDB"/>
<path d="M43 35.25H41.75V23C41.75 22.2707 41.4603 21.5712 40.9445 21.0555C40.4288 20.5397 39.7293 20.25 39 20.25H21C20.2707 20.25 19.5712 20.5397 19.0555 21.0555C18.5397 21.5712 18.25 22.2707 18.25 23V35.25H17C16.8011 35.25 16.6103 35.329 16.4697 35.4697C16.329 35.6103 16.25 35.8011 16.25 36V38C16.25 38.7293 16.5397 39.4288 17.0555 39.9445C17.5712 40.4603 18.2707 40.75 19 40.75H41C41.7293 40.75 42.4288 40.4603 42.9445 39.9445C43.4603 39.4288 43.75 38.7293 43.75 38V36C43.75 35.8011 43.671 35.6103 43.5303 35.4697C43.3897 35.329 43.1989 35.25 43 35.25ZM19.75 23C19.75 22.6685 19.8817 22.3505 20.1161 22.1161C20.3505 21.8817 20.6685 21.75 21 21.75H39C39.3315 21.75 39.6495 21.8817 39.8839 22.1161C40.1183 22.3505 40.25 22.6685 40.25 23V35.25H19.75V23ZM42.25 38C42.25 38.3315 42.1183 38.6495 41.8839 38.8839C41.6495 39.1183 41.3315 39.25 41 39.25H19C18.6685 39.25 18.3505 39.1183 18.1161 38.8839C17.8817 38.6495 17.75 38.3315 17.75 38V36.75H42.25V38ZM32.75 25C32.75 25.1989 32.671 25.3897 32.5303 25.5303C32.3897 25.671 32.1989 25.75 32 25.75H28C27.8011 25.75 27.6103 25.671 27.4697 25.5303C27.329 25.3897 27.25 25.1989 27.25 25C27.25 24.8011 27.329 24.6103 27.4697 24.4697C27.6103 24.329 27.8011 24.25 28 24.25H32C32.1989 24.25 32.3897 24.329 32.5303 24.4697C32.671 24.6103 32.75 24.8011 32.75 25Z" fill="white"/>
</svg>
