<svg width="32" height="40" viewBox="0 0 32 40" fill="none" xmlns="http://www.w3.org/2000/svg">
<path d="M16 7C13.4288 7 10.9154 7.76244 8.77759 9.1909C6.63975 10.6194 4.97351 12.6497 3.98957 15.0251C3.00563 17.4006 2.74819 20.0144 3.2498 22.5362C3.75141 25.0579 4.98953 27.3743 6.80762 29.1924C8.6257 31.0105 10.9421 32.2486 13.4638 32.7502C15.9856 33.2518 18.5995 32.9944 20.9749 32.0104C23.3503 31.0265 25.3807 29.3603 26.8091 27.2224C28.2376 25.0846 29 22.5712 29 20C28.9964 16.5533 27.6256 13.2488 25.1884 10.8116C22.7512 8.37445 19.4467 7.00364 16 7ZM16 28C15.7033 28 15.4133 27.912 15.1667 27.7472C14.92 27.5824 14.7277 27.3481 14.6142 27.074C14.5007 26.7999 14.471 26.4983 14.5288 26.2074C14.5867 25.9164 14.7296 25.6491 14.9393 25.4393C15.1491 25.2296 15.4164 25.0867 15.7074 25.0288C15.9983 24.9709 16.2999 25.0007 16.574 25.1142C16.8481 25.2277 17.0824 25.42 17.2472 25.6666C17.412 25.9133 17.5 26.2033 17.5 26.5C17.5 26.8978 17.342 27.2794 17.0607 27.5607C16.7794 27.842 16.3978 28 16 28ZM17 21.91V22C17 22.2652 16.8946 22.5196 16.7071 22.7071C16.5196 22.8946 16.2652 23 16 23C15.7348 23 15.4804 22.8946 15.2929 22.7071C15.1054 22.5196 15 22.2652 15 22V21C15 20.7348 15.1054 20.4804 15.2929 20.2929C15.4804 20.1054 15.7348 20 16 20C17.6538 20 19 18.875 19 17.5C19 16.125 17.6538 15 16 15C14.3463 15 13 16.125 13 17.5V18C13 18.2652 12.8946 18.5196 12.7071 18.7071C12.5196 18.8946 12.2652 19 12 19C11.7348 19 11.4804 18.8946 11.2929 18.7071C11.1054 18.5196 11 18.2652 11 18V17.5C11 15.0188 13.2425 13 16 13C18.7575 13 21 15.0188 21 17.5C21 19.6725 19.28 21.4913 17 21.91Z" fill="#1F5FDB"/>
</svg>
