<svg width="16" height="11" viewBox="0 0 16 11" fill="none" xmlns="http://www.w3.org/2000/svg">
  <g clip-path="url(#clip0_217_3139)">
    <path fill-rule="evenodd" clip-rule="evenodd" d="M5.49239 8.36406C5.26867 8.22103 2.84377 5.89176 2.4324 5.50355C2.01382 5.10853 1.80453 4.74075 1.1117 4.74075C0.765283 4.74075 0.53434 4.8974 0.353916 5.07448C-0.598722 6.00074 0.620944 6.81121 1.12613 7.29477L4.54697 10.5231C5.62951 11.5515 6.22852 10.7138 7.05125 9.93734C7.93172 9.11324 15.6755 1.87344 15.8415 1.60782C16.3106 0.85864 15.6755 0.000488281 14.7806 0.000488281C14.2033 0.000488281 13.7847 0.565778 13.4599 0.872261C12.666 1.62144 5.76664 8.19379 5.49239 8.36406Z" fill="white" />
  </g>
  <defs>
    <clipPath id="clip0_217_3139">
      <rect width="16" height="11" fill="white" />
    </clipPath>
  </defs>
</svg>