<svg width="24" height="24" viewBox="0 0 24 24" fill="none" xmlns="http://www.w3.org/2000/svg">
  <path d="M19.5 3.75H4.5C4.10218 3.75 3.72064 3.90804 3.43934 4.18934C3.15804 4.47064 3 4.85218 3 5.25V10.7597C3 19.1616 10.1081 21.9478 11.5312 22.4203C11.8351 22.5243 12.1649 22.5243 12.4688 22.4203C13.8938 21.9469 21 19.1606 21 10.7587V5.25C21 4.85218 20.842 4.47064 20.5607 4.18934C20.2794 3.90804 19.8978 3.75 19.5 3.75ZM4.56187 12H12V5.25H19.5V10.7597C19.5003 11.1733 19.4797 11.5866 19.4381 11.9981H12V20.9981C10.8056 20.5997 5.21156 18.3994 4.56187 12Z" fill="#1F5FDB" />
</svg>