<svg width="60" height="60" viewBox="0 0 60 60" fill="none" xmlns="http://www.w3.org/2000/svg">
<rect width="60" height="60" rx="30" fill="#F5F5F5"/>
<g clip-path="url(#clip0_2063_12619)">
<path fill-rule="evenodd" clip-rule="evenodd" d="M34.3231 41.8261H33.7551V40.4348H35.1436V40.9829C35.1436 41.531 34.8491 41.8261 34.3231 41.8261ZM43.7058 39.5916H33.7551V31.4968H45.1784V38.1371C45.1784 39.0646 44.6525 39.5916 43.7058 39.5916ZM33.7551 28.1661H45.1784V30.6746H33.7551V28.1661ZM33.7551 24.8143H43.8531C44.0845 24.8143 44.2738 24.8775 44.4211 24.9408C44.6315 25.0251 44.4421 24.9197 44.6315 25.0673L44.8208 25.2359C45.2836 25.7207 45.1784 26.564 45.1784 27.3229H33.7551V24.8143ZM33.7551 22.5798H34.3231C34.8491 22.5798 35.1436 22.8749 35.1436 23.423V23.9711H33.7551V22.5798ZM19.2814 15.3281C19.2814 14.6746 20.8171 15.9816 21.5324 15.834C22.0162 15.7497 23.6151 14.8644 23.8886 14.8644C24.12 14.8644 25.7399 15.7286 26.1816 15.834C26.96 16.0238 28.4747 14.6535 28.4747 15.3281V22.8538H19.2814V15.3281ZM16.7779 23.2122C16.7779 23.423 16.8621 23.697 17.1356 23.697H30.6205C31.1044 23.697 31.1044 22.8538 30.6205 22.8538H29.3162V19.228C30.7888 19.228 32.9347 18.9329 32.9347 21.2517V43.1542C32.9347 44.398 32.1352 45.1779 30.9151 45.1779H16.8621C15.6209 45.1779 14.8425 44.398 14.8425 43.1542V21.2517C14.8425 18.9329 16.9462 19.228 18.4609 19.228V22.8538C17.7456 22.8538 16.7779 22.7063 16.7779 23.2122ZM19.4917 14.2109C19.1551 14.2109 19.0079 14.2741 18.7554 14.506C18.5451 14.6957 18.4609 14.8433 18.4609 15.2016V18.4059H16.4413C15.2422 18.4059 14.001 19.6285 14.001 20.8301V43.5758C14.001 44.7774 15.2422 46.0001 16.4413 46.0001H31.3358C32.556 46.0001 33.7551 44.7352 33.7551 43.5758V42.6694H34.5966C35.2908 42.6694 35.9851 41.9737 35.9851 41.257V40.4348H44.1266C45.0312 40.4348 45.9989 39.4441 45.9989 38.5587V25.8683C45.9989 24.9619 45.0312 23.9711 44.1266 23.9711H35.9851V23.1489C35.9851 22.4322 35.2908 21.7366 34.5966 21.7366H33.7551V20.8301C33.7551 19.6285 32.5349 18.4059 31.3358 18.4059H29.3162V15.2016C29.3162 14.8644 29.2321 14.7168 29.0427 14.5481C28.0329 13.5152 26.96 15.2649 26.0975 14.8644C23.8886 13.8947 24.2041 13.5574 21.7217 14.8433C21.2378 15.0962 21.1327 14.8644 20.6488 14.6535C20.3964 14.5481 19.7442 14.2109 19.4917 14.2109Z" fill="#1F5FDB"/>
<path fill-rule="evenodd" clip-rule="evenodd" d="M17.072 30.4638V27.2596C17.072 27.0909 17.114 27.0488 17.2613 27.0488H30.4938C30.6411 27.0488 30.7042 27.0909 30.7042 27.2596V30.4638C30.7042 30.6114 30.6411 30.6746 30.4938 30.6746H17.2613C17.114 30.6746 17.072 30.6114 17.072 30.4638ZM16.2305 27.0488V30.6746C16.2305 30.9065 16.3988 31.1384 16.525 31.2649C16.6933 31.4124 16.9037 31.4967 17.1982 31.4967H30.5569C31.146 31.4967 31.5247 31.1173 31.5247 30.527V27.1753C31.5247 26.6272 31.1039 26.2056 30.7042 26.2056H17.072C16.6723 26.2056 16.2305 26.6483 16.2305 27.0488Z" fill="#1F5FDB"/>
<path fill-rule="evenodd" clip-rule="evenodd" d="M17.072 41.6153V39.5284C17.072 39.3597 17.114 39.3176 17.2613 39.3176H19.365C19.5123 39.3176 19.5754 39.3597 19.5754 39.5284V41.6153C19.5754 41.784 19.5123 41.8261 19.365 41.8261H17.2613C17.114 41.8261 17.072 41.784 17.072 41.6153ZM16.2305 39.3176V41.8261C16.2305 42.058 16.3988 42.311 16.525 42.4164C16.9878 42.8169 18.5235 42.6694 19.4282 42.6694C20.0172 42.6694 20.3959 42.2688 20.3959 41.6786C20.3959 40.7721 20.5642 39.2333 20.1645 38.7906C20.0382 38.643 19.8068 38.4744 19.5754 38.4744H17.072C16.6723 38.4744 16.2305 38.9171 16.2305 39.3176Z" fill="#1F5FDB"/>
<path fill-rule="evenodd" clip-rule="evenodd" d="M28.2009 41.6153V39.5284C28.2009 39.3597 28.2429 39.3176 28.4112 39.3176H30.4939C30.6412 39.3176 30.7043 39.3597 30.7043 39.5284V41.6153C30.7043 41.784 30.6412 41.8261 30.4939 41.8261H28.4112C28.2429 41.8261 28.2009 41.784 28.2009 41.6153ZM27.3594 39.3176V41.8261C27.3594 42.2267 27.7801 42.6694 28.3271 42.6694H30.5571C31.1461 42.6694 31.5248 42.2688 31.5248 41.6786C31.5248 40.7721 31.6931 39.2333 31.2934 38.7906C31.1671 38.643 30.9357 38.4744 30.7043 38.4744H28.2009C27.8012 38.4744 27.3594 38.9171 27.3594 39.3176Z" fill="#1F5FDB"/>
<path fill-rule="evenodd" clip-rule="evenodd" d="M22.6267 41.6153V39.5284C22.6267 39.3597 22.6687 39.3176 22.837 39.3176H24.9197C25.088 39.3176 25.1301 39.3597 25.1301 39.5284V41.6153C25.1301 41.784 25.088 41.8261 24.9197 41.8261H22.837C22.6687 41.8261 22.6267 41.784 22.6267 41.6153ZM21.7852 39.3176V41.8261C21.7852 42.2267 22.2059 42.6694 22.7739 42.6694H25.0039C25.5719 42.6694 25.9716 42.2688 25.9716 41.6786C25.9716 40.7721 26.1189 39.2333 25.7402 38.7906C25.614 38.643 25.3615 38.4744 25.1301 38.4744H22.6267C22.248 38.4744 21.7852 38.9171 21.7852 39.3176Z" fill="#1F5FDB"/>
<path fill-rule="evenodd" clip-rule="evenodd" d="M28.2009 36.0291V33.9421C28.2009 33.7946 28.2429 33.7313 28.4112 33.7313H30.4939C30.6412 33.7313 30.7043 33.7946 30.7043 33.9421V36.0291C30.7043 36.1977 30.6412 36.2399 30.4939 36.2399H28.4112C28.2429 36.2399 28.2009 36.1977 28.2009 36.0291ZM27.3594 33.7313V36.2399C27.3594 36.6615 27.7801 37.0831 28.3271 37.0831H30.5571C31.1461 37.0831 31.5248 36.6826 31.5248 36.1134C31.5248 35.2069 31.6931 33.647 31.2934 33.2043C31.1671 33.0778 30.9357 32.9092 30.7043 32.9092H28.2009C27.8012 32.9092 27.3594 33.3519 27.3594 33.7313Z" fill="#1F5FDB"/>
<path fill-rule="evenodd" clip-rule="evenodd" d="M17.072 36.0291V33.9421C17.072 33.7946 17.114 33.7313 17.2613 33.7313H19.365C19.5123 33.7313 19.5754 33.7946 19.5754 33.9421V36.0291C19.5754 36.1977 19.5123 36.2399 19.365 36.2399H17.2613C17.114 36.2399 17.072 36.1977 17.072 36.0291ZM16.2305 33.7313V36.2399C16.2305 36.6615 16.6512 37.0831 17.1982 37.0831H19.4282C20.0172 37.0831 20.3959 36.6826 20.3959 36.1134C20.3959 35.2069 20.5642 33.647 20.1645 33.2043C20.0382 33.0778 19.8068 32.9092 19.5754 32.9092H17.072C16.6723 32.9092 16.2305 33.3519 16.2305 33.7313Z" fill="#1F5FDB"/>
<path fill-rule="evenodd" clip-rule="evenodd" d="M22.6267 36.0291V33.9421C22.6267 33.7946 22.6687 33.7313 22.837 33.7313H24.9197C25.088 33.7313 25.1301 33.7946 25.1301 33.9421V36.0291C25.1301 36.1977 25.088 36.2399 24.9197 36.2399H22.837C22.6687 36.2399 22.6267 36.1977 22.6267 36.0291ZM21.7852 33.7313V36.2399C21.7852 36.6615 22.2059 37.0831 22.7739 37.0831H25.0039C25.5719 37.0831 25.9716 36.6826 25.9716 36.1134C25.9716 35.2069 26.1189 33.647 25.7402 33.2043C25.614 33.0778 25.3615 32.9092 25.1301 32.9092H22.6267C22.248 32.9092 21.7852 33.3519 21.7852 33.7313Z" fill="#1F5FDB"/>
<path fill-rule="evenodd" clip-rule="evenodd" d="M37.374 36.5982C37.374 36.809 37.4582 37.0831 37.7317 37.0831H42.3178C42.7806 37.0831 42.7806 36.2399 42.3178 36.2399H37.7317C37.5634 36.2399 37.374 36.4296 37.374 36.5982Z" fill="#1F5FDB"/>
<path fill-rule="evenodd" clip-rule="evenodd" d="M21.2383 18.195C21.2383 18.4058 21.3014 18.6799 21.5959 18.6799H26.1821C26.6449 18.6799 26.6449 17.8367 26.1821 17.8367H21.5959C21.4276 17.8367 21.2383 18.0264 21.2383 18.195Z" fill="#1F5FDB"/>
<path fill-rule="evenodd" clip-rule="evenodd" d="M21.2383 20.4295C21.2383 20.6403 21.3014 20.9144 21.5959 20.9144H26.1821C26.6449 20.9144 26.6449 20.0712 26.1821 20.0712H21.5959C21.4276 20.0712 21.2383 20.2609 21.2383 20.4295Z" fill="#1F5FDB"/>
</g>
<defs>
<clipPath id="clip0_2063_12619">
<rect width="32" height="32" fill="white" transform="translate(14 14)"/>
</clipPath>
</defs>
</svg>
