<svg width="32" height="25" viewBox="0 0 32 25" fill="none" xmlns="http://www.w3.org/2000/svg">
  <g clip-path="url(#clip0_338_3735)">
    <path fill-rule="evenodd" clip-rule="evenodd" d="M25.5575 23.7659H3.20944C2.0413 23.7659 1.16814 22.7796 1.16814 21.8051C1.16814 21.2532 1.46313 20.5488 1.59292 20.1261L3.15044 15.136C3.45723 14.0558 3.88201 12.9403 4.20059 11.8132C4.46018 10.9091 4.84956 9.45315 6.20649 9.45315H28.9911C30.0059 9.45315 30.8201 10.4981 30.8201 11.3435C30.8201 11.9188 28.0118 20.6192 27.7286 21.4881C27.5044 22.1456 27.4572 22.5331 27.1032 23.0379C26.8437 23.4019 26.1947 23.7659 25.5575 23.7659ZM1.16814 17.2964V3.85252C1.16814 2.87798 1.27434 1.99738 2.15929 1.50424C2.35988 1.38683 2.79646 1.23419 3.06785 1.23419H10.4425C12.5192 1.23419 12.4956 3.876 15.5634 4.20476C16.6136 4.32217 23.115 4.16953 24.9793 4.2165C26.0649 4.23998 26.8791 5.12058 26.8791 6.4004V8.20857H6.27729C5.35693 8.20857 4.35398 8.8426 3.9528 9.38271C3.17404 10.4277 2.17109 14.3611 1.64012 15.9461C1.52212 16.2632 1.33333 17.0733 1.16814 17.2964ZM0 2.98365V22.0282C0 23.5898 1.49852 24.9987 3.57522 24.9987H25.1917C26.6903 24.9987 27.7758 24.4352 28.413 23.1906C28.6844 22.6387 29.3687 20.267 29.6637 19.4216C29.8643 18.811 30.0413 18.1653 30.2419 17.5195L31.4454 13.7153C32 12.095 32.5074 10.5568 31.0206 9.10091C30.1003 8.19683 29.2389 8.20857 28.0472 8.20857C28.0472 6.52955 28.295 5.0384 27.115 3.91122C26.6431 3.45331 25.8997 3.01888 25.0501 2.98365C22.7847 2.87798 18.5841 2.97191 16 2.98365C14.7729 2.98365 14.4779 2.74883 13.8643 2.12653C13.4513 1.72733 12.7552 0.952395 12.3422 0.65886C11.7168 0.200946 11.0206 0.00134277 9.9351 0.00134277H3.57522C2.34808 0.00134277 1.80531 0.259653 1.10914 0.811498C0.60177 1.21071 0 2.10305 0 2.98365Z" fill="#1F5FDB" />
  </g>
  <defs>
    <clipPath id="clip0_338_3735">
      <rect width="32" height="25" fill="white" />
    </clipPath>
  </defs>
</svg>