<svg width="60" height="60" viewBox="0 0 60 60" fill="none" xmlns="http://www.w3.org/2000/svg">
<rect width="60" height="60" rx="30" fill="white"/>
<g clip-path="url(#clip0_2063_12618)">
<path fill-rule="evenodd" clip-rule="evenodd" d="M27.4919 34.3643C27.2682 34.2213 24.8433 31.892 24.4319 31.5038C24.0133 31.1088 23.804 30.741 23.1112 30.741C22.7648 30.741 22.5339 30.8976 22.3534 31.0747C21.4008 32.001 22.6205 32.8115 23.1256 33.295L26.5465 36.5233C27.629 37.5517 28.228 36.714 29.0508 35.9376C29.9312 35.1135 37.675 27.8737 37.841 27.6081C38.3101 26.8589 37.675 26.0007 36.7801 26.0007C36.2028 26.0007 35.7842 26.566 35.4594 26.8725C34.6656 27.6217 27.7661 34.194 27.4919 34.3643Z" fill="#1F5FDB"/>
</g>
<defs>
<clipPath id="clip0_2063_12618">
<rect width="16" height="11" fill="white" transform="translate(22 26)"/>
</clipPath>
</defs>
</svg>
