<svg width="60" height="60" viewBox="0 0 60 60" fill="none" xmlns="http://www.w3.org/2000/svg">
<rect width="60" height="60" rx="30" fill="#F5F5F5"/>
<g clip-path="url(#clip0_2062_12617)">
<path fill-rule="evenodd" clip-rule="evenodd" d="M24.3256 41.4442H35.6739V41.9586H24.3256V41.4442ZM27.356 38.8471H32.6435C32.7558 39.349 32.8431 39.901 32.9678 40.4029H27.0318C27.144 39.901 27.2313 39.349 27.356 38.8471ZM15.0351 36.9024V35.7356H44.9645C44.9645 36.7142 45.164 37.8058 44.0666 37.8058H15.9329C15.3718 37.8058 15.0351 37.467 15.0351 36.9024ZM15.0351 17.9447C15.0351 17.3801 15.3718 17.0414 15.9329 17.0414H44.0666C44.6278 17.0414 44.9645 17.3801 44.9645 17.9447V34.6942H15.0351V17.9447ZM14 17.6185V37.2286C14 37.9563 14.7732 38.8471 15.8082 38.8471H26.2586C26.1339 39.349 26.0466 39.901 25.9343 40.4029C25.4231 40.4029 24.8993 40.4029 24.388 40.4029C23.0911 40.4029 23.2906 40.3778 23.2906 42.4856C23.2906 42.7993 23.4901 43 23.8019 43H36.1976C36.9085 43 36.7089 42.0339 36.7089 40.9173C36.7089 40.3527 36.2351 40.4029 35.6739 40.4029C35.1376 40.4029 34.6014 40.4029 34.0652 40.4029C33.9405 39.901 33.8532 39.349 33.7409 38.8471H44.1289C45.2388 38.8597 45.9995 37.9689 45.9995 37.2286V17.6185C45.9995 16.8657 45.139 16 44.3783 16H15.6087C14.8605 16 14 16.8657 14 17.6185Z" fill="#1F5FDB"/>
<path fill-rule="evenodd" clip-rule="evenodd" d="M28.9648 36.7644C28.9648 37.4419 29.738 37.2914 30.5112 37.2914C31.2095 37.2914 31.2095 36.25 30.5112 36.25C29.738 36.25 28.9648 36.0869 28.9648 36.7644Z" fill="#1F5FDB"/>
</g>
<defs>
<clipPath id="clip0_2062_12617">
<rect width="32" height="27" fill="white" transform="translate(14 16)"/>
</clipPath>
</defs>
</svg>
