<svg width="22" height="24" viewBox="0 0 22 24" fill="none" xmlns="http://www.w3.org/2000/svg">
  <g clip-path="url(#clip0_341_3746)">
    <path fill-rule="evenodd" clip-rule="evenodd" d="M7.02131 15.516V2.48171C7.02131 1.69778 7.72232 1.03086 8.32986 1.03086H19.6628C20.2704 1.03086 20.9714 1.69778 20.9714 2.48171V15.516C20.9714 16.3116 20.2587 16.9668 19.6628 16.9668H8.32986C7.74569 16.9668 7.02131 16.3233 7.02131 15.516ZM5.99316 2.52851V15.4692C5.99316 16.2063 6.30862 16.8381 6.68249 17.2125C7.06804 17.6103 7.61717 17.9965 8.37659 17.9965H19.6161C20.8662 17.9965 21.9995 16.8498 21.9995 15.4692V2.52851C21.9995 1.79138 21.6841 1.15956 21.3102 0.785149C20.913 0.387334 20.3638 0.0012207 19.6161 0.0012207H8.37659C7.12646 0.0012207 5.99316 1.14786 5.99316 2.52851Z" fill="#1F5FDB" />
    <path fill-rule="evenodd" clip-rule="evenodd" d="M0 7.45435V21.4714C0 22.8521 1.1333 23.9987 2.38343 23.9987H15.6792C16.2868 23.9987 17.0345 23.5775 17.3967 23.1446C18.0276 22.3958 18.0159 21.5885 18.0159 20.629C18.0159 19.8217 16.9995 19.7515 16.9878 20.5237C16.9878 20.7928 16.9878 21.0619 16.9878 21.331C16.9878 22.232 16.4153 22.9691 15.5858 22.9691H2.3367C1.96283 22.9691 1.63569 22.7117 1.43707 22.5128C1.2034 22.2788 1.02815 21.9512 1.02815 21.5182V7.45435C1.02815 6.76402 1.5539 6.2141 2.12639 6.062C2.4769 5.9801 2.86245 6.0035 3.27138 6.0035C3.55178 6.0035 4.0308 6.0152 4.0308 5.48868C4.0308 4.61115 1.92777 5.04406 1.67074 5.13767C1.28518 5.26637 1.12161 5.40678 0.852894 5.62908C0.408922 6.0035 0 6.67042 0 7.45435Z" fill="#1F5FDB" />
  </g>
  <defs>
    <clipPath id="clip0_341_3746">
      <rect width="22" height="24" fill="white" />
    </clipPath>
  </defs>
</svg>