<svg width="24" height="24" viewBox="0 0 24 24" fill="none" xmlns="http://www.w3.org/2000/svg">
  <g clip-path="url(#clip0_311_4324)">
    <path fill-rule="evenodd" clip-rule="evenodd" d="M0 2.54905V21.458C0 22.9402 1.0582 23.9989 2.54674 23.9989H12.8748C13.6931 23.9989 14.2434 23.7731 14.6878 23.3707L14.7937 23.2719C15.1534 22.8978 15.4709 22.3826 15.4709 21.8179V18.4441C15.4709 18.1336 14.7443 17.7595 14.455 18.3594C14.321 18.6488 14.3845 20.5333 14.3845 20.9357C14.3845 21.6768 14.448 21.9732 14.1023 22.4249C13.8201 22.799 13.3051 22.912 12.8254 22.912H2.59612C1.65079 22.912 1.09347 22.3544 1.09347 21.4015V2.59846C1.09347 1.65266 1.65079 1.09506 2.59612 1.09506H12.9312C13.4533 1.09506 13.9118 1.3068 14.1235 1.61031C14.448 2.06203 14.3845 2.33024 14.3845 3.0643C14.3845 3.47367 14.3351 5.29469 14.448 5.59819C14.6808 6.24049 15.4709 5.90169 15.4709 5.5629V2.18202C15.4709 1.82205 15.3369 1.53267 15.2169 1.29975C15.1534 1.1727 15.0829 1.06683 14.9912 0.953895L14.7654 0.706858C14.3563 0.290424 13.7637 0.0010376 12.9806 0.0010376H2.54674C1.0582 0.0010376 0 1.05977 0 2.54905Z" fill="#1F5FDB" />
    <path fill-rule="evenodd" clip-rule="evenodd" d="M17.4458 6.60048C17.4458 6.89692 18.3135 7.64509 18.5534 7.88507L20.9379 10.2778C21.2342 10.5672 21.9255 11.1954 22.116 11.4848H7.01195C6.4123 11.5694 6.37703 12.4376 7.019 12.5647L22.0666 12.5717C21.8973 12.8258 18.6239 16.0514 18.1089 16.5596C17.9114 16.7572 17.594 17.0043 17.5022 17.2513C17.3682 17.6042 17.6433 17.9783 18.0172 17.9783C18.3982 17.9783 19.3153 16.9054 19.6116 16.609L23.3294 12.8964C24.2677 11.9576 24.1901 12.0212 23.3012 11.1318L18.37 6.19816C18.2007 6.05699 18.0031 5.98641 17.7844 6.09934C17.6151 6.18404 17.4458 6.38873 17.4458 6.60048Z" fill="#1F5FDB" />
  </g>
  <defs>
    <clipPath id="clip0_311_4324">
      <rect width="24" height="24" fill="white" />
    </clipPath>
  </defs>
</svg>