<svg width="48" height="48" viewBox="0 0 48 48" fill="none" xmlns="http://www.w3.org/2000/svg">
<rect width="48" height="48" rx="24" fill="#F5F5F5"/>
<g clip-path="url(#clip0_2028_12918)">
<path fill-rule="evenodd" clip-rule="evenodd" d="M25.4956 36.017C24.9125 36.017 22.6508 34.8067 22.0766 34.4268L21.0076 33.667C20.8751 33.561 20.769 33.4903 20.6365 33.3843C20.398 33.1722 20.1771 33.022 19.9562 32.7923C19.7354 32.5626 19.5233 32.4213 19.3025 32.1827L18.7194 31.5466C17.9596 30.6455 17.7476 30.3186 17.1468 29.3203C16.9171 28.9404 16.5372 28.0392 16.387 27.5975C16.2103 27.0674 15.9806 26.1398 15.9806 25.4683V16.66C16.281 16.66 16.7228 16.5629 17.0055 16.5098C18.6929 16.1476 20.61 15.3525 22.0324 14.4072C22.1384 14.3365 22.6862 13.9389 22.7833 13.9389H28.2167C28.305 13.9389 28.8263 14.31 28.9411 14.3895C29.1796 14.5485 29.427 14.6987 29.6744 14.8312C31.247 15.6794 32.1923 16.0946 33.9592 16.4922C34.2507 16.554 34.7101 16.66 35.0105 16.66V25.38C35.0105 27.4473 33.862 29.5588 32.6163 31.1402L32.0244 31.8117C31.8389 31.9972 31.7329 32.1916 31.4148 32.4655C31.2823 32.5803 31.2204 32.6156 31.0879 32.7482C30.5402 33.3048 29.6125 33.9585 28.9499 34.4003C28.411 34.7625 27.9163 35.0187 27.3244 35.3103C27.0505 35.4516 25.8136 36.017 25.4956 36.017ZM15 16.236V25.1414C15 27.2883 15.9806 29.5765 17.2352 31.2463C17.35 31.3964 17.4295 31.5025 17.5444 31.6438L18.525 32.7747C19.2671 33.508 19.9121 34.1087 20.769 34.7007C21.0429 34.9039 21.308 35.0805 21.5995 35.2749L22.9335 36.0524C23.4548 36.3086 25.0362 36.9977 25.4956 36.9977C26.2377 36.9977 28.5966 35.8138 29.374 35.2926L30.5844 34.4533C30.7345 34.3384 30.8406 34.2412 30.9731 34.1352C31.5208 33.7023 31.9537 33.2871 32.4485 32.7923C32.9079 32.3329 33.3231 31.8294 33.7207 31.2993L34.56 30.0359C35.3816 28.5517 36 26.9437 36 25.1414V16.236C36 16.0681 35.8852 15.8737 35.7615 15.8119C35.6378 15.7501 35.3992 15.7324 35.2049 15.7236C34.8515 15.697 34.3833 15.5999 34.0387 15.5204C33.3143 15.3702 32.6075 15.1316 31.9714 14.8754C31.1763 14.5574 30.0454 13.9743 29.321 13.4884C29.1443 13.3647 28.6672 13.0024 28.4552 13.0024H22.5448C22.3328 13.0024 21.2814 13.7622 20.8574 13.9831C17.35 15.8826 15.6891 15.6264 15.265 15.8031C15.1237 15.8561 15 16.0504 15 16.236Z" fill="#1F5FDB"/>
<path fill-rule="evenodd" clip-rule="evenodd" d="M20.0627 24.4878C20.0627 23.3834 20.0715 22.7738 20.5928 21.7402C20.7606 21.4133 20.849 21.2189 21.061 20.9362C21.2819 20.6447 21.3879 20.5121 21.6441 20.2559C22.4922 19.4078 23.8704 18.6745 25.1249 18.6745C26.2293 18.6745 26.8389 18.6833 27.8725 19.2046C28.5086 19.5226 28.8532 19.7524 29.3567 20.2559C30.2049 21.1041 30.9382 22.4823 30.9382 23.7368C30.9382 24.8412 30.9293 25.4508 30.4081 26.4845C30.2402 26.8113 30.1519 27.0057 29.9398 27.2884C29.7366 27.5535 29.5864 27.7302 29.3567 27.9687C29.1005 28.2161 28.968 28.3309 28.6765 28.5518C28.0139 29.0465 26.7859 29.5501 25.8759 29.5501C24.7716 29.5501 24.162 29.5413 23.1283 29.02C22.4922 28.702 22.1477 28.4723 21.6441 27.9687C21.3879 27.7125 21.2819 27.58 21.061 27.2884C20.5663 26.6258 20.0627 25.3978 20.0627 24.4878ZM19.082 24.0195C19.082 27.7037 21.9091 30.5308 25.5932 30.5308C29.0299 30.5308 31.9188 27.686 31.9188 24.0195C31.9188 20.5828 29.074 17.6938 25.4077 17.6938C21.9886 17.6938 19.082 20.6005 19.082 24.0195Z" fill="#1F5FDB"/>
<path fill-rule="evenodd" clip-rule="evenodd" d="M24.3727 25.5656L23.8956 24.9648C23.7189 24.7528 23.5776 24.5496 23.4009 24.3376C23.2242 24.1255 23.0917 23.94 22.9238 23.728C22.8443 23.622 22.7648 23.5159 22.6764 23.4188C22.3496 23.0565 21.793 23.1979 21.793 23.6926C21.793 23.9842 23.3037 25.7688 23.5864 26.1222C23.8426 26.4403 24.0105 26.7848 24.3727 26.7848C24.6554 26.7848 25.424 25.8925 25.6537 25.6716L28.6752 22.6501C28.7989 22.5264 29.5321 21.9522 29.0462 21.5546C28.6487 21.2277 28.2953 21.6606 28.1098 21.8462C27.5973 22.3674 24.5936 25.4154 24.3727 25.5656Z" fill="#1F5FDB"/>
</g>
<defs>
<clipPath id="clip0_2028_12918">
<rect width="21" height="24" fill="white" transform="translate(15 13)"/>
</clipPath>
</defs>
</svg>
