<svg width="16" height="11" viewBox="0 0 16 11" fill="none" xmlns="http://www.w3.org/2000/svg">
  <path fill-rule="evenodd" clip-rule="evenodd" d="M5.4919 8.36357C5.26818 8.22054 2.84328 5.89128 2.43191 5.50307C2.01333 5.10804 1.80404 4.74026 1.11121 4.74026C0.764795 4.74026 0.533852 4.89691 0.353428 5.07399C-0.599211 6.00025 0.620456 6.81072 1.12564 7.29429L4.54648 10.5226C5.62903 11.551 6.22803 10.7133 7.05077 9.93685C7.93124 9.11275 15.675 1.87295 15.841 1.60733C16.3101 0.858151 15.675 0 14.7801 0C14.2028 0 13.7842 0.56529 13.4594 0.871773C12.6656 1.62095 5.76615 8.1933 5.4919 8.36357Z" fill="#1f5fdb" />
</svg>