<svg width="32" height="32" viewBox="0 0 32 32" fill="none" xmlns="http://www.w3.org/2000/svg">
  <ellipse cx="16" cy="16" rx="16" ry="16" transform="rotate(-90 16 16)" fill="#1F5FDB" />
  <mask id="path-2-inside-1_166_7670" fill="white">
    <path d="M18.6667 6.3999L27.7177 15.4509L18.6668 24.5018L9.6158 15.4509L18.6667 6.3999Z" />
  </mask>
  <path d="M18.6667 6.3999L27.7177 15.4509L18.6668 24.5018L9.6158 15.4509L18.6667 6.3999Z" fill="#1F5FDB" />
  <path d="M9.6158 15.4509L8.90869 14.7438L8.20158 15.4509L8.90869 16.158L9.6158 15.4509ZM18.6668 24.5018L19.3739 23.7947L10.3229 14.7438L9.6158 15.4509L8.90869 16.158L17.9597 25.2089L18.6668 24.5018ZM9.6158 15.4509L10.3229 16.158L19.3739 7.10701L18.6667 6.3999L17.9596 5.6928L8.90869 14.7438L9.6158 15.4509Z" fill="white" mask="url(#path-2-inside-1_166_7670)" />
</svg>