<svg width="32" height="32" viewBox="0 0 32 32" fill="none" xmlns="http://www.w3.org/2000/svg">
  <ellipse cx="16" cy="16" rx="16" ry="16" transform="rotate(90 16 16)" fill="#1F5FDB" />
  <mask id="path-2-inside-1_166_7678" fill="white">
    <path d="M13.3335 25.6001L4.28253 16.5491L13.3335 7.49818L22.3845 16.5491L13.3335 25.6001Z" />
  </mask>
  <path d="M13.3335 25.6001L4.28253 16.5491L13.3335 7.49818L22.3845 16.5491L13.3335 25.6001Z" fill="#1F5FDB" />
  <path d="M22.3845 16.5491L23.0916 17.2563L23.7987 16.5491L23.0916 15.842L22.3845 16.5491ZM13.3335 7.49818L12.6264 8.20529L21.6773 17.2563L22.3845 16.5491L23.0916 15.842L14.0406 6.79107L13.3335 7.49818ZM22.3845 16.5491L21.6773 15.842L12.6264 24.893L13.3335 25.6001L14.0406 26.3072L23.0916 17.2563L22.3845 16.5491Z" fill="white" mask="url(#path-2-inside-1_166_7678)" />
</svg>