<svg width="24" height="34" viewBox="0 0 24 34" fill="none" xmlns="http://www.w3.org/2000/svg">
<path d="M12 7.25C10.0716 7.25 8.18657 7.82183 6.58319 8.89317C4.97982 9.96451 3.73013 11.4873 2.99218 13.2688C2.25422 15.0504 2.06114 17.0108 2.43735 18.9021C2.81355 20.7934 3.74215 22.5307 5.10571 23.8943C6.46928 25.2579 8.20656 26.1865 10.0979 26.5627C11.9892 26.9389 13.9496 26.7458 15.7312 26.0078C17.5127 25.2699 19.0355 24.0202 20.1068 22.4168C21.1782 20.8134 21.75 18.9284 21.75 17C21.7473 14.415 20.7192 11.9366 18.8913 10.1087C17.0634 8.28084 14.585 7.25273 12 7.25ZM16.2806 15.2806L11.0306 20.5306C10.961 20.6004 10.8783 20.6557 10.7872 20.6934C10.6962 20.7312 10.5986 20.7506 10.5 20.7506C10.4014 20.7506 10.3038 20.7312 10.2128 20.6934C10.1218 20.6557 10.039 20.6004 9.96938 20.5306L7.71938 18.2806C7.57865 18.1399 7.49959 17.949 7.49959 17.75C7.49959 17.551 7.57865 17.3601 7.71938 17.2194C7.86011 17.0786 8.05098 16.9996 8.25 16.9996C8.44903 16.9996 8.6399 17.0786 8.78063 17.2194L10.5 18.9397L15.2194 14.2194C15.2891 14.1497 15.3718 14.0944 15.4628 14.0567C15.5539 14.019 15.6515 13.9996 15.75 13.9996C15.8486 13.9996 15.9461 14.019 16.0372 14.0567C16.1282 14.0944 16.2109 14.1497 16.2806 14.2194C16.3503 14.2891 16.4056 14.3718 16.4433 14.4628C16.481 14.5539 16.5004 14.6515 16.5004 14.75C16.5004 14.8485 16.481 14.9461 16.4433 15.0372C16.4056 15.1282 16.3503 15.2109 16.2806 15.2806Z" fill="#1F5FDB"/>
</svg>
