<svg width="354" height="50" viewBox="0 0 354 50" fill="none" xmlns="http://www.w3.org/2000/svg">
  <g clip-path="url(#clip0_76_6293)">
    <path d="M329.098 48.9951C334.626 42.1697 339.88 35.1251 344.834 27.8747C346.047 26.0977 347.248 24.3102 348.421 22.5095C349.592 20.7088 350.664 18.9451 351.415 16.9892C352.166 15.0333 352.475 12.9762 352.038 10.9428C351.509 8.49116 350.131 6.18457 348.513 4.29948C347.218 2.79547 345.64 1.5646 343.804 0.799106C342.145 0.101054 340.36 -0.104652 338.577 0.0470986C335.086 0.347227 331.887 2.20197 330.258 5.35837C328.539 8.68339 328.962 12.6761 330.26 16.0652C331.975 20.53 334.826 24.4013 337.537 28.2997C341.356 33.7863 345.171 39.2695 348.99 44.7561C349.585 45.6127 350.182 46.4693 350.777 47.3258C350.897 47.4944 352.168 49.1333 352.364 48.4048C352.458 48.0576 352.178 47.5113 352.044 47.2281C351.769 46.6344 351.417 46.0917 351.044 45.5553C347.943 41.1007 344.84 36.6426 341.74 32.1878C340.034 29.7328 338.321 27.2778 336.615 24.8229C336.383 24.4891 336.15 24.1518 335.918 23.818C335.726 23.5448 336.227 24.2733 336.04 23.9967C335.982 23.9125 335.924 23.828 335.867 23.7438C335.739 23.5549 335.611 23.3661 335.483 23.1772C335.018 22.4826 334.57 21.7812 334.133 21.0696C333.958 20.7863 334.412 21.5484 334.248 21.2584C334.21 21.1944 334.169 21.1269 334.133 21.0629C334.033 20.8909 333.935 20.7155 333.837 20.5401C333.739 20.3648 333.645 20.1894 333.551 20.0141C333.534 19.9804 333.457 19.7814 333.412 19.7477C333.561 20.0444 333.598 20.1153 333.521 19.9568C333.487 19.8893 333.453 19.8219 333.423 19.7578C333.261 19.4239 333.109 19.0867 332.964 18.7428C332.939 18.6787 332.824 18.3786 332.922 18.6416C333.018 18.9046 332.907 18.6045 332.883 18.5404C332.807 18.3347 332.73 18.1256 332.657 17.9166C332.581 17.6839 332.506 17.4478 332.436 17.2151C332.418 17.1544 332.359 16.9049 332.436 17.2084C332.416 17.1275 332.395 17.0465 332.376 16.9656C332.282 16.5778 332.203 16.1832 332.146 15.7887C332.026 14.9827 331.994 14.4196 332.032 13.6271C332.103 12.0759 332.487 10.555 333.214 9.17911L333.126 9.34434C334.813 6.24863 338.11 4.52879 341.558 4.28937L341.373 4.30285C342.706 4.22529 344.043 4.36693 345.32 4.7716C345.602 4.86264 345.881 4.96381 346.154 5.07847C346.427 5.19312 346.751 5.34487 346.913 5.43593C347.184 5.58768 347.451 5.74954 347.707 5.92489C347.824 6.00582 347.943 6.09014 348.061 6.17444C348.129 6.22503 348.193 6.27224 348.257 6.32282C348.263 6.32956 348.562 6.57911 348.385 6.42399C348.223 6.28235 348.545 6.57237 348.592 6.61283C348.69 6.70389 348.822 6.89948 348.939 6.95343C348.911 6.93994 348.606 6.58248 348.833 6.83877C348.873 6.88261 348.911 6.92983 348.952 6.97367C349.007 7.03436 349.056 7.09506 349.108 7.15577C349.293 7.37158 348.76 6.69039 348.99 7.00739C349.033 7.06471 349.08 7.14903 349.131 7.19961C349.167 7.2367 348.777 6.6668 348.92 6.88935C348.96 6.9568 349.003 7.02087 349.048 7.08832C349.216 7.3446 348.737 6.5454 348.882 6.81516C348.909 6.86575 348.939 6.91633 348.967 6.97028C349.148 7.29402 348.856 6.74436 348.852 6.74097C348.905 6.81179 349.125 7.35473 348.99 7.03099C348.856 6.70726 349.024 7.13553 349.05 7.2232C349.074 7.29739 349.097 7.36821 349.12 7.4424C349.189 7.6616 349.065 7.44577 349.103 7.37495C349.074 7.43229 349.193 7.76614 349.199 7.81673C349.24 8.03254 349.27 8.25174 349.293 8.47094C349.359 9.13527 349.312 9.82657 349.208 10.4943C348.939 12.2343 348.233 13.8733 347.408 15.4177L347.495 15.2525C346.384 17.3028 345.054 19.2317 343.757 21.1674C342.437 23.1401 341.098 25.096 339.733 27.0352C337.025 30.8895 334.233 34.6833 331.363 38.4131C329.723 40.5409 328.057 42.6485 326.368 44.736C326.183 44.9653 326.324 45.3598 326.403 45.5924C326.584 46.1456 326.899 46.712 327.217 47.1942C327.335 47.3763 328.755 49.4099 329.096 48.9917L329.098 48.9951Z" fill="#DBB6BB" />
    <path d="M25.1001 31.0462L30.5058 11.8519H34.9117L27.3147 37.4046H22.8616L17.4558 17.8531L12.0023 37.4046H7.64435L0 11.8519H4.42944L9.88291 31.0462L15.2887 11.8519H19.6943L25.1001 31.0462ZM62.3693 24.7118C62.3693 32.0464 56.8208 38 49.5336 38C42.294 38 36.6979 32.0464 36.6979 24.7118C36.6979 17.2816 42.294 11.2089 49.5336 11.2089C56.797 11.2089 62.3693 17.2577 62.3693 24.7118ZM58.1306 24.7118C58.1306 19.4009 54.2725 15.0906 49.5097 15.0906C44.7947 15.0906 40.9365 19.4009 40.9365 24.7118C40.9365 29.9271 44.7947 34.1418 49.5097 34.1418C54.2725 34.1183 58.1306 29.9032 58.1306 24.7118ZM101.401 37.4046H97.1858V20.8775C97.1858 17.5435 95.0665 15.0667 91.637 15.0667C88.303 15.0667 86.0885 17.5435 86.0885 20.8775V37.4046H81.9207V20.8775C81.9207 17.5435 79.7302 15.0667 76.3723 15.0667C73.0144 15.0667 70.8235 17.5435 70.8235 20.8775V37.4046H66.6083V21.0203C66.6083 15.4715 70.6328 11.2089 76.3723 11.2089C79.8492 11.2089 82.5161 12.8521 84.0166 15.4242C85.5644 12.8521 88.184 11.2089 91.6608 11.2089C97.4716 11.2089 101.425 15.4715 101.425 21.0203V37.4046H101.401ZM130.907 29.4507C129.121 34.904 124.763 37.9761 118.857 37.9761C111.522 37.9761 105.759 32.1176 105.759 24.6401C105.759 17.2577 111.522 11.2089 118.595 11.2089C125.191 11.2089 131.55 16.6623 131.502 25.7358H110.021C110.57 31.0462 114.642 34.1657 118.857 34.1657C122.476 34.1657 125.049 32.4272 126.453 29.4507H130.907ZM126.858 21.9727C125.81 17.8053 122.357 15.019 118.619 15.019C115.094 15.019 111.379 17.5912 110.284 21.9727H126.858ZM140.242 37.4046H136.075V21.8776C136.075 15.4242 140.647 11.2089 146.743 11.2089C152.84 11.2089 157.365 15.4242 157.365 21.8776V37.4046H153.197V21.7347C153.197 17.9243 150.673 15.1384 146.743 15.1384C142.766 15.1384 140.242 17.9243 140.242 21.7347V37.4046ZM181.822 38.0477C175.606 38.0477 171.105 34.7137 170.415 29.3078H174.677C175.225 32.2844 178.154 34.1183 181.822 34.1183C185.798 34.1183 188.228 32.1893 188.228 29.9505C188.228 28.1647 187.537 26.8311 181.274 25.9738C175.082 25.0687 171.295 23.5922 171.295 18.782C171.295 15.1145 174.463 11.1851 181.321 11.1851C187.227 11.1851 191.18 14.1619 191.752 19.1629H187.49C186.894 16.4482 184.465 15.0429 181.345 15.0429C177.963 15.0429 175.535 16.6384 175.535 18.6153C175.535 20.4488 176.963 21.092 181.988 21.9015C187.656 22.8066 192.3 23.8779 192.3 29.6887C192.276 34.8089 187.918 38.0477 181.822 38.0477ZM221.163 29.4507C219.378 34.904 215.019 37.9761 209.113 37.9761C201.778 37.9761 196.015 32.1176 196.015 24.6401C196.015 17.2577 201.778 11.2089 208.851 11.2089C215.447 11.2089 221.807 16.6623 221.711 25.7358H200.277C200.825 31.0462 204.897 34.1657 209.113 34.1657C212.732 34.1657 215.305 32.4272 216.71 29.4507H221.163ZM217.089 21.9727C216.042 17.8053 212.566 15.019 208.851 15.019C205.326 15.019 201.611 17.5912 200.516 21.9727H217.089ZM238.165 38C231.117 38 225.353 32.0464 225.353 24.664C225.353 17.2816 231.117 11.2327 238.165 11.2327C243.857 11.2327 248.335 14.6144 250.073 19.7583H245.548C244.119 16.9719 241.477 15.0906 238.165 15.0906C233.45 15.0906 229.592 19.4009 229.592 24.664C229.592 29.9271 233.45 34.1418 238.165 34.1418C241.547 34.1418 244.166 32.2605 245.548 29.4745H250.073C248.382 34.6182 243.88 38 238.165 38ZM265.696 11.3518V15.2813C260.789 14.8287 257.646 17.2099 257.646 22.1395V37.4046H253.479V22.2111C253.502 14.4715 259.004 10.5659 265.696 11.3518ZM291.604 29.4507C289.819 34.904 285.461 37.9761 279.556 37.9761C272.22 37.9761 266.458 32.1176 266.458 24.6401C266.458 17.2577 272.22 11.2089 279.317 11.2089C285.913 11.2089 292.272 16.6623 292.225 25.7358H270.744C271.292 31.0462 275.363 34.1657 279.579 34.1657C283.198 34.1657 285.795 32.4272 287.175 29.4507H291.604ZM287.533 21.9727C286.484 17.8053 283.008 15.019 279.293 15.019C275.768 15.019 272.053 17.5912 270.957 21.9727H287.533ZM307.084 37.4046C301.13 38.0951 297.01 34.5709 297.01 28.0692V6.39844H301.179V11.8519H306.988V15.8767H301.179V28.0692C301.179 32.594 303.918 33.737 307.084 33.5229V37.4046ZM162.032 15.8767V6.39844H166.2V15.8767H162.032Z" fill="white" />
  </g>
  <defs>
    <clipPath id="clip0_76_6293">
      <rect width="354" height="49.0482" fill="white" />
    </clipPath>
  </defs>
</svg>