<svg width="227" height="48" viewBox="0 0 227 48" fill="none" xmlns="http://www.w3.org/2000/svg">
<path d="M21.1194 3.14143C23.5377 -1.04714 29.5832 -1.04714 32.0015 3.14143L39.6047 16.3106L26.0328 39.8176C23.227 44.6774 18.0417 47.6712 12.4301 47.6712H6.29239C1.45588 47.6712 -1.56713 42.4355 0.85103 38.2469L21.1194 3.14143Z" fill="white"/>
<path d="M46.0945 9.42463C48.5127 5.23606 54.5584 5.23606 56.9767 9.42463L73.5721 38.1687C75.9904 42.3573 72.9675 47.593 68.131 47.593H34.9402C30.1036 47.593 27.0808 42.3573 29.4991 38.1687L46.0945 9.42463Z" fill="white" fill-opacity="0.4"/>
<path d="M52.2698 38.2477C54.5156 42.1376 52.0684 46.9297 47.8341 47.5934H34.9401C30.1036 47.5934 27.0808 42.3577 29.4991 38.1691L40.8616 18.4883L52.2698 38.2477Z" fill="white"/>
<path d="M222.87 22.1801H213.198V19.5798H222.87V22.1801ZM226.2 25.7614H222.892L217.555 11.6189H218.467L213.129 25.7614H209.936L216.369 9.45196H219.767L226.2 25.7614Z" fill="white"/>
<path d="M201.396 25.7614H198.316V9.45196H204.931C206.102 9.45196 207.121 9.66486 207.988 10.0906C208.87 10.5012 209.554 11.0791 210.041 11.8242C210.543 12.5694 210.794 13.4362 210.794 14.4246C210.794 15.4131 210.543 16.2875 210.041 17.0478C209.554 17.7929 208.87 18.3784 207.988 18.8042C207.121 19.2148 206.102 19.4201 204.931 19.4201H201.168V16.8197H204.931C205.783 16.8197 206.452 16.6068 206.939 16.181C207.425 15.7552 207.669 15.1698 207.669 14.4246C207.669 13.6947 207.425 13.1168 206.939 12.691C206.452 12.2652 205.783 12.0523 204.931 12.0523H201.396V25.7614Z" fill="white"/>
<path d="M186.495 26.1263C185.232 26.1263 184.069 25.9134 183.005 25.4876C181.955 25.0619 181.035 24.4688 180.245 23.7084C179.454 22.9481 178.846 22.0509 178.42 21.0168C177.994 19.9675 177.781 18.827 177.781 17.5953C177.781 16.3635 177.994 15.2306 178.42 14.1965C178.846 13.1624 179.454 12.2652 180.245 11.5049C181.035 10.7445 181.955 10.1515 183.005 9.72569C184.069 9.29989 185.232 9.087 186.495 9.087C187.757 9.087 188.913 9.29989 189.962 9.72569C191.026 10.1515 191.954 10.7445 192.745 11.5049C193.535 12.2652 194.144 13.1624 194.57 14.1965C194.995 15.2306 195.208 16.3635 195.208 17.5953C195.208 18.827 194.995 19.9675 194.57 21.0168C194.144 22.0509 193.535 22.9481 192.745 23.7084C191.954 24.4688 191.026 25.0619 189.962 25.4876C188.913 25.9134 187.757 26.1263 186.495 26.1263ZM186.495 23.4119C187.574 23.4119 188.525 23.161 189.346 22.6592C190.167 22.1573 190.806 21.473 191.262 20.6062C191.733 19.7242 191.969 18.7206 191.969 17.5953C191.969 16.4699 191.733 15.4739 191.262 14.6071C190.806 13.7403 190.167 13.056 189.346 12.5542C188.525 12.0523 187.574 11.8014 186.495 11.8014C185.43 11.8014 184.48 12.0523 183.643 12.5542C182.822 13.056 182.176 13.7403 181.704 14.6071C181.248 15.4739 181.02 16.4699 181.02 17.5953C181.02 18.7206 181.248 19.7242 181.704 20.6062C182.176 21.473 182.822 22.1573 183.643 22.6592C184.48 23.161 185.43 23.4119 186.495 23.4119Z" fill="white"/>
<path d="M166.455 24.1418C163.474 24.1418 161.216 23.5868 159.68 22.4767C158.144 21.3666 157.377 19.7394 157.377 17.5953C157.377 15.4511 158.144 13.8315 159.68 12.7367C161.216 11.6265 163.474 11.0715 166.455 11.0715C169.436 11.0715 171.686 11.6265 173.207 12.7367C174.743 13.8315 175.511 15.4511 175.511 17.5953C175.511 19.7394 174.743 21.3666 173.207 22.4767C171.686 23.5868 169.436 24.1418 166.455 24.1418ZM166.455 21.6099C168.538 21.6099 170.059 21.2905 171.017 20.6518C171.99 20.0132 172.477 18.9943 172.477 17.5953C172.477 16.2114 171.99 15.2002 171.017 14.5615C170.059 13.9228 168.538 13.6034 166.455 13.6034C164.372 13.6034 162.843 13.9228 161.87 14.5615C160.912 15.2002 160.433 16.2114 160.433 17.5953C160.433 18.9791 160.912 19.998 161.87 20.6518C162.843 21.2905 164.372 21.6099 166.455 21.6099ZM164.904 26.5141V23.1838L164.995 22.1801V12.8963L164.904 12.0067V8.69922H167.983V12.0067L167.892 12.8963V22.1801L167.983 23.1838V26.5141H164.904Z" fill="white"/>
<path d="M153.436 22.1801H143.764V19.5798H153.436V22.1801ZM156.766 25.7614H153.459L148.121 11.6189H149.034L143.696 25.7614H140.503L146.935 9.45196H150.334L156.766 25.7614Z" fill="white"/>
<path d="M136.709 25.7614H133.629V11.847H136.709V25.7614ZM141.818 12.0752H128.52V9.45196H141.818V12.0752Z" fill="white"/>
<path d="M126.768 25.7614H115.295V9.45196H126.768V12.0523H118.374V23.161H126.768V25.7614ZM126.335 18.8042H118.146V16.2038H126.335V18.8042Z" fill="white"/>
<path d="M103.656 24.005H101.375L95.0112 10.7065L96.6079 10.6837V25.7614H93.6426V9.45196H97.201L103.154 21.952H101.9L107.853 9.45196H111.366V25.7614H108.355V10.6837L110.02 10.7065L103.656 24.005Z" fill="white"/>
<path d="M149.695 41.2358H142.946V39.4213H149.695V41.2358ZM152.018 43.7347H149.711L145.986 33.8664H146.623L142.898 43.7347H140.67L145.158 32.3543H147.53L152.018 43.7347Z" fill="white" fill-opacity="0.6"/>
<path d="M138.287 40.424L139.704 41.8565C139.205 42.4932 138.547 43.0078 137.73 43.4005C136.924 43.7931 136.038 43.9894 135.072 43.9894C134.191 43.9894 133.385 43.8461 132.653 43.5596C131.921 43.2625 131.284 42.8487 130.743 42.3181C130.212 41.777 129.798 41.1456 129.501 40.424C129.215 39.7025 129.071 38.9066 129.071 38.0365C129.071 37.1876 129.22 36.4024 129.517 35.6809C129.825 34.9487 130.249 34.3173 130.79 33.7868C131.332 33.2456 131.968 32.8318 132.7 32.5453C133.443 32.2482 134.25 32.0996 135.12 32.0996C136.085 32.0996 136.966 32.2959 137.762 32.6885C138.558 33.0811 139.205 33.5958 139.704 34.2324L138.287 35.6649C137.937 35.1556 137.486 34.7524 136.934 34.4553C136.393 34.1476 135.788 33.9937 135.12 33.9937C134.398 33.9937 133.751 34.1688 133.178 34.5189C132.616 34.8691 132.17 35.3466 131.841 35.9514C131.512 36.5563 131.348 37.2513 131.348 38.0365C131.348 38.8218 131.512 39.5221 131.841 40.1375C132.17 40.7424 132.616 41.2199 133.178 41.57C133.751 41.9202 134.398 42.0953 135.12 42.0953C135.788 42.0953 136.393 41.9467 136.934 41.6496C137.486 41.3419 137.937 40.9334 138.287 40.424Z" fill="white" fill-opacity="0.6"/>
<path d="M126.354 40.424L127.771 41.8565C127.272 42.4932 126.614 43.0078 125.797 43.4005C124.99 43.7931 124.104 43.9894 123.139 43.9894C122.258 43.9894 121.452 43.8461 120.719 43.5596C119.987 43.2625 119.351 42.8487 118.809 42.3181C118.279 41.777 117.865 41.1456 117.568 40.424C117.281 39.7025 117.138 38.9066 117.138 38.0365C117.138 37.1876 117.287 36.4024 117.584 35.6809C117.892 34.9487 118.316 34.3173 118.857 33.7868C119.398 33.2456 120.035 32.8318 120.767 32.5453C121.51 32.2482 122.316 32.0996 123.187 32.0996C124.152 32.0996 125.033 32.2959 125.829 32.6885C126.625 33.0811 127.272 33.5958 127.771 34.2324L126.354 35.6649C126.004 35.1556 125.553 34.7524 125.001 34.4553C124.46 34.1476 123.855 33.9937 123.187 33.9937C122.465 33.9937 121.818 34.1688 121.245 34.5189C120.682 34.8691 120.237 35.3466 119.908 35.9514C119.579 36.5563 119.414 37.2513 119.414 38.0365C119.414 38.8218 119.579 39.5221 119.908 40.1375C120.237 40.7424 120.682 41.2199 121.245 41.57C121.818 41.9202 122.465 42.0953 123.187 42.0953C123.855 42.0953 124.46 41.9467 125.001 41.6496C125.553 41.3419 126.004 40.9334 126.354 40.424Z" fill="white" fill-opacity="0.6"/>
<path d="M113.911 41.2358H107.162V39.4213H113.911V41.2358ZM116.235 43.7347H113.927L110.203 33.8664H110.839L107.115 43.7347H104.886L109.375 32.3543H111.746L116.235 43.7347Z" fill="white" fill-opacity="0.6"/>
<path d="M95.7913 43.7347H93.6426V32.3543H95.7913V43.7347ZM104.052 43.7347H101.139L95.3934 37.8296H95.6481L100.726 32.3543H103.384L97.956 38.0524V37.6068L104.052 43.7347Z" fill="white" fill-opacity="0.6"/>
</svg>
