<svg width="32" height="40" viewBox="0 0 32 40" fill="none" xmlns="http://www.w3.org/2000/svg">
<path d="M16 7C13.4288 7 10.9154 7.76244 8.77759 9.1909C6.63975 10.6194 4.97351 12.6497 3.98957 15.0251C3.00563 17.4006 2.74819 20.0144 3.2498 22.5362C3.75141 25.0579 4.98953 27.3743 6.80762 29.1924C8.6257 31.0105 10.9421 32.2486 13.4638 32.7502C15.9856 33.2518 18.5995 32.9944 20.9749 32.0104C23.3503 31.0265 25.3807 29.3603 26.8091 27.2224C28.2376 25.0846 29 22.5712 29 20C28.9964 16.5533 27.6256 13.2488 25.1884 10.8116C22.7512 8.37445 19.4467 7.00364 16 7ZM21.7075 17.7075L14.7075 24.7075C14.6146 24.8005 14.5043 24.8742 14.3829 24.9246C14.2615 24.9749 14.1314 25.0008 14 25.0008C13.8686 25.0008 13.7385 24.9749 13.6171 24.9246C13.4957 24.8742 13.3854 24.8005 13.2925 24.7075L10.2925 21.7075C10.1049 21.5199 9.99945 21.2654 9.99945 21C9.99945 20.7346 10.1049 20.4801 10.2925 20.2925C10.4801 20.1049 10.7346 19.9994 11 19.9994C11.2654 19.9994 11.5199 20.1049 11.7075 20.2925L14 22.5863L20.2925 16.2925C20.3854 16.1996 20.4957 16.1259 20.6171 16.0756C20.7385 16.0253 20.8686 15.9994 21 15.9994C21.1314 15.9994 21.2615 16.0253 21.3829 16.0756C21.5043 16.1259 21.6146 16.1996 21.7075 16.2925C21.8004 16.3854 21.8741 16.4957 21.9244 16.6171C21.9747 16.7385 22.0006 16.8686 22.0006 17C22.0006 17.1314 21.9747 17.2615 21.9244 17.3829C21.8741 17.5043 21.8004 17.6146 21.7075 17.7075Z" fill="#1F5FDB"/>
</svg>
