<svg width="208" height="45" viewBox="0 0 208 45" fill="none" xmlns="http://www.w3.org/2000/svg">
<path d="M19.3687 2.88103C21.5866 -0.960342 27.131 -0.960342 29.3488 2.88103L36.3218 14.9586L23.8749 36.5171C21.3017 40.974 16.5462 43.7196 11.3997 43.7196H5.7708C1.3352 43.7196 -1.43723 38.9179 0.780486 35.0765L19.3687 2.88103Z" fill="#1F5FDB"/>
<path d="M42.2733 8.64275C44.4911 4.80138 50.0356 4.80137 52.2534 8.64274L67.4732 35.0041C69.691 38.8455 66.9188 43.6472 62.4831 43.6472H32.0436C27.608 43.6472 24.8357 38.8455 27.0535 35.0041L42.2733 8.64275Z" fill="#2B313D"/>
<path d="M47.9367 35.0766C49.9964 38.644 47.752 43.0389 43.8687 43.6476H32.0436C27.6079 43.6476 24.8357 38.8459 27.0535 35.0045L37.4742 16.9551L47.9367 35.0766Z" fill="#1F5FDB"/>
<path d="M204.395 20.342H195.525V17.9571H204.395V20.342ZM207.45 23.6263H204.416L199.521 10.6562H200.358L195.463 23.6263H192.534L198.433 8.66886H201.55L207.45 23.6263Z" fill="#1F5FDB"/>
<path d="M184.702 23.6263H181.877V8.66886H187.944C189.018 8.66886 189.952 8.86411 190.747 9.25461C191.556 9.63116 192.184 10.1611 192.63 10.8445C193.09 11.5279 193.32 12.3228 193.32 13.2293C193.32 14.1358 193.09 14.9378 192.63 15.6351C192.184 16.3184 191.556 16.8554 190.747 17.2459C189.952 17.6224 189.018 17.8107 187.944 17.8107H184.492V15.4259H187.944C188.725 15.4259 189.339 15.2306 189.785 14.8401C190.231 14.4496 190.454 13.9127 190.454 13.2293C190.454 12.5599 190.231 12.0299 189.785 11.6394C189.339 11.2489 188.725 11.0537 187.944 11.0537H184.702V23.6263Z" fill="#1F5FDB"/>
<path d="M171.036 23.9611C169.878 23.9611 168.811 23.7658 167.835 23.3753C166.873 22.9848 166.029 22.4409 165.304 21.7436C164.579 21.0463 164.021 20.2234 163.63 19.2751C163.24 18.3128 163.044 17.2668 163.044 16.1371C163.044 15.0075 163.24 13.9685 163.63 13.0201C164.021 12.0718 164.579 11.2489 165.304 10.5516C166.029 9.8543 166.873 9.3104 167.835 8.9199C168.811 8.5294 169.878 8.33415 171.036 8.33415C172.193 8.33415 173.253 8.5294 174.215 8.9199C175.192 9.3104 176.042 9.8543 176.768 10.5516C177.493 11.2489 178.051 12.0718 178.441 13.0201C178.832 13.9685 179.027 15.0075 179.027 16.1371C179.027 17.2668 178.832 18.3128 178.441 19.2751C178.051 20.2234 177.493 21.0463 176.768 21.7436C176.042 22.4409 175.192 22.9848 174.215 23.3753C173.253 23.7658 172.193 23.9611 171.036 23.9611ZM171.036 21.4716C172.026 21.4716 172.898 21.2415 173.651 20.7813C174.404 20.321 174.989 19.6935 175.408 18.8985C175.84 18.0896 176.056 17.1692 176.056 16.1371C176.056 15.1051 175.84 14.1916 175.408 13.3967C174.989 12.6017 174.404 11.9742 173.651 11.5139C172.898 11.0537 172.026 10.8236 171.036 10.8236C170.059 10.8236 169.188 11.0537 168.421 11.5139C167.668 11.9742 167.075 12.6017 166.643 13.3967C166.224 14.1916 166.015 15.1051 166.015 16.1371C166.015 17.1692 166.224 18.0896 166.643 18.8985C167.075 19.6935 167.668 20.321 168.421 20.7813C169.188 21.2415 170.059 21.4716 171.036 21.4716Z" fill="#1F5FDB"/>
<path d="M152.657 22.1411C149.924 22.1411 147.853 21.632 146.444 20.6139C145.036 19.5958 144.331 18.1036 144.331 16.1371C144.331 14.1707 145.036 12.6854 146.444 11.6813C147.853 10.6632 149.924 10.1541 152.657 10.1541C155.391 10.1541 157.455 10.6632 158.849 11.6813C160.258 12.6854 160.962 14.1707 160.962 16.1371C160.962 18.1036 160.258 19.5958 158.849 20.6139C157.455 21.632 155.391 22.1411 152.657 22.1411ZM152.657 19.819C154.568 19.819 155.962 19.5261 156.841 18.9404C157.734 18.3546 158.18 17.4202 158.18 16.1371C158.18 14.868 157.734 13.9406 156.841 13.3548C155.962 12.7691 154.568 12.4762 152.657 12.4762C150.747 12.4762 149.345 12.7691 148.452 13.3548C147.574 13.9406 147.134 14.868 147.134 16.1371C147.134 17.4063 147.574 18.3407 148.452 18.9404C149.345 19.5261 150.747 19.819 152.657 19.819ZM151.235 24.3167V21.2624L151.318 20.342V11.8277L151.235 11.0118V7.97852H154.059V11.0118L153.975 11.8277V20.342L154.059 21.2624V24.3167H151.235Z" fill="#1F5FDB"/>
<path d="M140.717 20.342H131.847V17.9571H140.717V20.342ZM143.772 23.6263H140.738L135.843 10.6562H136.68L131.785 23.6263H128.856L134.755 8.66886H137.872L143.772 23.6263Z" fill="#1F5FDB"/>
<path d="M125.377 23.6263H122.553V10.8654H125.377V23.6263ZM130.063 11.0746H117.867V8.66886H130.063V11.0746Z" fill="#1F5FDB"/>
<path d="M116.26 23.6263H105.738V8.66886H116.26V11.0537H108.562V21.2415H116.26V23.6263ZM115.863 17.2459H108.353V14.861H115.863V17.2459Z" fill="#1F5FDB"/>
<path d="M95.0641 22.0155H92.9721L87.1355 9.81943L88.5999 9.79852V23.6263H85.8804V8.66886H89.1438L94.6038 20.1328H93.4532L98.9132 8.66886H102.135V23.6263H99.3735V9.79852L100.901 9.81943L95.0641 22.0155Z" fill="#1F5FDB"/>
<path d="M137.286 37.8183H131.097V36.1542H137.286V37.8183ZM139.417 40.1101H137.301L133.885 31.0597H134.469L131.053 40.1101H129.009L133.126 29.673H135.301L139.417 40.1101Z" fill="#2B313D"/>
<path d="M126.824 37.0738L128.123 38.3876C127.666 38.9715 127.063 39.4435 126.313 39.8035C125.574 40.1636 124.761 40.3436 123.876 40.3436C123.068 40.3436 122.328 40.2123 121.657 39.9495C120.985 39.677 120.401 39.2975 119.905 38.8109C119.419 38.3146 119.039 37.7356 118.767 37.0738C118.504 36.4121 118.372 35.6822 118.372 34.8842C118.372 34.1057 118.509 33.3856 118.781 32.7238C119.063 32.0524 119.453 31.4733 119.949 30.9868C120.445 30.4905 121.029 30.1109 121.701 29.8482C122.382 29.5757 123.121 29.4395 123.919 29.4395C124.805 29.4395 125.613 29.6195 126.343 29.9796C127.072 30.3396 127.666 30.8116 128.123 31.3955L126.824 32.7092C126.503 32.2421 126.09 31.8723 125.584 31.5999C125.087 31.3176 124.533 31.1765 123.919 31.1765C123.258 31.1765 122.664 31.3371 122.139 31.6582C121.623 31.9794 121.214 32.4173 120.912 32.972C120.611 33.5267 120.46 34.1641 120.46 34.8842C120.46 35.6044 120.611 36.2467 120.912 36.8111C121.214 37.3658 121.623 37.8037 122.139 38.1248C122.664 38.446 123.258 38.6066 123.919 38.6066C124.533 38.6066 125.087 38.4703 125.584 38.1978C126.09 37.9156 126.503 37.541 126.824 37.0738Z" fill="#2B313D"/>
<path d="M115.88 37.0738L117.179 38.3876C116.722 38.9715 116.119 39.4435 115.369 39.8035C114.63 40.1636 113.817 40.3436 112.932 40.3436C112.124 40.3436 111.384 40.2123 110.713 39.9495C110.041 39.677 109.457 39.2975 108.961 38.8109C108.475 38.3146 108.095 37.7356 107.823 37.0738C107.56 36.4121 107.428 35.6822 107.428 34.8842C107.428 34.1057 107.565 33.3856 107.837 32.7238C108.119 32.0524 108.509 31.4733 109.005 30.9868C109.501 30.4905 110.085 30.1109 110.757 29.8482C111.438 29.5757 112.177 29.4395 112.975 29.4395C113.861 29.4395 114.669 29.6195 115.399 29.9796C116.128 30.3396 116.722 30.8116 117.179 31.3955L115.88 32.7092C115.559 32.2421 115.146 31.8723 114.639 31.5999C114.143 31.3176 113.588 31.1765 112.975 31.1765C112.314 31.1765 111.72 31.3371 111.194 31.6582C110.679 31.9794 110.27 32.4173 109.968 32.972C109.667 33.5267 109.516 34.1641 109.516 34.8842C109.516 35.6044 109.667 36.2467 109.968 36.8111C110.27 37.3658 110.679 37.8037 111.194 38.1248C111.72 38.446 112.314 38.6066 112.975 38.6066C113.588 38.6066 114.143 38.4703 114.639 38.1978C115.146 37.9156 115.559 37.541 115.88 37.0738Z" fill="#2B313D"/>
<path d="M104.469 37.8183H98.2795V36.1542H104.469V37.8183ZM106.6 40.1101H104.483L101.068 31.0597H101.651L98.2357 40.1101H96.1921L100.309 29.673H102.484L106.6 40.1101Z" fill="#2B313D"/>
<path d="M87.851 40.1101H85.8804V29.673H87.851V40.1101ZM95.427 40.1101H92.7557L87.4861 34.6945H87.7196L92.3762 29.673H94.8139L89.8362 34.8988V34.4901L95.427 40.1101Z" fill="#2B313D"/>
</svg>
