<svg width="51" height="33" viewBox="0 0 51 33" fill="none" xmlns="http://www.w3.org/2000/svg">
  <g clip-path="url(#clip0_2001_786)">
    <path d="M14.2506 2.11973C15.8824 -0.706576 19.9617 -0.706576 21.5935 2.11973L26.7239 11.0058L17.5661 26.8676C15.6728 30.1468 12.1739 32.1669 8.38738 32.1669H4.24589C0.982379 32.1669 -1.05745 28.634 0.574246 25.8077L14.2506 2.11973Z" fill="white" />
    <path d="M31.1024 6.35918C32.7341 3.53288 36.8136 3.53288 38.4453 6.35918L49.6433 25.7547C51.2751 28.581 49.2354 32.1139 45.9719 32.1139H23.5759C20.3123 32.1139 18.2726 28.581 19.9044 25.7547L31.1024 6.35918Z" fill="white" fill-opacity="0.4" />
    <path d="M35.2693 25.8077C36.7847 28.4324 35.1334 31.666 32.2762 32.1139H23.5758C20.3123 32.1139 18.2726 28.581 19.9044 25.7547L27.5714 12.4747L35.2693 25.8077Z" fill="white" />
  </g>
  <defs>
    <clipPath id="clip0_2001_786">
      <rect width="50.2181" height="32.1669" fill="white" />
    </clipPath>
  </defs>
</svg>