<svg width="208" height="45" viewBox="0 0 208 45" fill="none" xmlns="http://www.w3.org/2000/svg">
<path d="M19.3687 2.88103C21.5866 -0.960342 27.131 -0.960342 29.3488 2.88103L36.3218 14.9586L23.8749 36.5171C21.3017 40.974 16.5462 43.7196 11.3997 43.7196H5.7708C1.3352 43.7196 -1.43723 38.9179 0.780486 35.0765L19.3687 2.88103Z" fill="#1F5FDB"/>
<path d="M42.2733 8.64308C44.4911 4.80171 50.0356 4.80171 52.2534 8.64308L67.4732 35.0045C69.691 38.8458 66.9188 43.6476 62.4831 43.6476H32.0436C27.608 43.6476 24.8357 38.8458 27.0535 35.0045L42.2733 8.64308Z" fill="#2B313D"/>
<path d="M47.9367 35.0765C49.9964 38.644 47.752 43.0388 43.8687 43.6476H32.0436C27.6079 43.6476 24.8357 38.8459 27.0535 35.0045L37.4742 16.955L47.9367 35.0765Z" fill="#1F5FDB"/>
<path d="M204.395 20.3423H195.525V17.9575H204.395V20.3423ZM207.45 23.6267H204.416L199.521 10.6565H200.358L195.463 23.6267H192.534L198.433 8.66918H201.55L207.45 23.6267Z" fill="#1F5FDB"/>
<path d="M184.702 23.6267H181.877V8.66918H187.944C189.018 8.66918 189.952 8.86443 190.747 9.25493C191.556 9.63148 192.184 10.1614 192.63 10.8448C193.09 11.5282 193.32 12.3231 193.32 13.2296C193.32 14.1362 193.09 14.9381 192.63 15.6354C192.184 16.3188 191.556 16.8557 190.747 17.2462C189.952 17.6227 189.018 17.811 187.944 17.811H184.492V15.4262H187.944C188.725 15.4262 189.339 15.2309 189.785 14.8404C190.231 14.4499 190.454 13.913 190.454 13.2296C190.454 12.5602 190.231 12.0303 189.785 11.6398C189.339 11.2493 188.725 11.054 187.944 11.054H184.702V23.6267Z" fill="#1F5FDB"/>
<path d="M171.036 23.9614C169.878 23.9614 168.811 23.7661 167.835 23.3756C166.873 22.9851 166.029 22.4412 165.304 21.7439C164.579 21.0466 164.021 20.2237 163.63 19.2754C163.24 18.3131 163.044 17.2671 163.044 16.1375C163.044 15.0078 163.24 13.9688 163.63 13.0204C164.021 12.0721 164.579 11.2493 165.304 10.5519C166.029 9.85462 166.873 9.31072 167.835 8.92022C168.811 8.52972 169.878 8.33447 171.036 8.33447C172.193 8.33447 173.253 8.52972 174.215 8.92022C175.192 9.31072 176.042 9.85462 176.768 10.5519C177.493 11.2493 178.051 12.0721 178.441 13.0204C178.832 13.9688 179.027 15.0078 179.027 16.1375C179.027 17.2671 178.832 18.3131 178.441 19.2754C178.051 20.2237 177.493 21.0466 176.768 21.7439C176.042 22.4412 175.192 22.9851 174.215 23.3756C173.253 23.7661 172.193 23.9614 171.036 23.9614ZM171.036 21.4719C172.026 21.4719 172.898 21.2418 173.651 20.7816C174.404 20.3214 174.989 19.6938 175.408 18.8988C175.84 18.09 176.056 17.1695 176.056 16.1375C176.056 15.1054 175.84 14.1919 175.408 13.397C174.989 12.6021 174.404 11.9745 173.651 11.5142C172.898 11.054 172.026 10.8239 171.036 10.8239C170.059 10.8239 169.188 11.054 168.421 11.5142C167.668 11.9745 167.075 12.6021 166.643 13.397C166.224 14.1919 166.015 15.1054 166.015 16.1375C166.015 17.1695 166.224 18.09 166.643 18.8988C167.075 19.6938 167.668 20.3214 168.421 20.7816C169.188 21.2418 170.059 21.4719 171.036 21.4719Z" fill="#1F5FDB"/>
<path d="M152.657 22.1414C149.924 22.1414 147.853 21.6323 146.444 20.6142C145.036 19.5962 144.331 18.1039 144.331 16.1375C144.331 14.171 145.036 12.6857 146.444 11.6816C147.853 10.6635 149.924 10.1545 152.657 10.1545C155.391 10.1545 157.455 10.6635 158.849 11.6816C160.258 12.6857 160.962 14.171 160.962 16.1375C160.962 18.1039 160.258 19.5962 158.849 20.6142C157.455 21.6323 155.391 22.1414 152.657 22.1414ZM152.657 19.8193C154.568 19.8193 155.962 19.5264 156.841 18.9407C157.734 18.3549 158.18 17.4205 158.18 16.1375C158.18 14.8683 157.734 13.9409 156.841 13.3552C155.962 12.7694 154.568 12.4765 152.657 12.4765C150.747 12.4765 149.345 12.7694 148.452 13.3552C147.574 13.9409 147.134 14.8683 147.134 16.1375C147.134 17.4066 147.574 18.341 148.452 18.9407C149.345 19.5264 150.747 19.8193 152.657 19.8193ZM151.235 24.317V21.2627L151.318 20.3423V11.828L151.235 11.0122V7.97884H154.059V11.0122L153.975 11.828V20.3423L154.059 21.2627V24.317H151.235Z" fill="#1F5FDB"/>
<path d="M140.717 20.3423H131.847V17.9575H140.717V20.3423ZM143.772 23.6267H140.738L135.843 10.6565H136.68L131.785 23.6267H128.856L134.755 8.66918H137.872L143.772 23.6267Z" fill="#1F5FDB"/>
<path d="M125.377 23.6267H122.553V10.8657H125.377V23.6267ZM130.063 11.0749H117.867V8.66918H130.063V11.0749Z" fill="#1F5FDB"/>
<path d="M116.26 23.6267H105.738V8.66918H116.26V11.054H108.562V21.2418H116.26V23.6267ZM115.863 17.2462H108.353V14.8614H115.863V17.2462Z" fill="#1F5FDB"/>
<path d="M95.0641 22.0159H92.9721L87.1355 9.81975L88.5999 9.79884V23.6267H85.8804V8.66918H89.1438L94.6038 20.1331H93.4532L98.9132 8.66918H102.135V23.6267H99.3735V9.79884L100.901 9.81975L95.0641 22.0159Z" fill="#1F5FDB"/>
<path d="M137.286 37.818H131.097V36.1539H137.286V37.818ZM139.417 40.1098H137.301L133.885 31.0594H134.469L131.053 40.1098H129.009L133.126 29.6727H135.301L139.417 40.1098Z" fill="#2B313D"/>
<path d="M126.824 37.0735L128.123 38.3873C127.666 38.9712 127.063 39.4432 126.313 39.8032C125.574 40.1633 124.761 40.3433 123.876 40.3433C123.068 40.3433 122.328 40.212 121.657 39.9492C120.985 39.6767 120.401 39.2972 119.905 38.8106C119.419 38.3143 119.039 37.7353 118.767 37.0735C118.504 36.4118 118.372 35.6819 118.372 34.8839C118.372 34.1054 118.509 33.3853 118.781 32.7235C119.063 32.0521 119.453 31.473 119.949 30.9865C120.445 30.4902 121.029 30.1106 121.701 29.8479C122.382 29.5754 123.121 29.4391 123.919 29.4391C124.805 29.4391 125.613 29.6192 126.343 29.9792C127.072 30.3393 127.666 30.8113 128.123 31.3952L126.824 32.7089C126.503 32.2418 126.09 31.872 125.584 31.5995C125.087 31.3173 124.533 31.1762 123.919 31.1762C123.258 31.1762 122.664 31.3368 122.139 31.6579C121.623 31.9791 121.214 32.417 120.912 32.9717C120.611 33.5264 120.46 34.1638 120.46 34.8839C120.46 35.6041 120.611 36.2464 120.912 36.8108C121.214 37.3655 121.623 37.8034 122.139 38.1245C122.664 38.4457 123.258 38.6063 123.919 38.6063C124.533 38.6063 125.087 38.47 125.584 38.1975C126.09 37.9153 126.503 37.5407 126.824 37.0735Z" fill="#2B313D"/>
<path d="M115.88 37.0735L117.179 38.3873C116.722 38.9712 116.119 39.4432 115.369 39.8032C114.63 40.1633 113.817 40.3433 112.932 40.3433C112.124 40.3433 111.384 40.212 110.713 39.9492C110.041 39.6767 109.457 39.2972 108.961 38.8106C108.475 38.3143 108.095 37.7353 107.823 37.0735C107.56 36.4118 107.428 35.6819 107.428 34.8839C107.428 34.1054 107.565 33.3853 107.837 32.7235C108.119 32.0521 108.509 31.473 109.005 30.9865C109.501 30.4902 110.085 30.1106 110.757 29.8479C111.438 29.5754 112.177 29.4391 112.975 29.4391C113.861 29.4391 114.669 29.6192 115.399 29.9792C116.128 30.3393 116.722 30.8113 117.179 31.3952L115.88 32.7089C115.559 32.2418 115.146 31.872 114.639 31.5995C114.143 31.3173 113.588 31.1762 112.975 31.1762C112.314 31.1762 111.72 31.3368 111.194 31.6579C110.679 31.9791 110.27 32.417 109.968 32.9717C109.667 33.5264 109.516 34.1638 109.516 34.8839C109.516 35.6041 109.667 36.2464 109.968 36.8108C110.27 37.3655 110.679 37.8034 111.194 38.1245C111.72 38.4457 112.314 38.6063 112.975 38.6063C113.588 38.6063 114.143 38.47 114.639 38.1975C115.146 37.9153 115.559 37.5407 115.88 37.0735Z" fill="#2B313D"/>
<path d="M104.469 37.818H98.2795V36.1539H104.469V37.818ZM106.6 40.1098H104.483L101.068 31.0594H101.651L98.2357 40.1098H96.1921L100.309 29.6727H102.484L106.6 40.1098Z" fill="#2B313D"/>
<path d="M87.851 40.1098H85.8804V29.6727H87.851V40.1098ZM95.427 40.1098H92.7557L87.4861 34.6942H87.7196L92.3762 29.6727H94.8139L89.8362 34.8985V34.4898L95.427 40.1098Z" fill="#2B313D"/>
</svg>
