<svg width="372" height="372" viewBox="0 0 372 372" fill="none" xmlns="http://www.w3.org/2000/svg">
<g clip-path="url(#clip0_76_5987)">
<rect width="372" height="372" fill="#F5F5F5"/>
<g filter="url(#filter0_d_76_5987)">
<path d="M14 101.477C14 94.0337 20.0337 88 27.4765 88L1046 88C1053.44 88 1059.47 94.0337 1059.47 101.477V255.615C1059.47 263.057 1053.44 269.091 1046 269.091L27.4766 269.091C20.0337 269.091 14 263.057 14 255.615L14 101.477Z" fill="white" shape-rendering="crispEdges"/>
<path fill-rule="evenodd" clip-rule="evenodd" d="M44.9353 123.744H51.4695V125.611H46.8022V146.147H51.4695V148.014H44.9353V123.744Z" fill="#11151D"/>
<path d="M63.3581 146.297C61.999 146.297 60.8141 146.001 59.8035 145.408C58.7928 144.816 58 143.997 57.425 142.952C56.8674 141.906 56.5886 140.713 56.5886 139.371C56.5886 138.081 56.8674 136.766 57.425 135.424C57.9826 134.082 58.8364 132.723 59.9864 131.347C61.1539 129.97 62.6524 128.585 64.482 127.191H67.2786C65.5013 128.533 64.0376 129.77 62.8876 130.902C61.7376 132.018 60.8402 133.081 60.1955 134.091C59.5682 135.102 59.1239 136.112 58.8625 137.123L58.3659 136.862C58.8538 135.886 59.5682 135.102 60.5092 134.509C61.4675 133.9 62.5391 133.595 63.724 133.595C64.8566 133.595 65.9108 133.865 66.8865 134.405C67.8623 134.928 68.6464 135.659 69.2389 136.6C69.8313 137.524 70.1275 138.595 70.1275 139.815C70.1275 141.035 69.8313 142.133 69.2389 143.108C68.6638 144.084 67.8623 144.86 66.8343 145.435C65.8236 146.01 64.6649 146.297 63.3581 146.297ZM63.3581 144.572C64.2641 144.572 65.0744 144.363 65.7888 143.945C66.5032 143.527 67.0695 142.969 67.4877 142.272C67.9059 141.558 68.115 140.756 68.115 139.867C68.115 138.979 67.9059 138.195 67.4877 137.515C67.0695 136.818 66.5032 136.269 65.7888 135.868C65.0744 135.468 64.2641 135.267 63.3581 135.267C62.452 135.267 61.6417 135.468 60.9273 135.868C60.2129 136.269 59.6466 136.818 59.2284 137.515C58.8277 138.195 58.6273 138.979 58.6273 139.867C58.6273 140.756 58.8277 141.558 59.2284 142.272C59.6466 142.969 60.2129 143.527 60.9273 143.945C61.6417 144.363 62.452 144.572 63.3581 144.572ZM79.0543 126.773C80.4134 126.773 81.5983 127.069 82.6089 127.662C83.6195 128.254 84.4036 129.073 84.9612 130.118C85.5362 131.146 85.8237 132.34 85.8237 133.699C85.8237 134.989 85.5449 136.304 84.9873 137.646C84.4472 138.987 83.5934 140.347 82.4259 141.723C81.2585 143.082 79.76 144.468 77.9304 145.879H75.1337C76.9285 144.537 78.3921 143.309 79.5247 142.194C80.6748 141.061 81.5634 139.989 82.1907 138.979C82.8354 137.951 83.2884 136.94 83.5498 135.947L84.0464 136.208C83.5585 137.184 82.8354 137.977 81.8771 138.587C80.9361 139.179 79.8732 139.475 78.6884 139.475C77.5558 139.475 76.5016 139.214 75.5258 138.691C74.55 138.151 73.7659 137.419 73.1735 136.496C72.581 135.555 72.2848 134.475 72.2848 133.255C72.2848 132.035 72.5723 130.937 73.1473 129.962C73.7398 128.986 74.5413 128.21 75.5519 127.635C76.58 127.06 77.7474 126.773 79.0543 126.773ZM79.0543 128.498C78.1482 128.498 77.338 128.707 76.6235 129.125C75.9091 129.526 75.3428 130.084 74.9246 130.798C74.5065 131.512 74.2974 132.314 74.2974 133.203C74.2974 134.074 74.5065 134.858 74.9246 135.555C75.3428 136.252 75.9091 136.801 76.6235 137.201C77.338 137.602 78.1482 137.803 79.0543 137.803C79.9778 137.803 80.788 137.602 81.485 137.201C82.1994 136.801 82.757 136.252 83.1578 135.555C83.5759 134.858 83.785 134.074 83.785 133.203C83.785 132.314 83.5759 131.512 83.1578 130.798C82.757 130.084 82.1994 129.526 81.485 129.125C80.788 128.707 79.9778 128.498 79.0543 128.498ZM95.3655 146.297C94.0587 146.297 92.8912 146.062 91.8632 145.591C90.8351 145.121 90.0249 144.476 89.4324 143.657C88.84 142.821 88.5438 141.871 88.5438 140.808C88.5438 139.78 88.84 138.866 89.4324 138.064C90.0249 137.262 90.8351 136.635 91.8632 136.182C92.8912 135.712 94.0587 135.476 95.3655 135.476C96.6898 135.476 97.8572 135.712 98.8678 136.182C99.8959 136.635 100.706 137.262 101.299 138.064C101.891 138.866 102.187 139.78 102.187 140.808C102.187 141.871 101.891 142.821 101.299 143.657C100.706 144.476 99.8959 145.121 98.8678 145.591C97.8572 146.062 96.6898 146.297 95.3655 146.297ZM95.3655 136.574C94.1806 136.574 93.1264 136.374 92.2029 135.973C91.2794 135.572 90.5476 135.023 90.0075 134.326C89.4847 133.612 89.2233 132.819 89.2233 131.948C89.2233 130.937 89.4847 130.049 90.0075 129.282C90.5476 128.498 91.2794 127.888 92.2029 127.452C93.1264 126.999 94.1806 126.773 95.3655 126.773C96.5504 126.773 97.6046 126.999 98.5281 127.452C99.4516 127.888 100.175 128.498 100.697 129.282C101.238 130.049 101.508 130.937 101.508 131.948C101.508 132.819 101.238 133.612 100.697 134.326C100.175 135.023 99.4516 135.572 98.5281 135.973C97.6046 136.374 96.5504 136.574 95.3655 136.574ZM95.3655 144.598C96.2542 144.598 97.0557 144.433 97.7701 144.102C98.5019 143.771 99.0769 143.317 99.4951 142.742C99.9307 142.167 100.149 141.523 100.149 140.808C100.149 140.077 99.9307 139.432 99.4951 138.874C99.0769 138.299 98.5019 137.846 97.7701 137.515C97.0557 137.184 96.2542 137.019 95.3655 137.019C94.4769 137.019 93.6666 137.184 92.9348 137.515C92.2204 137.846 91.6454 138.299 91.2097 138.874C90.7916 139.432 90.5825 140.077 90.5825 140.808C90.5825 141.523 90.7916 142.167 91.2097 142.742C91.6454 143.317 92.2204 143.771 92.9348 144.102C93.6666 144.433 94.4769 144.598 95.3655 144.598ZM95.3655 135.32C96.1322 135.32 96.8205 135.172 97.4303 134.875C98.0576 134.579 98.5542 134.178 98.9201 133.673C99.286 133.15 99.469 132.575 99.469 131.948C99.469 131.286 99.286 130.693 98.9201 130.171C98.5542 129.648 98.0576 129.238 97.4303 128.942C96.8205 128.629 96.1322 128.472 95.3655 128.472C94.6163 128.472 93.928 128.629 93.3007 128.942C92.6734 129.238 92.1768 129.648 91.8109 130.171C91.445 130.693 91.262 131.286 91.262 131.948C91.262 132.575 91.445 133.15 91.8109 133.673C92.1768 134.178 92.6734 134.579 93.3007 134.875C93.928 135.172 94.6163 135.32 95.3655 135.32ZM111.676 146.297C110.316 146.297 109.132 146.001 108.121 145.408C107.11 144.816 106.317 143.997 105.742 142.952C105.185 141.906 104.906 140.713 104.906 139.371C104.906 138.081 105.185 136.766 105.742 135.424C106.3 134.082 107.154 132.723 108.304 131.347C109.471 129.97 110.97 128.585 112.799 127.191H115.596C113.819 128.533 112.355 129.77 111.205 130.902C110.055 132.018 109.158 133.081 108.513 134.091C107.886 135.102 107.441 136.112 107.18 137.123L106.683 136.862C107.171 135.886 107.886 135.102 108.827 134.509C109.785 133.9 110.857 133.595 112.041 133.595C113.174 133.595 114.228 133.865 115.204 134.405C116.18 134.928 116.964 135.659 117.556 136.6C118.149 137.524 118.445 138.595 118.445 139.815C118.445 141.035 118.149 142.133 117.556 143.108C116.981 144.084 116.18 144.86 115.152 145.435C114.141 146.01 112.982 146.297 111.676 146.297ZM111.676 144.572C112.582 144.572 113.392 144.363 114.106 143.945C114.821 143.527 115.387 142.969 115.805 142.272C116.223 141.558 116.432 140.756 116.432 139.867C116.432 138.979 116.223 138.195 115.805 137.515C115.387 136.818 114.821 136.269 114.106 135.868C113.392 135.468 112.582 135.267 111.676 135.267C110.769 135.267 109.959 135.468 109.245 135.868C108.53 136.269 107.964 136.818 107.546 137.515C107.145 138.195 106.945 138.979 106.945 139.867C106.945 140.756 107.145 141.558 107.546 142.272C107.964 142.969 108.53 143.527 109.245 143.945C109.959 144.363 110.769 144.572 111.676 144.572ZM122.237 141.357C122.847 142.316 123.578 143.1 124.432 143.71C125.286 144.302 126.288 144.598 127.438 144.598C128.344 144.598 129.137 144.389 129.816 143.971C130.496 143.535 131.027 142.952 131.411 142.22C131.811 141.47 132.012 140.643 132.012 139.737C132.012 138.866 131.82 138.099 131.437 137.437C131.053 136.757 130.522 136.226 129.842 135.842C129.18 135.459 128.414 135.267 127.542 135.267C126.601 135.267 125.765 135.494 125.033 135.947C124.319 136.383 123.7 136.984 123.178 137.75L122.367 137.672C122.594 136.818 122.96 136.086 123.465 135.476C123.988 134.867 124.615 134.396 125.347 134.065C126.096 133.734 126.924 133.568 127.83 133.568C129.032 133.568 130.095 133.839 131.019 134.379C131.96 134.901 132.7 135.633 133.24 136.574C133.78 137.498 134.051 138.552 134.051 139.737C134.051 140.991 133.763 142.115 133.188 143.108C132.613 144.102 131.829 144.886 130.836 145.461C129.842 146.018 128.71 146.297 127.438 146.297C126.026 146.297 124.763 145.983 123.648 145.356C122.55 144.711 121.618 143.788 120.851 142.586L122.237 141.357ZM132.796 128.864H123.57L124.223 128.393L123.178 137.75H121.374L122.576 127.191H132.796V128.864ZM149.335 127.191V128.916L139.952 145.879H137.73L147.166 128.916H136.685V127.191H149.335ZM151.786 142.899L153.171 141.619C153.833 142.525 154.617 143.248 155.523 143.788C156.429 144.328 157.457 144.598 158.607 144.598C159.949 144.598 161.021 144.232 161.822 143.5C162.641 142.769 163.051 141.845 163.051 140.73C163.051 139.946 162.841 139.275 162.423 138.717C162.023 138.16 161.465 137.733 160.751 137.437C160.054 137.123 159.261 136.966 158.372 136.966H156.542V135.267H158.372C159.156 135.267 159.862 135.128 160.489 134.849C161.116 134.57 161.613 134.178 161.979 133.673C162.345 133.168 162.528 132.575 162.528 131.896C162.528 130.885 162.171 130.066 161.456 129.439C160.742 128.794 159.801 128.472 158.633 128.472C157.588 128.472 156.656 128.742 155.837 129.282C155.018 129.805 154.303 130.528 153.694 131.451L152.308 130.171C153.11 129.108 154.042 128.28 155.105 127.688C156.168 127.078 157.344 126.773 158.633 126.773C159.801 126.773 160.829 126.999 161.718 127.452C162.606 127.888 163.303 128.498 163.809 129.282C164.314 130.049 164.567 130.92 164.567 131.896C164.567 132.767 164.296 133.551 163.756 134.248C163.234 134.945 162.493 135.494 161.535 135.895C160.594 136.295 159.496 136.496 158.241 136.496L158.503 135.529C159.81 135.529 160.96 135.755 161.953 136.208C162.946 136.661 163.713 137.28 164.253 138.064C164.81 138.831 165.089 139.719 165.089 140.73C165.089 141.775 164.81 142.725 164.253 143.579C163.713 144.415 162.955 145.077 161.979 145.565C161.021 146.053 159.897 146.297 158.607 146.297C157.213 146.297 155.941 146.001 154.791 145.408C153.641 144.799 152.639 143.962 151.786 142.899Z" fill="#11151D"/>
<path fill-rule="evenodd" clip-rule="evenodd" d="M177.471 123.744H170.937V125.611H175.605V146.147H170.937V148.014H177.471V123.744Z" fill="#11151D"/>
<path d="M222.495 132.941C222.055 132.481 221.6 132.007 221.428 131.591C221.269 131.209 221.26 130.577 221.251 129.964C221.233 128.826 221.215 127.535 220.317 126.638C219.42 125.74 218.129 125.722 216.991 125.704C216.378 125.695 215.746 125.686 215.364 125.527C214.949 125.355 214.474 124.9 214.014 124.46C213.209 123.687 212.294 122.811 211.076 122.811C209.858 122.811 208.944 123.687 208.138 124.46C207.678 124.9 207.204 125.355 206.788 125.527C206.409 125.686 205.774 125.695 205.161 125.704C204.023 125.722 202.732 125.74 201.835 126.638C200.937 127.535 200.925 128.826 200.901 129.964C200.892 130.577 200.883 131.209 200.724 131.591C200.552 132.006 200.097 132.481 199.657 132.941C198.884 133.746 198.008 134.661 198.008 135.879C198.008 137.097 198.884 138.011 199.657 138.817C200.097 139.277 200.552 139.75 200.724 140.167C200.883 140.549 200.892 141.181 200.901 141.794C200.919 142.932 200.937 144.223 201.835 145.12C202.732 146.018 204.023 146.036 205.161 146.054C205.774 146.063 206.406 146.072 206.788 146.231C207.203 146.403 207.678 146.858 208.138 147.298C208.943 148.071 209.858 148.947 211.076 148.947C212.294 148.947 213.208 148.071 214.014 147.298C214.474 146.858 214.948 146.403 215.364 146.231C215.746 146.072 216.378 146.063 216.991 146.054C218.129 146.036 219.42 146.018 220.317 145.12C221.215 144.223 221.233 142.932 221.251 141.794C221.26 141.181 221.269 140.549 221.428 140.167C221.6 139.752 222.055 139.277 222.495 138.817C223.268 138.012 224.144 137.097 224.144 135.879C224.144 134.661 223.268 133.747 222.495 132.941ZM216.404 133.739L209.87 140.273C209.783 140.36 209.68 140.429 209.567 140.476C209.453 140.523 209.332 140.547 209.209 140.547C209.086 140.547 208.965 140.523 208.852 140.476C208.738 140.429 208.635 140.36 208.549 140.273L205.748 137.473C205.573 137.298 205.475 137.06 205.475 136.812C205.475 136.565 205.573 136.327 205.748 136.152C205.923 135.977 206.161 135.878 206.409 135.878C206.656 135.878 206.894 135.977 207.069 136.152L209.209 138.293L215.083 132.418C215.17 132.331 215.273 132.263 215.386 132.216C215.499 132.169 215.621 132.145 215.743 132.145C215.866 132.145 215.987 132.169 216.101 132.216C216.214 132.263 216.317 132.331 216.404 132.418C216.49 132.505 216.559 132.608 216.606 132.721C216.653 132.834 216.677 132.956 216.677 133.079C216.677 133.201 216.653 133.323 216.606 133.436C216.559 133.549 216.49 133.652 216.404 133.739Z" fill="#65E94A"/>
<path d="M236.108 145.879H234.095V127.191H236.108V145.879ZM249.359 145.879H246.275L235.48 136.182H235.846L245.543 127.191H248.261L237.963 136.522V135.842L249.359 145.879ZM256.303 146.297C254.997 146.297 253.829 146.001 252.801 145.408C251.773 144.816 250.963 144.006 250.37 142.978C249.795 141.95 249.508 140.774 249.508 139.449C249.508 138.125 249.795 136.949 250.37 135.921C250.963 134.893 251.773 134.082 252.801 133.49C253.829 132.898 254.997 132.601 256.303 132.601C257.628 132.601 258.795 132.898 259.806 133.49C260.834 134.082 261.635 134.893 262.21 135.921C262.803 136.949 263.099 138.125 263.099 139.449C263.099 140.774 262.803 141.95 262.21 142.978C261.635 144.006 260.834 144.816 259.806 145.408C258.795 146.001 257.628 146.297 256.303 146.297ZM256.303 144.598C257.244 144.598 258.072 144.38 258.786 143.945C259.501 143.509 260.058 142.908 260.459 142.141C260.86 141.357 261.06 140.46 261.06 139.449C261.06 138.439 260.86 137.55 260.459 136.783C260.058 135.999 259.501 135.389 258.786 134.954C258.072 134.518 257.244 134.3 256.303 134.3C255.362 134.3 254.535 134.518 253.82 134.954C253.106 135.389 252.548 135.999 252.148 136.783C251.747 137.55 251.547 138.439 251.547 139.449C251.547 140.46 251.747 141.357 252.148 142.141C252.548 142.908 253.106 143.509 253.82 143.945C254.535 144.38 255.362 144.598 256.303 144.598ZM264.869 145.356V144.232H265.392C265.74 144.232 266.01 144.154 266.202 143.997C266.411 143.823 266.568 143.544 266.673 143.161C266.795 142.777 266.89 142.255 266.96 141.592L267.979 133.02H276.866V145.095H274.932V133.412L276.291 134.666H268.267L269.835 133.412L268.79 141.749C268.685 142.638 268.52 143.344 268.293 143.866C268.067 144.389 267.744 144.772 267.326 145.016C266.925 145.243 266.368 145.356 265.653 145.356H264.869ZM264.346 149.224V144.232H278.696V149.224H276.866V144.494L278.225 145.879H265.418L266.176 144.494V149.224H264.346ZM286.666 145.879V133.02H298.035V145.879H296.101V133.412L297.46 134.666H286.98L288.6 133.412V145.879H286.666ZM304.144 150.949H302.21V133.02H304.118V136.914H303.648C303.804 136.06 304.144 135.311 304.667 134.666C305.207 134.021 305.869 133.516 306.653 133.15C307.455 132.784 308.317 132.601 309.241 132.601C310.496 132.601 311.611 132.906 312.586 133.516C313.562 134.109 314.32 134.919 314.86 135.947C315.418 136.975 315.697 138.142 315.697 139.449C315.697 140.774 315.409 141.95 314.834 142.978C314.277 144.006 313.493 144.816 312.482 145.408C311.489 146.001 310.347 146.297 309.058 146.297C307.891 146.297 306.863 146.062 305.974 145.591C305.103 145.104 304.44 144.45 303.987 143.631C303.552 142.795 303.395 141.863 303.517 140.834L303.883 140.312C303.953 141.131 304.214 141.871 304.667 142.533C305.12 143.178 305.712 143.683 306.444 144.049C307.176 144.415 307.978 144.598 308.849 144.598C309.807 144.598 310.644 144.38 311.358 143.945C312.072 143.492 312.63 142.882 313.031 142.115C313.449 141.331 313.658 140.442 313.658 139.449C313.658 138.456 313.458 137.576 313.057 136.809C312.674 136.025 312.133 135.415 311.436 134.98C310.739 134.527 309.929 134.3 309.006 134.3C308.065 134.3 307.228 134.536 306.497 135.006C305.765 135.476 305.19 136.13 304.772 136.966C304.353 137.785 304.144 138.744 304.144 139.841V150.949ZM324.938 146.297C323.631 146.297 322.464 146.001 321.436 145.408C320.408 144.816 319.598 144.006 319.005 142.978C318.43 141.95 318.143 140.774 318.143 139.449C318.143 138.125 318.43 136.949 319.005 135.921C319.598 134.893 320.408 134.082 321.436 133.49C322.464 132.898 323.631 132.601 324.938 132.601C326.262 132.601 327.43 132.898 328.441 133.49C329.469 134.082 330.27 134.893 330.845 135.921C331.438 136.949 331.734 138.125 331.734 139.449C331.734 140.774 331.438 141.95 330.845 142.978C330.27 144.006 329.469 144.816 328.441 145.408C327.43 146.001 326.262 146.297 324.938 146.297ZM324.938 144.598C325.879 144.598 326.707 144.38 327.421 143.945C328.136 143.509 328.693 142.908 329.094 142.141C329.495 141.357 329.695 140.46 329.695 139.449C329.695 138.439 329.495 137.55 329.094 136.783C328.693 135.999 328.136 135.389 327.421 134.954C326.707 134.518 325.879 134.3 324.938 134.3C323.997 134.3 323.17 134.518 322.455 134.954C321.741 135.389 321.183 135.999 320.782 136.783C320.382 137.55 320.181 138.439 320.181 139.449C320.181 140.46 320.382 141.357 320.782 142.141C321.183 142.908 321.741 143.509 322.455 143.945C323.17 144.38 323.997 144.598 324.938 144.598ZM335.06 145.879V133.02H341.594C342.884 133.02 343.912 133.333 344.678 133.96C345.445 134.57 345.828 135.389 345.828 136.417C345.828 137.062 345.637 137.628 345.253 138.116C344.87 138.604 344.347 138.979 343.685 139.24L343.659 139.005C344.478 139.231 345.14 139.615 345.645 140.155C346.168 140.678 346.429 141.331 346.429 142.115C346.429 142.83 346.212 143.474 345.776 144.049C345.358 144.624 344.783 145.077 344.051 145.408C343.337 145.722 342.544 145.879 341.673 145.879H335.06ZM336.994 145.461L335.792 144.232H341.673C342.509 144.232 343.171 144.049 343.659 143.683C344.147 143.3 344.391 142.777 344.391 142.115C344.391 141.453 344.147 140.939 343.659 140.573C343.171 140.19 342.509 139.998 341.673 139.998H336.079V138.351H341.594C342.396 138.351 342.962 138.177 343.293 137.829C343.624 137.48 343.79 137.01 343.79 136.417C343.79 135.842 343.624 135.407 343.293 135.111C342.962 134.814 342.396 134.666 341.594 134.666H335.818L336.994 133.438V145.461ZM359.965 142.22L361.324 143.5C360.645 144.372 359.826 145.06 358.867 145.565C357.909 146.053 356.811 146.297 355.574 146.297C354.215 146.297 352.995 146.001 351.915 145.408C350.852 144.816 350.016 144.006 349.406 142.978C348.796 141.95 348.491 140.774 348.491 139.449C348.491 138.125 348.778 136.949 349.353 135.921C349.946 134.893 350.756 134.082 351.784 133.49C352.812 132.898 353.98 132.601 355.287 132.601C356.541 132.601 357.648 132.898 358.606 133.49C359.582 134.065 360.348 134.858 360.906 135.868C361.464 136.879 361.742 138.047 361.742 139.371V139.528H359.756V139.371C359.756 138.36 359.556 137.48 359.155 136.731C358.771 135.964 358.24 135.372 357.56 134.954C356.898 134.518 356.14 134.3 355.287 134.3C354.346 134.3 353.518 134.518 352.804 134.954C352.089 135.389 351.532 135.99 351.131 136.757C350.73 137.524 350.53 138.412 350.53 139.423C350.53 140.434 350.747 141.331 351.183 142.115C351.619 142.899 352.211 143.509 352.96 143.945C353.727 144.38 354.607 144.598 355.6 144.598C357.412 144.598 358.867 143.805 359.965 142.22ZM361.742 140.129H350.111V138.534H361.324L361.742 139.371V140.129ZM366.985 150.949H365.051V133.02H366.959V136.914H366.488C366.645 136.06 366.985 135.311 367.508 134.666C368.048 134.021 368.71 133.516 369.494 133.15C370.296 132.784 371.158 132.601 372.082 132.601C373.336 132.601 374.451 132.906 375.427 133.516C376.403 134.109 377.161 134.919 377.701 135.947C378.259 136.975 378.538 138.142 378.538 139.449C378.538 140.774 378.25 141.95 377.675 142.978C377.117 144.006 376.333 144.816 375.323 145.408C374.329 146.001 373.188 146.297 371.899 146.297C370.731 146.297 369.703 146.062 368.815 145.591C367.943 145.104 367.281 144.45 366.828 143.631C366.393 142.795 366.236 141.863 366.358 140.834L366.724 140.312C366.793 141.131 367.055 141.871 367.508 142.533C367.961 143.178 368.553 143.683 369.285 144.049C370.017 144.415 370.818 144.598 371.69 144.598C372.648 144.598 373.484 144.38 374.199 143.945C374.913 143.492 375.471 142.882 375.872 142.115C376.29 141.331 376.499 140.442 376.499 139.449C376.499 138.456 376.298 137.576 375.898 136.809C375.514 136.025 374.974 135.415 374.277 134.98C373.58 134.527 372.77 134.3 371.846 134.3C370.906 134.3 370.069 134.536 369.337 135.006C368.606 135.476 368.031 136.13 367.612 136.966C367.194 137.785 366.985 138.744 366.985 139.841V150.949ZM392.457 142.22L393.817 143.5C393.137 144.372 392.318 145.06 391.36 145.565C390.401 146.053 389.304 146.297 388.066 146.297C386.707 146.297 385.488 146.001 384.407 145.408C383.344 144.816 382.508 144.006 381.898 142.978C381.288 141.95 380.983 140.774 380.983 139.449C380.983 138.125 381.271 136.949 381.846 135.921C382.438 134.893 383.249 134.082 384.277 133.49C385.305 132.898 386.472 132.601 387.779 132.601C389.034 132.601 390.14 132.898 391.098 133.49C392.074 134.065 392.841 134.858 393.398 135.868C393.956 136.879 394.235 138.047 394.235 139.371V139.528H392.248V139.371C392.248 138.36 392.048 137.48 391.647 136.731C391.264 135.964 390.732 135.372 390.053 134.954C389.391 134.518 388.633 134.3 387.779 134.3C386.838 134.3 386.01 134.518 385.296 134.954C384.582 135.389 384.024 135.99 383.623 136.757C383.222 137.524 383.022 138.412 383.022 139.423C383.022 140.434 383.24 141.331 383.675 142.115C384.111 142.899 384.704 143.509 385.453 143.945C386.219 144.38 387.099 144.598 388.093 144.598C389.905 144.598 391.36 143.805 392.457 142.22ZM394.235 140.129H382.604V138.534H393.817L394.235 139.371V140.129ZM407.475 145.879V133.02H409.409V145.879H407.475ZM397.543 145.879V133.02H399.477V145.879H397.543ZM398.484 139.946V138.299H408.547V139.946H398.484Z" fill="#8A8A8A"/>
<path d="M63.9928 184.983L65.9941 186.925C65.0582 188.16 63.8435 189.145 62.3499 189.882C60.8564 190.599 59.2135 190.957 57.4213 190.957C55.8481 190.957 54.3944 190.679 53.0601 190.121C51.7458 189.563 50.6008 188.787 49.625 187.791C48.6492 186.776 47.8825 185.591 47.325 184.237C46.7873 182.882 46.5184 181.409 46.5184 179.816C46.5184 178.223 46.7972 176.749 47.3548 175.395C47.9124 174.021 48.6791 172.836 49.6549 171.84C50.6506 170.825 51.8155 170.038 53.1497 169.48C54.484 168.923 55.9377 168.644 57.5109 168.644C59.2832 168.644 60.9062 169.012 62.3798 169.749C63.8534 170.466 65.0582 171.442 65.9941 172.677L63.9928 174.618C63.2759 173.583 62.3698 172.756 61.2746 172.139C60.1793 171.522 58.9247 171.213 57.5109 171.213C55.9974 171.213 54.6333 171.591 53.4186 172.348C52.2238 173.085 51.2778 174.1 50.5809 175.395C49.8839 176.669 49.5354 178.143 49.5354 179.816C49.5354 181.449 49.8839 182.912 50.5809 184.207C51.2778 185.501 52.2238 186.527 53.4186 187.283C54.6333 188.02 55.9974 188.389 57.5109 188.389C58.9247 188.389 60.1793 188.08 61.2746 187.463C62.3698 186.845 63.2759 186.019 63.9928 184.983ZM79.7237 175.664H82.5614L75.1833 192.839C74.7253 193.935 74.1379 194.781 73.421 195.378C72.724 195.976 71.7183 196.274 70.404 196.274H68.791V193.944H70.3443C70.9616 193.944 71.4694 193.785 71.8677 193.467C72.2859 193.168 72.6244 192.72 72.8833 192.122L73.5106 190.539L67.1183 175.664H70.0755L75.4223 188.956H74.347L79.7237 175.664ZM85.3898 190.479V175.664H88.4665L94.2913 186.596H93.7835L99.5784 175.664H102.745V190.479H100.146V176.619L101.43 176.978L95.0081 189.076H92.9172L86.5249 176.978L87.9288 176.649V190.479H85.3898ZM117.392 190.479L109.298 182.803H109.596L116.915 175.664H120.469L112.524 183.4L111.956 181.847L121.186 190.479H117.392ZM107.326 190.479V175.664H110.104V190.479H107.326ZM135.889 190.479H133.29V187.552L133.2 186.835V181.309C133.2 180.134 132.822 179.208 132.065 178.531C131.308 177.834 130.283 177.486 128.988 177.486C128.052 177.486 127.196 177.685 126.42 178.083C125.643 178.462 124.966 178.989 124.388 179.666L122.656 177.874C123.472 177.018 124.408 176.361 125.464 175.903C126.539 175.425 127.734 175.186 129.048 175.186C130.402 175.186 131.587 175.435 132.603 175.932C133.638 176.43 134.445 177.127 135.022 178.023C135.6 178.9 135.889 179.965 135.889 181.22V190.479ZM127.823 190.957C126.708 190.957 125.723 190.758 124.866 190.36C124.01 189.942 123.343 189.374 122.865 188.657C122.387 187.94 122.148 187.124 122.148 186.208C122.148 185.172 122.437 184.296 123.014 183.579C123.612 182.843 124.428 182.285 125.464 181.907C126.499 181.508 127.684 181.309 129.018 181.309H133.529V183.37H129.317C128.062 183.37 127.027 183.599 126.21 184.057C125.414 184.495 125.016 185.182 125.016 186.118C125.016 186.915 125.314 187.552 125.912 188.03C126.529 188.508 127.326 188.747 128.301 188.747C129.257 188.747 130.123 188.558 130.9 188.179C131.677 187.801 132.294 187.273 132.752 186.596C133.23 185.899 133.499 185.103 133.559 184.207L134.544 184.744C134.544 185.939 134.256 187.005 133.678 187.94C133.101 188.876 132.304 189.613 131.288 190.151C130.293 190.689 129.138 190.957 127.823 190.957ZM163.128 190.479L155.87 182.803H156.169L162.949 175.664H166.355L159.454 182.922L166.713 190.479H163.128ZM143.862 190.479L151.12 182.922L144.25 175.664H147.655L154.406 182.803H154.705L147.476 190.479H143.862ZM153.898 190.479V175.664H156.647V190.479H153.898ZM180.483 186.118L182.215 187.911C181.439 188.866 180.483 189.613 179.348 190.151C178.232 190.689 176.968 190.957 175.554 190.957C173.941 190.957 172.507 190.619 171.253 189.942C169.998 189.265 169.012 188.339 168.295 187.164C167.598 185.969 167.25 184.605 167.25 183.072C167.25 181.538 167.588 180.184 168.266 179.009C168.943 177.814 169.879 176.878 171.073 176.201C172.268 175.524 173.612 175.186 175.106 175.186C176.56 175.186 177.844 175.524 178.959 176.201C180.094 176.858 180.981 177.774 181.618 178.949C182.275 180.104 182.603 181.449 182.603 182.982V183.161H179.796V182.892C179.796 181.817 179.597 180.881 179.198 180.084C178.8 179.268 178.242 178.641 177.525 178.203C176.828 177.745 176.022 177.516 175.106 177.516C174.13 177.516 173.264 177.745 172.507 178.203C171.75 178.661 171.163 179.308 170.745 180.144C170.327 180.961 170.118 181.927 170.118 183.042C170.118 184.157 170.347 185.143 170.805 185.999C171.282 186.835 171.94 187.482 172.776 187.94C173.612 188.399 174.568 188.628 175.644 188.628C177.615 188.628 179.228 187.791 180.483 186.118ZM182.603 183.998H169.311V181.936H182.126L182.603 182.982V183.998ZM197.345 190.479V175.664H200.123V190.479H197.345ZM186.203 190.479V175.664H188.981V190.479H186.203ZM187.548 183.848V181.548H198.898V183.848H187.548ZM215.959 186.268L217.841 188.06C217.124 188.956 216.238 189.663 215.183 190.181C214.127 190.699 212.933 190.957 211.598 190.957C210.085 190.957 208.731 190.619 207.536 189.942C206.361 189.265 205.435 188.339 204.758 187.164C204.081 185.969 203.742 184.605 203.742 183.072C203.742 181.558 204.081 180.214 204.758 179.039C205.435 177.844 206.371 176.908 207.566 176.231C208.781 175.534 210.145 175.186 211.658 175.186C212.972 175.186 214.147 175.445 215.183 175.962C216.238 176.48 217.124 177.187 217.841 178.083L215.959 179.875C215.501 179.178 214.924 178.621 214.227 178.203C213.53 177.784 212.694 177.575 211.718 177.575C210.722 177.575 209.836 177.814 209.059 178.292C208.303 178.75 207.705 179.397 207.267 180.234C206.849 181.05 206.64 181.996 206.64 183.072C206.64 184.147 206.849 185.103 207.267 185.939C207.705 186.756 208.303 187.403 209.059 187.881C209.836 188.339 210.722 188.568 211.718 188.568C212.714 188.568 213.55 188.359 214.227 187.94C214.924 187.522 215.501 186.965 215.959 186.268ZM231.216 190.479L223.121 182.803H223.42L230.738 175.664H234.293L226.347 183.4L225.78 181.847L235.01 190.479H231.216ZM221.15 190.479V175.664H223.928V190.479H221.15ZM249.712 190.479H247.113V187.552L247.024 186.835V181.309C247.024 180.134 246.645 179.208 245.889 178.531C245.132 177.834 244.106 177.486 242.812 177.486C241.876 177.486 241.02 177.685 240.243 178.083C239.467 178.462 238.789 178.989 238.212 179.666L236.479 177.874C237.296 177.018 238.232 176.361 239.287 175.903C240.363 175.425 241.557 175.186 242.872 175.186C244.226 175.186 245.411 175.435 246.426 175.932C247.462 176.43 248.268 177.127 248.846 178.023C249.423 178.9 249.712 179.965 249.712 181.22V190.479ZM241.647 190.957C240.532 190.957 239.546 190.758 238.69 190.36C237.834 189.942 237.167 189.374 236.689 188.657C236.211 187.94 235.972 187.124 235.972 186.208C235.972 185.172 236.26 184.296 236.838 183.579C237.435 182.843 238.252 182.285 239.287 181.907C240.323 181.508 241.508 181.309 242.842 181.309H247.352V183.37H243.141C241.886 183.37 240.851 183.599 240.034 184.057C239.238 184.495 238.839 185.182 238.839 186.118C238.839 186.915 239.138 187.552 239.735 188.03C240.353 188.508 241.149 188.747 242.125 188.747C243.081 188.747 243.947 188.558 244.724 188.179C245.5 187.801 246.118 187.273 246.576 186.596C247.054 185.899 247.323 185.103 247.382 184.207L248.368 184.744C248.368 185.939 248.079 187.005 247.502 187.94C246.924 188.876 246.128 189.613 245.112 190.151C244.116 190.689 242.961 190.957 241.647 190.957ZM263.262 190.479V176.082L265.024 177.904H259.14C258.363 177.904 257.686 178.093 257.109 178.471C256.531 178.83 256.242 179.427 256.242 180.264C256.242 181.02 256.501 181.608 257.019 182.026C257.537 182.444 258.254 182.653 259.17 182.653H264.576V184.804H258.991C257.318 184.804 255.974 184.396 254.958 183.579C253.942 182.743 253.435 181.638 253.435 180.264C253.435 179.388 253.674 178.611 254.151 177.934C254.649 177.237 255.316 176.689 256.153 176.291C257.009 175.873 257.965 175.664 259.02 175.664H265.921V190.479H263.262ZM252.748 190.479L258.035 183.729H260.992L255.974 190.479H252.748ZM276.431 190.479V169.122H284.735C286.129 169.122 287.334 169.361 288.349 169.839C289.385 170.297 290.181 170.944 290.739 171.78C291.316 172.617 291.605 173.603 291.605 174.738C291.605 175.773 291.316 176.699 290.739 177.516C290.181 178.312 289.385 178.939 288.349 179.397C287.334 179.836 286.129 180.055 284.735 180.055H279.597V178.591H285.273C286.726 178.591 287.991 178.83 289.066 179.308C290.161 179.786 291.008 180.463 291.605 181.339C292.222 182.195 292.531 183.221 292.531 184.416C292.531 185.63 292.222 186.696 291.605 187.612C291.008 188.528 290.161 189.235 289.066 189.733C287.991 190.231 286.726 190.479 285.273 190.479H276.431ZM279.298 188H285.302C286.637 188 287.682 187.682 288.439 187.044C289.215 186.407 289.604 185.511 289.604 184.356C289.604 183.201 289.215 182.305 288.439 181.668C287.682 181.03 286.637 180.712 285.302 180.712H279V178.292H284.675C285.91 178.292 286.886 177.994 287.602 177.396C288.319 176.779 288.678 175.942 288.678 174.887C288.678 173.871 288.319 173.075 287.602 172.497C286.886 171.9 285.91 171.601 284.675 171.601H279.298V188ZM308.929 190.479H306.33V187.552L306.24 186.835V181.309C306.24 180.134 305.862 179.208 305.105 178.531C304.348 177.834 303.323 177.486 302.028 177.486C301.092 177.486 300.236 177.685 299.459 178.083C298.683 178.462 298.006 178.989 297.428 179.666L295.696 177.874C296.512 177.018 297.448 176.361 298.504 175.903C299.579 175.425 300.774 175.186 302.088 175.186C303.442 175.186 304.627 175.435 305.643 175.932C306.678 176.43 307.485 177.127 308.062 178.023C308.64 178.9 308.929 179.965 308.929 181.22V190.479ZM300.863 190.957C299.748 190.957 298.763 190.758 297.906 190.36C297.05 189.942 296.383 189.374 295.905 188.657C295.427 187.94 295.188 187.124 295.188 186.208C295.188 185.172 295.477 184.296 296.054 183.579C296.652 182.843 297.468 182.285 298.504 181.907C299.539 181.508 300.724 181.309 302.058 181.309H306.569V183.37H302.357C301.102 183.37 300.067 183.599 299.25 184.057C298.454 184.495 298.056 185.182 298.056 186.118C298.056 186.915 298.354 187.552 298.952 188.03C299.569 188.508 300.366 188.747 301.341 188.747C302.297 188.747 303.163 188.558 303.94 188.179C304.717 187.801 305.334 187.273 305.792 186.596C306.27 185.899 306.539 185.103 306.599 184.207L307.584 184.744C307.584 185.939 307.296 187.005 306.718 187.94C306.141 188.876 305.344 189.613 304.328 190.151C303.333 190.689 302.178 190.957 300.863 190.957ZM315.429 190.479H312.651V168.973H315.429V190.479ZM331.966 186.118L333.698 187.911C332.921 188.866 331.966 189.613 330.83 190.151C329.715 190.689 328.451 190.957 327.037 190.957C325.424 190.957 323.99 190.619 322.736 189.942C321.481 189.265 320.495 188.339 319.778 187.164C319.081 185.969 318.733 184.605 318.733 183.072C318.733 181.538 319.071 180.184 319.748 179.009C320.426 177.814 321.361 176.878 322.556 176.201C323.751 175.524 325.095 175.186 326.589 175.186C328.043 175.186 329.327 175.524 330.442 176.201C331.577 176.858 332.463 177.774 333.101 178.949C333.758 180.104 334.086 181.449 334.086 182.982V183.161H331.279V182.892C331.279 181.817 331.079 180.881 330.681 180.084C330.283 179.268 329.725 178.641 329.008 178.203C328.311 177.745 327.505 177.516 326.589 177.516C325.613 177.516 324.747 177.745 323.99 178.203C323.233 178.661 322.646 179.308 322.228 180.144C321.81 180.961 321.6 181.927 321.6 183.042C321.6 184.157 321.829 185.143 322.287 185.999C322.765 186.835 323.423 187.482 324.259 187.94C325.095 188.399 326.051 188.628 327.127 188.628C329.098 188.628 330.711 187.791 331.966 186.118ZM334.086 183.998H320.794V181.936H333.608L334.086 182.982V183.998ZM351.248 190.479H348.47V181.936C348.47 180.483 348.141 179.397 347.484 178.681C346.827 177.944 345.941 177.575 344.825 177.575C344.029 177.575 343.272 177.784 342.555 178.203C341.838 178.621 341.261 179.278 340.823 180.174C340.385 181.07 340.166 182.225 340.166 183.639V190.479H337.388V175.664H340.136V180.204H339.717C339.937 178.949 340.335 177.964 340.912 177.247C341.49 176.51 342.177 175.982 342.973 175.664C343.77 175.345 344.596 175.186 345.453 175.186C347.245 175.186 348.659 175.743 349.694 176.858C350.73 177.954 351.248 179.547 351.248 181.638V190.479ZM366.567 186.268L368.449 188.06C367.732 188.956 366.846 189.663 365.791 190.181C364.735 190.699 363.54 190.957 362.206 190.957C360.693 190.957 359.339 190.619 358.144 189.942C356.969 189.265 356.043 188.339 355.366 187.164C354.689 185.969 354.35 184.605 354.35 183.072C354.35 181.558 354.689 180.214 355.366 179.039C356.043 177.844 356.979 176.908 358.174 176.231C359.388 175.534 360.752 175.186 362.266 175.186C363.58 175.186 364.755 175.445 365.791 175.962C366.846 176.48 367.732 177.187 368.449 178.083L366.567 179.875C366.109 179.178 365.532 178.621 364.835 178.203C364.138 177.784 363.301 177.575 362.326 177.575C361.33 177.575 360.444 177.814 359.667 178.292C358.91 178.75 358.313 179.397 357.875 180.234C357.457 181.05 357.248 181.996 357.248 183.072C357.248 184.147 357.457 185.103 357.875 185.939C358.313 186.756 358.91 187.403 359.667 187.881C360.444 188.339 361.33 188.568 362.326 188.568C363.321 188.568 364.158 188.359 364.835 187.94C365.532 187.522 366.109 186.965 366.567 186.268ZM374.237 190.479H371.459V175.664H374.237V190.479ZM372.863 172.169C372.345 172.169 371.897 171.999 371.519 171.661C371.16 171.303 370.981 170.864 370.981 170.347C370.981 169.829 371.16 169.391 371.519 169.032C371.897 168.674 372.345 168.495 372.863 168.495C373.381 168.495 373.819 168.674 374.177 169.032C374.536 169.391 374.715 169.829 374.715 170.347C374.715 170.864 374.536 171.303 374.177 171.661C373.819 171.999 373.381 172.169 372.863 172.169ZM391.102 190.479H388.503V187.552L388.414 186.835V181.309C388.414 180.134 388.035 179.208 387.279 178.531C386.522 177.834 385.496 177.486 384.202 177.486C383.266 177.486 382.41 177.685 381.633 178.083C380.856 178.462 380.179 178.989 379.602 179.666L377.869 177.874C378.686 177.018 379.622 176.361 380.677 175.903C381.753 175.425 382.947 175.186 384.262 175.186C385.616 175.186 386.801 175.435 387.816 175.932C388.852 176.43 389.658 177.127 390.236 178.023C390.813 178.9 391.102 179.965 391.102 181.22V190.479ZM383.037 190.957C381.922 190.957 380.936 190.758 380.08 190.36C379.223 189.942 378.556 189.374 378.078 188.657C377.601 187.94 377.362 187.124 377.362 186.208C377.362 185.172 377.65 184.296 378.228 183.579C378.825 182.843 379.642 182.285 380.677 181.907C381.713 181.508 382.898 181.309 384.232 181.309H388.742V183.37H384.531C383.276 183.37 382.24 183.599 381.424 184.057C380.627 184.495 380.229 185.182 380.229 186.118C380.229 186.915 380.528 187.552 381.125 188.03C381.743 188.508 382.539 188.747 383.515 188.747C384.471 188.747 385.337 188.558 386.114 188.179C386.89 187.801 387.508 187.273 387.966 186.596C388.444 185.899 388.712 185.103 388.772 184.207L389.758 184.744C389.758 185.939 389.469 187.005 388.892 187.94C388.314 188.876 387.518 189.613 386.502 190.151C385.506 190.689 384.351 190.957 383.037 190.957ZM409.969 189.046C409.969 190.559 409.62 191.893 408.923 193.048C408.246 194.203 407.31 195.109 406.116 195.767C404.921 196.424 403.547 196.752 401.993 196.752C400.58 196.752 399.295 196.503 398.14 196.006C396.985 195.528 396.029 194.861 395.273 194.004L397.005 192.152C397.563 192.849 398.24 193.397 399.036 193.795C399.853 194.193 400.819 194.393 401.934 194.393C402.989 194.393 403.905 194.164 404.682 193.706C405.478 193.267 406.096 192.65 406.534 191.854C406.972 191.077 407.191 190.161 407.191 189.105V183.4C407.191 182.126 406.952 181.06 406.474 180.204C405.996 179.348 405.369 178.7 404.592 178.262C403.835 177.804 403.009 177.575 402.113 177.575C401.137 177.575 400.261 177.814 399.484 178.292C398.728 178.77 398.14 179.417 397.722 180.234C397.304 181.03 397.095 181.936 397.095 182.952C397.095 183.988 397.304 184.904 397.722 185.7C398.16 186.497 398.757 187.124 399.514 187.582C400.291 188.02 401.197 188.239 402.232 188.239C403.148 188.239 403.985 188.05 404.742 187.672C405.498 187.293 406.116 186.776 406.594 186.118C407.091 185.441 407.38 184.675 407.46 183.818L408.027 184.386C408.167 185.581 407.968 186.646 407.43 187.582C406.912 188.518 406.155 189.265 405.16 189.822C404.184 190.36 403.049 190.629 401.754 190.629C400.321 190.629 399.026 190.31 397.871 189.673C396.736 189.016 395.84 188.11 395.183 186.955C394.526 185.78 394.197 184.446 394.197 182.952C394.197 181.439 394.526 180.104 395.183 178.949C395.86 177.774 396.756 176.858 397.871 176.201C399.006 175.524 400.271 175.186 401.665 175.186C402.68 175.186 403.616 175.375 404.473 175.753C405.349 176.132 406.086 176.699 406.683 177.456C407.281 178.193 407.669 179.109 407.848 180.204H407.221V175.664H409.969V189.046ZM426.836 190.479H424.237V187.552L424.148 186.835V181.309C424.148 180.134 423.769 179.208 423.013 178.531C422.256 177.834 421.23 177.486 419.936 177.486C419 177.486 418.144 177.685 417.367 178.083C416.59 178.462 415.913 178.989 415.336 179.666L413.603 177.874C414.42 177.018 415.356 176.361 416.411 175.903C417.487 175.425 418.681 175.186 419.996 175.186C421.35 175.186 422.535 175.435 423.55 175.932C424.586 176.43 425.392 177.127 425.97 178.023C426.547 178.9 426.836 179.965 426.836 181.22V190.479ZM418.771 190.957C417.656 190.957 416.67 190.758 415.814 190.36C414.957 189.942 414.29 189.374 413.812 188.657C413.334 187.94 413.096 187.124 413.096 186.208C413.096 185.172 413.384 184.296 413.962 183.579C414.559 182.843 415.376 182.285 416.411 181.907C417.447 181.508 418.632 181.309 419.966 181.309H424.476V183.37H420.264C419.01 183.37 417.974 183.599 417.158 184.057C416.361 184.495 415.963 185.182 415.963 186.118C415.963 186.915 416.262 187.552 416.859 188.03C417.477 188.508 418.273 188.747 419.249 188.747C420.205 188.747 421.071 188.558 421.848 188.179C422.624 187.801 423.242 187.273 423.7 186.596C424.178 185.899 424.446 185.103 424.506 184.207L425.492 184.744C425.492 185.939 425.203 187.005 424.626 187.94C424.048 188.876 423.252 189.613 422.236 190.151C421.24 190.689 420.085 190.957 418.771 190.957ZM450.342 190.479H436.811V169.122H439.678V187.94H450.342V190.479ZM468.216 190.479H453.788V169.122H468.216V171.601H456.656V188H468.216V190.479ZM467.648 180.831H456.357V178.352H467.648V180.831ZM494.463 184.983L496.465 186.925C495.529 188.16 494.314 189.145 492.82 189.882C491.327 190.599 489.684 190.957 487.892 190.957C486.319 190.957 484.865 190.679 483.531 190.121C482.216 189.563 481.071 188.787 480.095 187.791C479.12 186.776 478.353 185.591 477.795 184.237C477.258 182.882 476.989 181.409 476.989 179.816C476.989 178.223 477.268 176.749 477.825 175.395C478.383 174.021 479.15 172.836 480.125 171.84C481.121 170.825 482.286 170.038 483.62 169.48C484.954 168.923 486.408 168.644 487.981 168.644C489.754 168.644 491.377 169.012 492.85 169.749C494.324 170.466 495.529 171.442 496.465 172.677L494.463 174.618C493.746 173.583 492.84 172.756 491.745 172.139C490.65 171.522 489.395 171.213 487.981 171.213C486.468 171.213 485.104 171.591 483.889 172.348C482.694 173.085 481.748 174.1 481.051 175.395C480.354 176.669 480.006 178.143 480.006 179.816C480.006 181.449 480.354 182.912 481.051 184.207C481.748 185.501 482.694 186.527 483.889 187.283C485.104 188.02 486.468 188.389 487.981 188.389C489.395 188.389 490.65 188.08 491.745 187.463C492.84 186.845 493.746 186.019 494.463 184.983ZM512.51 190.479H509.911V187.552L509.822 186.835V181.309C509.822 180.134 509.443 179.208 508.687 178.531C507.93 177.834 506.904 177.486 505.61 177.486C504.674 177.486 503.818 177.685 503.041 178.083C502.264 178.462 501.587 178.989 501.01 179.666L499.277 177.874C500.094 177.018 501.03 176.361 502.085 175.903C503.161 175.425 504.355 175.186 505.67 175.186C507.024 175.186 508.209 175.435 509.224 175.932C510.26 176.43 511.066 177.127 511.644 178.023C512.221 178.9 512.51 179.965 512.51 181.22V190.479ZM504.445 190.957C503.33 190.957 502.344 190.758 501.488 190.36C500.632 189.942 499.964 189.374 499.486 188.657C499.009 187.94 498.77 187.124 498.77 186.208C498.77 185.172 499.058 184.296 499.636 183.579C500.233 182.843 501.05 182.285 502.085 181.907C503.121 181.508 504.306 181.309 505.64 181.309H510.15V183.37H505.939C504.684 183.37 503.648 183.599 502.832 184.057C502.035 184.495 501.637 185.182 501.637 186.118C501.637 186.915 501.936 187.552 502.533 188.03C503.151 188.508 503.947 188.747 504.923 188.747C505.879 188.747 506.745 188.558 507.522 188.179C508.298 187.801 508.916 187.273 509.374 186.596C509.852 185.899 510.12 185.103 510.18 184.207L511.166 184.744C511.166 185.939 510.877 187.005 510.3 187.94C509.722 188.876 508.926 189.613 507.91 190.151C506.914 190.689 505.759 190.957 504.445 190.957ZM531.377 189.046C531.377 190.559 531.028 191.893 530.331 193.048C529.654 194.203 528.718 195.109 527.524 195.767C526.329 196.424 524.955 196.752 523.401 196.752C521.988 196.752 520.703 196.503 519.548 196.006C518.393 195.528 517.437 194.861 516.681 194.004L518.413 192.152C518.971 192.849 519.648 193.397 520.444 193.795C521.261 194.193 522.227 194.393 523.342 194.393C524.397 194.393 525.313 194.164 526.09 193.706C526.886 193.267 527.504 192.65 527.942 191.854C528.38 191.077 528.599 190.161 528.599 189.105V183.4C528.599 182.126 528.36 181.06 527.882 180.204C527.404 179.348 526.777 178.7 526 178.262C525.244 177.804 524.417 177.575 523.521 177.575C522.545 177.575 521.669 177.814 520.892 178.292C520.136 178.77 519.548 179.417 519.13 180.234C518.712 181.03 518.503 181.936 518.503 182.952C518.503 183.988 518.712 184.904 519.13 185.7C519.568 186.497 520.165 187.124 520.922 187.582C521.699 188.02 522.605 188.239 523.64 188.239C524.556 188.239 525.393 188.05 526.15 187.672C526.906 187.293 527.524 186.776 528.002 186.118C528.499 185.441 528.788 184.675 528.868 183.818L529.435 184.386C529.575 185.581 529.376 186.646 528.838 187.582C528.32 188.518 527.563 189.265 526.568 189.822C525.592 190.36 524.457 190.629 523.163 190.629C521.729 190.629 520.434 190.31 519.279 189.673C518.144 189.016 517.248 188.11 516.591 186.955C515.934 185.78 515.605 184.446 515.605 182.952C515.605 181.439 515.934 180.104 516.591 178.949C517.268 177.774 518.164 176.858 519.279 176.201C520.414 175.524 521.679 175.186 523.073 175.186C524.089 175.186 525.024 175.375 525.881 175.753C526.757 176.132 527.494 176.699 528.091 177.456C528.689 178.193 529.077 179.109 529.256 180.204H528.629V175.664H531.377V189.046ZM542.628 190.957C541.075 190.957 539.701 190.619 538.506 189.942C537.311 189.265 536.375 188.339 535.698 187.164C535.021 185.969 534.683 184.605 534.683 183.072C534.683 181.538 535.021 180.184 535.698 179.009C536.375 177.834 537.311 176.908 538.506 176.231C539.701 175.534 541.075 175.186 542.628 175.186C544.182 175.186 545.546 175.534 546.721 176.231C547.916 176.908 548.851 177.834 549.529 179.009C550.226 180.184 550.574 181.538 550.574 183.072C550.574 184.605 550.226 185.969 549.529 187.164C548.851 188.339 547.916 189.265 546.721 189.942C545.546 190.619 544.182 190.957 542.628 190.957ZM542.628 188.568C543.624 188.568 544.5 188.339 545.257 187.881C546.014 187.423 546.601 186.776 547.019 185.939C547.438 185.103 547.647 184.147 547.647 183.072C547.647 181.996 547.438 181.05 547.019 180.234C546.601 179.397 546.014 178.75 545.257 178.292C544.5 177.814 543.624 177.575 542.628 177.575C541.633 177.575 540.747 177.814 539.97 178.292C539.213 178.75 538.626 179.397 538.208 180.234C537.789 181.05 537.58 181.996 537.58 183.072C537.58 184.147 537.789 185.103 538.208 185.939C538.626 186.776 539.213 187.423 539.97 187.881C540.747 188.339 541.633 188.568 542.628 188.568ZM556.641 190.479H553.863V168.973H556.641V190.479ZM573.177 186.118L574.91 187.911C574.133 188.866 573.177 189.613 572.042 190.151C570.927 190.689 569.662 190.957 568.249 190.957C566.636 190.957 565.202 190.619 563.947 189.942C562.693 189.265 561.707 188.339 560.99 187.164C560.293 185.969 559.945 184.605 559.945 183.072C559.945 181.538 560.283 180.184 560.96 179.009C561.637 177.814 562.573 176.878 563.768 176.201C564.963 175.524 566.307 175.186 567.801 175.186C569.254 175.186 570.539 175.524 571.654 176.201C572.789 176.858 573.675 177.774 574.312 178.949C574.969 180.104 575.298 181.449 575.298 182.982V183.161H572.49V182.892C572.49 181.817 572.291 180.881 571.893 180.084C571.495 179.268 570.937 178.641 570.22 178.203C569.523 177.745 568.717 177.516 567.801 177.516C566.825 177.516 565.958 177.745 565.202 178.203C564.445 178.661 563.858 179.308 563.439 180.144C563.021 180.961 562.812 181.927 562.812 183.042C562.812 184.157 563.041 185.143 563.499 185.999C563.977 186.835 564.634 187.482 565.471 187.94C566.307 188.399 567.263 188.628 568.338 188.628C570.31 188.628 571.923 187.791 573.177 186.118ZM575.298 183.998H562.006V181.936H574.82L575.298 182.982V183.998Z" fill="#11151D"/>
<path d="M59.4413 225.986H49.274V224.208H59.4413V225.986ZM62.9959 231.213H60.8788L53.9525 213.727H54.8412L47.9149 231.213H45.8762L53.3514 212.525H55.5207L62.9959 231.213ZM67.9504 236.283H66.0163V218.354H67.9243V222.248H67.4538C67.6107 221.394 67.9504 220.645 68.4732 220C69.0133 219.355 69.6755 218.85 70.4596 218.484C71.2611 218.118 72.1236 217.935 73.0471 217.935C74.3017 217.935 75.4169 218.24 76.3926 218.85C77.3684 219.443 78.1264 220.253 78.6665 221.281C79.2241 222.309 79.5029 223.476 79.5029 224.783C79.5029 226.107 79.2154 227.284 78.6404 228.312C78.0828 229.34 77.2987 230.15 76.2881 230.742C75.2949 231.335 74.1536 231.631 72.8642 231.631C71.6967 231.631 70.6687 231.396 69.78 230.925C68.9088 230.437 68.2467 229.784 67.7936 228.965C67.358 228.129 67.2012 227.197 67.3232 226.168L67.6891 225.646C67.7588 226.465 68.0201 227.205 68.4732 227.867C68.9262 228.512 69.5186 229.017 70.2505 229.383C70.9823 229.749 71.7838 229.932 72.6551 229.932C73.6134 229.932 74.4498 229.714 75.1642 229.279C75.8786 228.826 76.4362 228.216 76.837 227.449C77.2552 226.665 77.4643 225.776 77.4643 224.783C77.4643 223.79 77.2639 222.91 76.8631 222.143C76.4798 221.359 75.9396 220.749 75.2426 220.314C74.5456 219.861 73.7354 219.634 72.8119 219.634C71.871 219.634 71.0346 219.869 70.3028 220.34C69.5709 220.81 68.9959 221.464 68.5777 222.3C68.1595 223.119 67.9504 224.078 67.9504 225.175V236.283ZM85.6463 231.213V218.902H87.5804V231.213H85.6463ZM80.8633 220V218.354H92.3373V220H80.8633ZM95.5246 230.011C95.5246 230.411 95.3765 230.76 95.0803 231.056C94.8015 231.335 94.4617 231.474 94.061 231.474C93.6602 231.474 93.3117 231.335 93.0155 231.056C92.7367 230.76 92.5973 230.411 92.5973 230.011C92.5973 229.61 92.7367 229.27 93.0155 228.991C93.3117 228.695 93.6602 228.547 94.061 228.547C94.4617 228.547 94.8015 228.695 95.0803 228.991C95.3765 229.27 95.5246 229.61 95.5246 230.011ZM115.65 231.213H103.418V229.54L109.9 223.372C111.085 222.239 111.991 221.22 112.618 220.314C113.245 219.408 113.559 218.476 113.559 217.517C113.559 216.838 113.402 216.219 113.088 215.661C112.775 215.086 112.33 214.633 111.755 214.302C111.18 213.971 110.501 213.806 109.717 213.806C108.654 213.806 107.695 214.102 106.842 214.694C106.005 215.269 105.282 216.054 104.672 217.047L103.287 215.766C104.158 214.546 105.134 213.631 106.214 213.022C107.312 212.412 108.506 212.107 109.795 212.107C110.963 212.107 111.973 212.351 112.827 212.839C113.681 213.327 114.343 213.989 114.813 214.825C115.301 215.644 115.545 216.568 115.545 217.596C115.545 218.397 115.371 219.164 115.023 219.896C114.691 220.61 114.186 221.351 113.507 222.117C112.844 222.884 111.999 223.746 110.971 224.705C110.396 225.245 109.821 225.785 109.246 226.325C108.671 226.865 108.096 227.406 107.521 227.946C106.964 228.469 106.397 229 105.822 229.54H115.65V231.213ZM131.271 231.213H119.039V229.54L125.521 223.372C126.705 222.239 127.611 221.22 128.239 220.314C128.866 219.408 129.18 218.476 129.18 217.517C129.18 216.838 129.023 216.219 128.709 215.661C128.396 215.086 127.951 214.633 127.376 214.302C126.801 213.971 126.122 213.806 125.338 213.806C124.275 213.806 123.316 214.102 122.463 214.694C121.626 215.269 120.903 216.054 120.293 217.047L118.908 215.766C119.779 214.546 120.755 213.631 121.835 213.022C122.933 212.412 124.127 212.107 125.416 212.107C126.583 212.107 127.594 212.351 128.448 212.839C129.302 213.327 129.964 213.989 130.434 214.825C130.922 215.644 131.166 216.568 131.166 217.596C131.166 218.397 130.992 219.164 130.643 219.896C130.312 220.61 129.807 221.351 129.127 222.117C128.465 222.884 127.62 223.746 126.592 224.705C126.017 225.245 125.442 225.785 124.867 226.325C124.292 226.865 123.717 227.406 123.142 227.946C122.584 228.469 122.018 229 121.443 229.54H131.271V231.213ZM140.174 212.525H142.108V231.213H140.174V214.668L135.391 218.458V216.315L140.174 212.525ZM158.158 231.213H156.224V226.43H146.344V224.809L156.224 212.525H158.158V224.809H161.085V226.43H158.158V231.213ZM156.224 215.034L148.409 224.809H156.224V215.034ZM175.055 231.213H173.121V226.43H163.241V224.809L173.121 212.525H175.055V224.809H177.982V226.43H175.055V231.213ZM173.121 215.034L165.306 224.809H173.121V215.034ZM186.325 212.107C187.685 212.107 188.869 212.403 189.88 212.996C190.891 213.588 191.675 214.407 192.232 215.452C192.807 216.48 193.095 217.674 193.095 219.033C193.095 220.323 192.816 221.638 192.259 222.98C191.718 224.321 190.865 225.681 189.697 227.057C188.53 228.416 187.031 229.802 185.202 231.213H182.405C184.2 229.871 185.663 228.643 186.796 227.528C187.946 226.395 188.835 225.323 189.462 224.313C190.107 223.285 190.56 222.274 190.821 221.281L191.318 221.542C190.83 222.518 190.107 223.311 189.148 223.921C188.207 224.513 187.144 224.809 185.96 224.809C184.827 224.809 183.773 224.548 182.797 224.025C181.821 223.485 181.037 222.753 180.445 221.83C179.852 220.889 179.556 219.809 179.556 218.589C179.556 217.369 179.844 216.271 180.419 215.296C181.011 214.32 181.813 213.544 182.823 212.969C183.851 212.394 185.019 212.107 186.325 212.107ZM186.325 213.832C185.419 213.832 184.609 214.041 183.895 214.459C183.18 214.86 182.614 215.418 182.196 216.132C181.778 216.846 181.569 217.648 181.569 218.537C181.569 219.408 181.778 220.192 182.196 220.889C182.614 221.586 183.18 222.135 183.895 222.535C184.609 222.936 185.419 223.137 186.325 223.137C187.249 223.137 188.059 222.936 188.756 222.535C189.471 222.135 190.028 221.586 190.429 220.889C190.847 220.192 191.056 219.408 191.056 218.537C191.056 217.648 190.847 216.846 190.429 216.132C190.028 215.418 189.471 214.86 188.756 214.459C188.059 214.041 187.249 213.832 186.325 213.832ZM202.637 231.631C201.278 231.631 200.093 231.335 199.082 230.742C198.071 230.15 197.279 229.331 196.704 228.286C196.146 227.24 195.867 226.047 195.867 224.705C195.867 223.415 196.146 222.1 196.704 220.758C197.261 219.416 198.115 218.057 199.265 216.681C200.433 215.304 201.931 213.919 203.761 212.525H206.557C204.78 213.867 203.316 215.104 202.166 216.236C201.016 217.352 200.119 218.415 199.474 219.425C198.847 220.436 198.403 221.446 198.141 222.457L197.645 222.196C198.132 221.22 198.847 220.436 199.788 219.843C200.746 219.233 201.818 218.929 203.003 218.929C204.135 218.929 205.189 219.199 206.165 219.739C207.141 220.262 207.925 220.993 208.518 221.934C209.11 222.858 209.406 223.929 209.406 225.149C209.406 226.369 209.11 227.467 208.518 228.442C207.942 229.418 207.141 230.194 206.113 230.769C205.102 231.344 203.944 231.631 202.637 231.631ZM202.637 229.906C203.543 229.906 204.353 229.697 205.067 229.279C205.782 228.861 206.348 228.303 206.766 227.606C207.185 226.892 207.394 226.09 207.394 225.201C207.394 224.313 207.185 223.529 206.766 222.849C206.348 222.152 205.782 221.603 205.067 221.202C204.353 220.802 203.543 220.601 202.637 220.601C201.731 220.601 200.92 220.802 200.206 221.202C199.492 221.603 198.925 222.152 198.507 222.849C198.106 223.529 197.906 224.313 197.906 225.201C197.906 226.09 198.106 226.892 198.507 227.606C198.925 228.303 199.492 228.861 200.206 229.279C200.92 229.697 201.731 229.906 202.637 229.906ZM218.333 212.107C219.692 212.107 220.877 212.403 221.888 212.996C222.898 213.588 223.682 214.407 224.24 215.452C224.815 216.48 225.102 217.674 225.102 219.033C225.102 220.323 224.824 221.638 224.266 222.98C223.726 224.321 222.872 225.681 221.705 227.057C220.537 228.416 219.039 229.802 217.209 231.213H214.412C216.207 229.871 217.671 228.643 218.803 227.528C219.953 226.395 220.842 225.323 221.469 224.313C222.114 223.285 222.567 222.274 222.828 221.281L223.325 221.542C222.837 222.518 222.114 223.311 221.156 223.921C220.215 224.513 219.152 224.809 217.967 224.809C216.834 224.809 215.78 224.548 214.804 224.025C213.829 223.485 213.045 222.753 212.452 221.83C211.86 220.889 211.563 219.809 211.563 218.589C211.563 217.369 211.851 216.271 212.426 215.296C213.018 214.32 213.82 213.544 214.831 212.969C215.859 212.394 217.026 212.107 218.333 212.107ZM218.333 213.832C217.427 213.832 216.617 214.041 215.902 214.459C215.188 214.86 214.621 215.418 214.203 216.132C213.785 216.846 213.576 217.648 213.576 218.537C213.576 219.408 213.785 220.192 214.203 220.889C214.621 221.586 215.188 222.135 215.902 222.535C216.617 222.936 217.427 223.137 218.333 223.137C219.256 223.137 220.067 222.936 220.764 222.535C221.478 222.135 222.036 221.586 222.436 220.889C222.855 220.192 223.064 219.408 223.064 218.537C223.064 217.648 222.855 216.846 222.436 216.132C222.036 215.418 221.478 214.86 220.764 214.459C220.067 214.041 219.256 213.832 218.333 213.832ZM229.26 234.375H227.953C228.336 233.818 228.641 233.217 228.868 232.572C229.094 231.945 229.19 231.405 229.155 230.952L229.364 231.396C228.964 231.396 228.624 231.265 228.345 231.004C228.066 230.725 227.927 230.385 227.927 229.984C227.927 229.584 228.058 229.244 228.319 228.965C228.598 228.686 228.929 228.547 229.312 228.547C229.765 228.547 230.131 228.704 230.41 229.017C230.706 229.331 230.854 229.741 230.854 230.246C230.854 230.664 230.776 231.117 230.619 231.605C230.48 232.11 230.288 232.598 230.044 233.069C229.8 233.556 229.539 233.992 229.26 234.375ZM245.308 224.208C243.252 224.208 241.657 223.712 240.525 222.718C239.392 221.708 238.826 220.279 238.826 218.432V212.525H240.838V218.223C240.838 219.547 241.248 220.575 242.067 221.307C242.886 222.021 244.018 222.379 245.465 222.379C246.475 222.379 247.46 222.213 248.418 221.882C249.376 221.534 250.169 221.081 250.797 220.523L251.607 221.934C250.805 222.684 249.864 223.25 248.784 223.633C247.721 224.017 246.562 224.208 245.308 224.208ZM250.457 231.213V212.525H252.469V231.213H250.457ZM267.652 227.554L269.011 228.834C268.331 229.706 267.512 230.394 266.554 230.899C265.595 231.387 264.498 231.631 263.261 231.631C261.901 231.631 260.682 231.335 259.601 230.742C258.538 230.15 257.702 229.34 257.092 228.312C256.482 227.284 256.177 226.107 256.177 224.783C256.177 223.459 256.465 222.283 257.04 221.255C257.632 220.227 258.443 219.416 259.471 218.824C260.499 218.232 261.666 217.935 262.973 217.935C264.228 217.935 265.334 218.232 266.292 218.824C267.268 219.399 268.035 220.192 268.592 221.202C269.15 222.213 269.429 223.381 269.429 224.705V224.862H267.442V224.705C267.442 223.694 267.242 222.814 266.841 222.065C266.458 221.298 265.926 220.706 265.247 220.288C264.585 219.852 263.827 219.634 262.973 219.634C262.032 219.634 261.204 219.852 260.49 220.288C259.776 220.723 259.218 221.324 258.817 222.091C258.416 222.858 258.216 223.746 258.216 224.757C258.216 225.768 258.434 226.665 258.87 227.449C259.305 228.233 259.898 228.843 260.647 229.279C261.414 229.714 262.293 229.932 263.287 229.932C265.099 229.932 266.554 229.139 267.652 227.554ZM269.429 225.463H257.798V223.868H269.011L269.429 224.705V225.463ZM274.672 236.283H272.737V218.354H274.645V222.248H274.175C274.332 221.394 274.672 220.645 275.194 220C275.734 219.355 276.397 218.85 277.181 218.484C277.982 218.118 278.845 217.935 279.768 217.935C281.023 217.935 282.138 218.24 283.114 218.85C284.089 219.443 284.847 220.253 285.388 221.281C285.945 222.309 286.224 223.476 286.224 224.783C286.224 226.107 285.936 227.284 285.361 228.312C284.804 229.34 284.02 230.15 283.009 230.742C282.016 231.335 280.875 231.631 279.585 231.631C278.418 231.631 277.39 231.396 276.501 230.925C275.63 230.437 274.968 229.784 274.515 228.965C274.079 228.129 273.922 227.197 274.044 226.168L274.41 225.646C274.48 226.465 274.741 227.205 275.194 227.867C275.647 228.512 276.24 229.017 276.972 229.383C277.703 229.749 278.505 229.932 279.376 229.932C280.334 229.932 281.171 229.714 281.885 229.279C282.6 228.826 283.157 228.216 283.558 227.449C283.976 226.665 284.185 225.776 284.185 224.783C284.185 223.79 283.985 222.91 283.584 222.143C283.201 221.359 282.661 220.749 281.964 220.314C281.267 219.861 280.456 219.634 279.533 219.634C278.592 219.634 277.756 219.869 277.024 220.34C276.292 220.81 275.717 221.464 275.299 222.3C274.881 223.119 274.672 224.078 274.672 225.175V236.283ZM299.464 231.213V218.354H301.398V231.213H299.464ZM289.532 231.213V218.354H291.466V231.213H289.532ZM290.473 225.28V223.633H300.536V225.28H290.473ZM305.587 231.213V218.354H307.521V230.899L306.319 229.566H311.729C312.601 229.566 313.271 229.357 313.742 228.939C314.23 228.503 314.474 227.911 314.474 227.162C314.474 226.43 314.23 225.855 313.742 225.437C313.271 225.018 312.601 224.809 311.729 224.809H306.45V223.163H311.729C313.141 223.163 314.282 223.537 315.153 224.287C316.042 225.018 316.486 225.977 316.486 227.162C316.486 227.928 316.277 228.617 315.859 229.226C315.441 229.836 314.874 230.324 314.16 230.69C313.446 231.039 312.635 231.213 311.729 231.213H305.587ZM318.211 231.213V218.354H320.145V231.213H318.211ZM324.322 231.213V218.354H326.256V228.625L326.047 228.547L334.411 218.354H336.084V231.213H334.149V220.941L334.358 221.02L325.995 231.213H324.322ZM330.333 215.949C329.166 215.949 328.181 215.653 327.38 215.06C326.596 214.45 326.152 213.614 326.047 212.551H327.798C327.903 213.3 328.173 213.849 328.608 214.198C329.061 214.546 329.636 214.721 330.333 214.721C331.013 214.721 331.571 214.546 332.006 214.198C332.459 213.849 332.738 213.3 332.843 212.551H334.594C334.489 213.614 334.045 214.45 333.261 215.06C332.477 215.653 331.501 215.949 330.333 215.949Z" fill="#8A8A8A"/>
</g>
<rect x="177" width="195" height="372" fill="url(#paint0_linear_76_5987)"/>
</g>
<defs>
<filter id="filter0_d_76_5987" x="-18" y="67.0078" width="1109.47" height="247.076" filterUnits="userSpaceOnUse" color-interpolation-filters="sRGB">
<feFlood flood-opacity="0" result="BackgroundImageFix"/>
<feColorMatrix in="SourceAlpha" type="matrix" values="0 0 0 0 0 0 0 0 0 0 0 0 0 0 0 0 0 0 127 0" result="hardAlpha"/>
<feOffset dy="12"/>
<feGaussianBlur stdDeviation="16"/>
<feComposite in2="hardAlpha" operator="out"/>
<feColorMatrix type="matrix" values="0 0 0 0 0.797232 0 0 0 0 0.797232 0 0 0 0 0.797232 0 0 0 0.16 0"/>
<feBlend mode="normal" in2="BackgroundImageFix" result="effect1_dropShadow_76_5987"/>
<feBlend mode="normal" in="SourceGraphic" in2="effect1_dropShadow_76_5987" result="shape"/>
</filter>
<linearGradient id="paint0_linear_76_5987" x1="177" y1="186" x2="372" y2="186" gradientUnits="userSpaceOnUse">
<stop stop-color="#F5F5F5" stop-opacity="0"/>
<stop offset="1" stop-color="#F5F5F5"/>
</linearGradient>
<clipPath id="clip0_76_5987">
<rect width="372" height="372" fill="white"/>
</clipPath>
</defs>
</svg>
