<svg width="372" height="372" viewBox="0 0 372 372" fill="none" xmlns="http://www.w3.org/2000/svg">
<g clip-path="url(#clip0_76_5978)">
<rect width="372" height="372" fill="#F5F5F5"/>
<rect width="506" height="285.012" transform="translate(-145 -30.3779)" fill="white"/>
<path d="M226.047 -10.6844H227.873V6.96387H226.047V-8.66043L221.53 -5.0814V-7.1054L226.047 -10.6844ZM243.605 7.35879C242.273 7.35879 241.121 6.99678 240.15 6.27275C239.195 5.53226 238.463 4.47912 237.953 3.11333C237.443 1.73109 237.188 0.0773299 237.188 -1.84794C237.188 -4.74407 237.756 -7.00667 238.891 -8.63574C240.026 -10.2648 241.598 -11.0794 243.605 -11.0794C245.613 -11.0794 247.184 -10.2648 248.32 -8.63574C249.455 -7.00667 250.023 -4.74407 250.023 -1.84794C250.023 0.0773299 249.768 1.73109 249.258 3.11333C248.748 4.47912 248.015 5.53226 247.061 6.27275C246.107 6.99678 244.955 7.35879 243.605 7.35879ZM243.605 5.7544C245.037 5.7544 246.139 5.09619 246.913 3.77977C247.703 2.46335 248.098 0.587444 248.098 -1.84794C248.098 -4.29978 247.703 -6.18391 246.913 -7.50033C246.139 -8.81675 245.037 -9.47496 243.605 -9.47496C242.174 -9.47496 241.063 -8.81675 240.273 -7.50033C239.5 -6.18391 239.113 -4.29978 239.113 -1.84794C239.113 0.587444 239.5 2.46335 240.273 3.77977C241.063 5.09619 242.174 5.7544 243.605 5.7544ZM259.563 7.35879C258.23 7.35879 257.078 6.99678 256.107 6.27275C255.152 5.53226 254.42 4.47912 253.91 3.11333C253.4 1.73109 253.145 0.0773299 253.145 -1.84794C253.145 -4.74407 253.713 -7.00667 254.848 -8.63574C255.983 -10.2648 257.555 -11.0794 259.563 -11.0794C261.57 -11.0794 263.142 -10.2648 264.277 -8.63574C265.412 -7.00667 265.98 -4.74407 265.98 -1.84794C265.98 0.0773299 265.725 1.73109 265.215 3.11333C264.705 4.47912 263.973 5.53226 263.018 6.27275C262.064 6.99678 260.912 7.35879 259.563 7.35879ZM259.563 5.7544C260.994 5.7544 262.097 5.09619 262.87 3.77977C263.66 2.46335 264.055 0.587444 264.055 -1.84794C264.055 -4.29978 263.66 -6.18391 262.87 -7.50033C262.097 -8.81675 260.994 -9.47496 259.563 -9.47496C258.131 -9.47496 257.02 -8.81675 256.23 -7.50033C255.457 -6.18391 255.07 -4.29978 255.07 -1.84794C255.07 0.587444 255.457 2.46335 256.23 3.77977C257.02 5.09619 258.131 5.7544 259.563 5.7544ZM275.52 7.35879C274.187 7.35879 273.035 6.99678 272.064 6.27275C271.11 5.53226 270.377 4.47912 269.867 3.11333C269.357 1.73109 269.102 0.0773299 269.102 -1.84794C269.102 -4.74407 269.67 -7.00667 270.805 -8.63574C271.941 -10.2648 273.512 -11.0794 275.52 -11.0794C277.527 -11.0794 279.099 -10.2648 280.234 -8.63574C281.369 -7.00667 281.937 -4.74407 281.937 -1.84794C281.937 0.0773299 281.682 1.73109 281.172 3.11333C280.662 4.47912 279.93 5.53226 278.975 6.27275C278.021 6.99678 276.869 7.35879 275.52 7.35879ZM275.52 5.7544C276.951 5.7544 278.054 5.09619 278.827 3.77977C279.617 2.46335 280.012 0.587444 280.012 -1.84794C280.012 -4.29978 279.617 -6.18391 278.827 -7.50033C278.054 -8.81675 276.951 -9.47496 275.52 -9.47496C274.088 -9.47496 272.977 -8.81675 272.187 -7.50033C271.414 -6.18391 271.027 -4.29978 271.027 -1.84794C271.027 0.587444 271.414 2.46335 272.187 3.77977C272.977 5.09619 274.088 5.7544 275.52 5.7544ZM286.121 9.9505H284.886C285.248 9.42393 285.536 8.85623 285.75 8.24738C285.964 7.65499 286.055 7.14488 286.022 6.71704L286.219 7.13665C285.841 7.13665 285.52 7.01323 285.257 6.7664C284.993 6.50312 284.862 6.18224 284.862 5.80377C284.862 5.4253 284.985 5.10442 285.232 4.84114C285.495 4.57785 285.808 4.44621 286.17 4.44621C286.598 4.44621 286.943 4.59431 287.207 4.8905C287.486 5.1867 287.626 5.5734 287.626 6.0506C287.626 6.44553 287.552 6.87336 287.404 7.33411C287.272 7.81131 287.091 8.27206 286.861 8.71636C286.631 9.1771 286.384 9.58849 286.121 9.9505ZM296.948 7.35879C295.616 7.35879 294.464 6.99678 293.493 6.27275C292.538 5.53226 291.806 4.47912 291.296 3.11333C290.786 1.73109 290.531 0.0773299 290.531 -1.84794C290.531 -4.74407 291.099 -7.00667 292.234 -8.63574C293.369 -10.2648 294.941 -11.0794 296.948 -11.0794C298.956 -11.0794 300.527 -10.2648 301.663 -8.63574C302.798 -7.00667 303.366 -4.74407 303.366 -1.84794C303.366 0.0773299 303.111 1.73109 302.601 3.11333C302.091 4.47912 301.358 5.53226 300.404 6.27275C299.45 6.99678 298.298 7.35879 296.948 7.35879ZM296.948 5.7544C298.38 5.7544 299.483 5.09619 300.256 3.77977C301.046 2.46335 301.441 0.587444 301.441 -1.84794C301.441 -4.29978 301.046 -6.18391 300.256 -7.50033C299.483 -8.81675 298.38 -9.47496 296.948 -9.47496C295.517 -9.47496 294.406 -8.81675 293.616 -7.50033C292.843 -6.18391 292.456 -4.29978 292.456 -1.84794C292.456 0.587444 292.843 2.46335 293.616 3.77977C294.406 5.09619 295.517 5.7544 296.948 5.7544ZM312.906 7.35879C311.573 7.35879 310.421 6.99678 309.45 6.27275C308.496 5.53226 307.763 4.47912 307.253 3.11333C306.743 1.73109 306.488 0.0773299 306.488 -1.84794C306.488 -4.74407 307.056 -7.00667 308.191 -8.63574C309.327 -10.2648 310.898 -11.0794 312.906 -11.0794C314.913 -11.0794 316.485 -10.2648 317.62 -8.63574C318.755 -7.00667 319.323 -4.74407 319.323 -1.84794C319.323 0.0773299 319.068 1.73109 318.558 3.11333C318.048 4.47912 317.316 5.53226 316.361 6.27275C315.407 6.99678 314.255 7.35879 312.906 7.35879ZM312.906 5.7544C314.337 5.7544 315.44 5.09619 316.213 3.77977C317.003 2.46335 317.398 0.587444 317.398 -1.84794C317.398 -4.29978 317.003 -6.18391 316.213 -7.50033C315.44 -8.81675 314.337 -9.47496 312.906 -9.47496C311.474 -9.47496 310.363 -8.81675 309.573 -7.50033C308.8 -6.18391 308.413 -4.29978 308.413 -1.84794C308.413 0.587444 308.8 2.46335 309.573 3.77977C310.363 5.09619 311.474 5.7544 312.906 5.7544Z" fill="#11151D"/>
<path d="M328.326 1.50684H326.956V-11.7294H331.306C332.183 -11.7294 332.942 -11.5751 333.583 -11.2666C334.238 -10.958 334.744 -10.5261 335.101 -9.97073C335.472 -9.41536 335.657 -8.76743 335.657 -8.02695C335.657 -7.28646 335.472 -6.63853 335.101 -6.08316C334.744 -5.5278 334.238 -5.09585 333.583 -4.78731C332.942 -4.47877 332.183 -4.32451 331.306 -4.32451H324.624V-5.50929H331.306C332.22 -5.50929 332.942 -5.73143 333.472 -6.17573C334.003 -6.62002 334.268 -7.23709 334.268 -8.02695C334.268 -8.8168 334.003 -9.43387 333.472 -9.87816C332.942 -10.3225 332.22 -10.5446 331.306 -10.5446H328.326V1.50684ZM332.769 -2.1956V-1.01082H324.624V-2.1956H332.769Z" fill="#8A8A8A"/>
<g clip-path="url(#clip1_76_5978)">
<path d="M-87.4116 44.6768V29.2345H-75.1442V44.6768H-76.8072V29.6017L-75.9001 30.7247H-86.6557L-85.7486 29.6017V44.6768H-87.4116ZM-66.466 45.0223C-67.5459 45.0223 -68.5106 44.7775 -69.3601 44.288C-70.2096 43.7985 -70.8791 43.1289 -71.3687 42.2794C-71.8438 41.4299 -72.0814 40.458 -72.0814 39.3638C-72.0814 38.2695 -71.8438 37.2976 -71.3687 36.4481C-70.8791 35.5986 -70.2096 34.9291 -69.3601 34.4395C-68.5106 33.95 -67.5459 33.7052 -66.466 33.7052C-65.3717 33.7052 -64.4071 33.95 -63.572 34.4395C-62.7224 34.9291 -62.0601 35.5986 -61.585 36.4481C-61.0954 37.2976 -60.8507 38.2695 -60.8507 39.3638C-60.8507 40.458 -61.0954 41.4299 -61.585 42.2794C-62.0601 43.1289 -62.7224 43.7985 -63.572 44.288C-64.4071 44.7775 -65.3717 45.0223 -66.466 45.0223ZM-66.466 43.6185C-65.6885 43.6185 -65.0046 43.4385 -64.4143 43.0785C-63.8239 42.7186 -63.3632 42.2218 -63.032 41.5883C-62.7008 40.9404 -62.5353 40.1989 -62.5353 39.3638C-62.5353 38.5287 -62.7008 37.7943 -63.032 37.1608C-63.3632 36.5129 -63.8239 36.0089 -64.4143 35.649C-65.0046 35.289 -65.6885 35.109 -66.466 35.109C-67.2435 35.109 -67.9275 35.289 -68.5178 35.649C-69.1081 36.0089 -69.5689 36.5129 -69.9 37.1608C-70.2312 37.7943 -70.3968 38.5287 -70.3968 39.3638C-70.3968 40.1989 -70.2312 40.9404 -69.9 41.5883C-69.5689 42.2218 -69.1081 42.7186 -68.5178 43.0785C-67.9275 43.4385 -67.2435 43.6185 -66.466 43.6185ZM-59.3981 44.6768V43.2945H-58.5341C-58.1454 43.2945 -57.8502 43.1937 -57.6486 42.9921C-57.4471 42.7762 -57.3247 42.3874 -57.2815 41.8259L-56.612 34.0508H-49.0528V44.6768H-50.651V34.3747L-49.528 35.4114H-56.2664L-55.0353 34.3747L-55.7481 42.0851C-55.8345 43.0353 -56.0864 43.7049 -56.504 44.0936C-56.9071 44.4824 -57.5119 44.6768 -58.3182 44.6768H-59.3981ZM-37.7983 34.0508H-36.1569L-41.5563 46.5989C-41.8586 47.3045 -42.233 47.8588 -42.6793 48.262C-43.1257 48.6651 -43.8024 48.8667 -44.7095 48.8667H-45.7678V47.4844H-44.7095C-44.2488 47.4844 -43.8744 47.3693 -43.5864 47.1389C-43.2841 46.9085 -43.0393 46.5701 -42.8521 46.1238L-42.2906 44.72L-46.8909 34.0508H-45.1631L-41.1459 43.8345H-41.837L-37.7983 34.0508ZM-30.496 41.07C-31.8638 41.07 -32.9077 40.7244 -33.6276 40.0333C-34.3475 39.3278 -34.7075 38.3127 -34.7075 36.988V34.0508H-33.1093V36.8152C-33.1093 37.9095 -32.8645 38.6654 -32.3749 39.083C-31.871 39.4861 -31.1655 39.6877 -30.2584 39.6877C-29.1641 39.6877 -28.041 39.2918 -26.8892 38.4999L-26.3276 39.5581C-26.7308 39.8893 -27.1627 40.1701 -27.6235 40.4004C-28.0698 40.6164 -28.5378 40.782 -29.0273 40.8972C-29.5025 41.0124 -29.992 41.07 -30.496 41.07ZM-26.9972 44.6768V34.0508H-25.3989V44.6768H-26.9972ZM-13.183 41.6531L-12.0599 42.7114C-12.6214 43.4313 -13.2982 44 -14.0901 44.4176C-14.882 44.8207 -15.7891 45.0223 -16.8114 45.0223C-17.9344 45.0223 -18.9423 44.7775 -19.835 44.288C-20.7133 43.7985 -21.4045 43.1289 -21.9084 42.2794C-22.4123 41.4299 -22.6643 40.458 -22.6643 39.3638C-22.6643 38.2695 -22.4267 37.2976 -21.9516 36.4481C-21.462 35.5986 -20.7925 34.9291 -19.943 34.4395C-19.0935 33.95 -18.1288 33.7052 -17.0489 33.7052C-16.0123 33.7052 -15.098 33.95 -14.3061 34.4395C-13.4997 34.9147 -12.8662 35.5698 -12.4055 36.4049C-11.9447 37.24 -11.7143 38.2047 -11.7143 39.299V39.4285H-13.3558V39.299C-13.3558 38.4639 -13.5213 37.7367 -13.8525 37.1176C-14.1693 36.4841 -14.6084 35.9945 -15.17 35.649C-15.7171 35.289 -16.3434 35.109 -17.0489 35.109C-17.8265 35.109 -18.5104 35.289 -19.1007 35.649C-19.691 36.0089 -20.1518 36.5057 -20.483 37.1392C-20.8141 37.7727 -20.9797 38.5071 -20.9797 39.3422C-20.9797 40.1773 -20.7997 40.9188 -20.4398 41.5667C-20.0798 42.2146 -19.5903 42.7186 -18.9711 43.0785C-18.3376 43.4385 -17.6105 43.6185 -16.7898 43.6185C-15.2923 43.6185 -14.0901 42.9634 -13.183 41.6531ZM-11.7143 39.9253H-21.3253V38.6078H-12.0599L-11.7143 39.299V39.9253ZM-0.773327 44.6768V34.0508H0.824893V44.6768H-0.773327ZM-8.9804 44.6768V34.0508H-7.38218V44.6768H-8.9804ZM-8.20289 39.7741V38.4135H0.112174V39.7741H-8.20289ZM9.18872 45.0223C8.10884 45.0223 7.14415 44.7775 6.29464 44.288C5.44514 43.7985 4.77562 43.1289 4.28607 42.2794C3.81092 41.4299 3.57335 40.458 3.57335 39.3638C3.57335 38.2695 3.81092 37.2976 4.28607 36.4481C4.77562 35.5986 5.44514 34.9291 6.29464 34.4395C7.14415 33.95 8.10884 33.7052 9.18872 33.7052C10.283 33.7052 11.2477 33.95 12.0828 34.4395C12.9323 34.9291 13.5946 35.5986 14.0698 36.4481C14.5593 37.2976 14.8041 38.2695 14.8041 39.3638C14.8041 40.458 14.5593 41.4299 14.0698 42.2794C13.5946 43.1289 12.9323 43.7985 12.0828 44.288C11.2477 44.7775 10.283 45.0223 9.18872 45.0223ZM9.18872 43.6185C9.96623 43.6185 10.6502 43.4385 11.2405 43.0785C11.8308 42.7186 12.2916 42.2218 12.6227 41.5883C12.9539 40.9404 13.1195 40.1989 13.1195 39.3638C13.1195 38.5287 12.9539 37.7943 12.6227 37.1608C12.2916 36.5129 11.8308 36.0089 11.2405 35.649C10.6502 35.289 9.96623 35.109 9.18872 35.109C8.41121 35.109 7.72728 35.289 7.13695 35.649C6.54662 36.0089 6.08587 36.5129 5.75471 37.1608C5.42354 37.7943 5.25796 38.5287 5.25796 39.3638C5.25796 40.1989 5.42354 40.9404 5.75471 41.5883C6.08587 42.2218 6.54662 42.7186 7.13695 43.0785C7.72728 43.4385 8.41121 43.6185 9.18872 43.6185ZM28.9844 44.6768L22.8075 39.1694H23.0235L28.5956 34.0508H30.777L24.9241 39.3638L24.3841 38.5862L31.3169 44.6768H28.9844ZM21.7708 44.6768V34.0508H23.369V44.6768H21.7708ZM41.7184 44.6768H40.1849V42.6034L40.1633 41.9987V38.0247C40.1633 37.132 39.8754 36.4193 39.2994 35.8865C38.7235 35.3538 37.946 35.0874 36.9669 35.0874C36.2614 35.0874 35.6206 35.2386 35.0447 35.541C34.4832 35.8434 33.9864 36.2537 33.5545 36.772L32.4314 35.6922C33.0217 35.0586 33.6841 34.5691 34.4184 34.2235C35.1671 33.878 36.0166 33.7052 36.9669 33.7052C37.9172 33.7052 38.7451 33.8852 39.4506 34.2451C40.1705 34.5907 40.7249 35.0802 41.1136 35.7138C41.5168 36.3473 41.7184 37.096 41.7184 37.9599V44.6768ZM36.1246 45.0223C35.3183 45.0223 34.6056 44.8783 33.9864 44.5904C33.3817 44.288 32.9066 43.8848 32.561 43.3809C32.2298 42.877 32.0643 42.301 32.0643 41.6531C32.0643 40.9044 32.273 40.2709 32.6906 39.7525C33.1081 39.2198 33.6769 38.8166 34.3968 38.543C35.1311 38.2695 35.959 38.1327 36.8805 38.1327H40.3793V39.4285H37.0965C36.1318 39.4285 35.3255 39.6085 34.6776 39.9685C34.044 40.314 33.7273 40.8612 33.7273 41.6099C33.7273 42.2434 33.9648 42.7474 34.44 43.1217C34.9151 43.4961 35.5415 43.6833 36.319 43.6833C37.0677 43.6833 37.7444 43.5393 38.3491 43.2513C38.9539 42.949 39.4362 42.5314 39.7962 41.9987C40.1705 41.4659 40.3793 40.854 40.4225 40.1629L41.0704 40.53C41.0704 41.3939 40.8545 42.1642 40.4225 42.841C40.005 43.5177 39.4218 44.0504 38.6731 44.4392C37.9244 44.8279 37.0749 45.0223 36.1246 45.0223ZM46.4008 48.8667H44.8026V34.0508H46.3792V37.2688H45.9905C46.12 36.5633 46.4008 35.9441 46.8328 35.4114C47.2791 34.8787 47.8262 34.4611 48.4742 34.1587C49.1365 33.8564 49.8492 33.7052 50.6123 33.7052C51.649 33.7052 52.5705 33.9572 53.3768 34.4611C54.1831 34.9507 54.8095 35.6202 55.2558 36.4697C55.7166 37.3192 55.9469 38.2839 55.9469 39.3638C55.9469 40.458 55.7094 41.4299 55.2342 42.2794C54.7735 43.1289 54.1255 43.7985 53.2904 44.288C52.4697 44.7775 51.5266 45.0223 50.4611 45.0223C49.4965 45.0223 48.647 44.8279 47.9126 44.4392C47.1927 44.036 46.6456 43.4961 46.2712 42.8194C45.9113 42.1282 45.7817 41.3579 45.8825 40.5084L46.1848 40.0765C46.2424 40.7532 46.4584 41.3651 46.8328 41.9123C47.2071 42.445 47.6967 42.8626 48.3014 43.1649C48.9061 43.4673 49.5685 43.6185 50.2884 43.6185C51.0803 43.6185 51.7714 43.4385 52.3617 43.0785C52.9521 42.7042 53.4128 42.2002 53.744 41.5667C54.0895 40.9188 54.2623 40.1845 54.2623 39.3638C54.2623 38.543 54.0967 37.8159 53.7656 37.1824C53.4488 36.5345 53.0025 36.0305 52.4265 35.6706C51.8506 35.2962 51.1811 35.109 50.418 35.109C49.6404 35.109 48.9493 35.3034 48.3446 35.6922C47.7399 36.0809 47.2647 36.6209 46.9191 37.312C46.5736 37.9887 46.4008 38.7806 46.4008 39.6877V48.8667ZM61.0234 44.6768V34.5043H62.6216V44.6768H61.0234ZM57.071 35.4114V34.0508H66.5524V35.4114H57.071ZM73.3065 45.0223C72.2266 45.0223 71.2619 44.7775 70.4124 44.288C69.5629 43.7985 68.8934 43.1289 68.4038 42.2794C67.9287 41.4299 67.6911 40.458 67.6911 39.3638C67.6911 38.2695 67.9287 37.2976 68.4038 36.4481C68.8934 35.5986 69.5629 34.9291 70.4124 34.4395C71.2619 33.95 72.2266 33.7052 73.3065 33.7052C74.4008 33.7052 75.3654 33.95 76.2006 34.4395C77.0501 34.9291 77.7124 35.5986 78.1875 36.4481C78.6771 37.2976 78.9218 38.2695 78.9218 39.3638C78.9218 40.458 78.6771 41.4299 78.1875 42.2794C77.7124 43.1289 77.0501 43.7985 76.2006 44.288C75.3654 44.7775 74.4008 45.0223 73.3065 45.0223ZM73.3065 43.6185C74.084 43.6185 74.7679 43.4385 75.3582 43.0785C75.9486 42.7186 76.4093 42.2218 76.7405 41.5883C77.0717 40.9404 77.2372 40.1989 77.2372 39.3638C77.2372 38.5287 77.0717 37.7943 76.7405 37.1608C76.4093 36.5129 75.9486 36.0089 75.3582 35.649C74.7679 35.289 74.084 35.109 73.3065 35.109C72.529 35.109 71.845 35.289 71.2547 35.649C70.6644 36.0089 70.2036 36.5129 69.8725 37.1608C69.5413 37.7943 69.3757 38.5287 69.3757 39.3638C69.3757 40.1989 69.5413 40.9404 69.8725 41.5883C70.2036 42.2218 70.6644 42.7186 71.2547 43.0785C71.845 43.4385 72.529 43.6185 73.3065 43.6185ZM81.6703 44.6768V34.0508H83.2685V42.5386L83.0957 42.4738L90.007 34.0508H91.3892V44.6768H89.791V36.1889L89.9638 36.2537L83.0526 44.6768H81.6703ZM86.6377 32.0638C85.6731 32.0638 84.8596 31.819 84.1972 31.3295C83.5493 30.8255 83.1821 30.1344 83.0957 29.2561H84.5428C84.6292 29.8752 84.8524 30.3288 85.2123 30.6167C85.5867 30.9047 86.0618 31.0487 86.6377 31.0487C87.1993 31.0487 87.66 30.9047 88.02 30.6167C88.3944 30.3288 88.6247 29.8752 88.7111 29.2561H90.1582C90.0718 30.1344 89.7046 30.8255 89.0567 31.3295C88.4087 31.819 87.6024 32.0638 86.6377 32.0638ZM96.7314 43.6833C96.7314 44.0144 96.609 44.3024 96.3642 44.5472C96.1339 44.7775 95.8531 44.8927 95.5219 44.8927C95.1908 44.8927 94.9028 44.7775 94.658 44.5472C94.4277 44.3024 94.3125 44.0144 94.3125 43.6833C94.3125 43.3521 94.4277 43.0713 94.658 42.841C94.9028 42.5962 95.1908 42.4738 95.5219 42.4738C95.8531 42.4738 96.1339 42.5962 96.3642 42.841C96.609 43.0713 96.7314 43.3521 96.7314 43.6833ZM96.7314 35.2602C96.7314 35.5914 96.609 35.8794 96.3642 36.1241C96.1339 36.3545 95.8531 36.4697 95.5219 36.4697C95.1908 36.4697 94.9028 36.3545 94.658 36.1241C94.4277 35.8794 94.3125 35.5914 94.3125 35.2602C94.3125 34.9291 94.4277 34.6483 94.658 34.4179C94.9028 34.1731 95.1908 34.0508 95.5219 34.0508C95.8531 34.0508 96.1339 34.1731 96.3642 34.4179C96.609 34.6483 96.7314 34.9291 96.7314 35.2602Z" fill="#828282"/>
</g>
<path d="M219.729 37.9877H213.114V36.334H219.729V37.9877ZM226.047 26.4855H227.873V44.1338H226.047V28.5095L221.53 32.0885V30.0645L226.047 26.4855ZM243.605 44.5287C242.273 44.5287 241.121 44.1667 240.15 43.4427C239.195 42.7022 238.463 41.649 237.953 40.2833C237.443 38.901 237.188 37.2473 237.188 35.322C237.188 32.4259 237.756 30.1633 238.891 28.5342C240.026 26.9051 241.598 26.0906 243.605 26.0906C245.613 26.0906 247.184 26.9051 248.32 28.5342C249.455 30.1633 250.023 32.4259 250.023 35.322C250.023 37.2473 249.768 38.901 249.258 40.2833C248.748 41.649 248.015 42.7022 247.061 43.4427C246.107 44.1667 244.955 44.5287 243.605 44.5287ZM243.605 42.9243C245.037 42.9243 246.139 42.2661 246.913 40.9497C247.703 39.6333 248.098 37.7574 248.098 35.322C248.098 32.8701 247.703 30.986 246.913 29.6696C246.139 28.3532 245.037 27.695 243.605 27.695C242.174 27.695 241.063 28.3532 240.273 29.6696C239.5 30.986 239.113 32.8701 239.113 35.322C239.113 37.7574 239.5 39.6333 240.273 40.9497C241.063 42.2661 242.174 42.9243 243.605 42.9243ZM259.563 44.5287C258.23 44.5287 257.078 44.1667 256.107 43.4427C255.152 42.7022 254.42 41.649 253.91 40.2833C253.4 38.901 253.145 37.2473 253.145 35.322C253.145 32.4259 253.713 30.1633 254.848 28.5342C255.983 26.9051 257.555 26.0906 259.563 26.0906C261.57 26.0906 263.142 26.9051 264.277 28.5342C265.412 30.1633 265.98 32.4259 265.98 35.322C265.98 37.2473 265.725 38.901 265.215 40.2833C264.705 41.649 263.973 42.7022 263.018 43.4427C262.064 44.1667 260.912 44.5287 259.563 44.5287ZM259.563 42.9243C260.994 42.9243 262.097 42.2661 262.87 40.9497C263.66 39.6333 264.055 37.7574 264.055 35.322C264.055 32.8701 263.66 30.986 262.87 29.6696C262.097 28.3532 260.994 27.695 259.563 27.695C258.131 27.695 257.02 28.3532 256.23 29.6696C255.457 30.986 255.07 32.8701 255.07 35.322C255.07 37.7574 255.457 39.6333 256.23 40.9497C257.02 42.2661 258.131 42.9243 259.563 42.9243ZM275.52 44.5287C274.187 44.5287 273.035 44.1667 272.064 43.4427C271.11 42.7022 270.377 41.649 269.867 40.2833C269.357 38.901 269.102 37.2473 269.102 35.322C269.102 32.4259 269.67 30.1633 270.805 28.5342C271.941 26.9051 273.512 26.0906 275.52 26.0906C277.527 26.0906 279.099 26.9051 280.234 28.5342C281.369 30.1633 281.937 32.4259 281.937 35.322C281.937 37.2473 281.682 38.901 281.172 40.2833C280.662 41.649 279.93 42.7022 278.975 43.4427C278.021 44.1667 276.869 44.5287 275.52 44.5287ZM275.52 42.9243C276.951 42.9243 278.054 42.2661 278.827 40.9497C279.617 39.6333 280.012 37.7574 280.012 35.322C280.012 32.8701 279.617 30.986 278.827 29.6696C278.054 28.3532 276.951 27.695 275.52 27.695C274.088 27.695 272.977 28.3532 272.187 29.6696C271.414 30.986 271.027 32.8701 271.027 35.322C271.027 37.7574 271.414 39.6333 272.187 40.9497C272.977 42.2661 274.088 42.9243 275.52 42.9243ZM286.121 47.1204H284.886C285.248 46.5939 285.536 46.0261 285.75 45.4173C285.964 44.8249 286.055 44.3148 286.022 43.887L286.219 44.3066C285.841 44.3066 285.52 44.1832 285.257 43.9363C284.993 43.673 284.862 43.3522 284.862 42.9737C284.862 42.5952 284.985 42.2743 285.232 42.0111C285.495 41.7478 285.808 41.6161 286.17 41.6161C286.598 41.6161 286.943 41.7642 287.207 42.0604C287.486 42.3566 287.626 42.7433 287.626 43.2205C287.626 43.6154 287.552 44.0433 287.404 44.504C287.272 44.9812 287.091 45.442 286.861 45.8863C286.631 46.347 286.384 46.7584 286.121 47.1204ZM296.948 44.5287C295.616 44.5287 294.464 44.1667 293.493 43.4427C292.538 42.7022 291.806 41.649 291.296 40.2833C290.786 38.901 290.531 37.2473 290.531 35.322C290.531 32.4259 291.099 30.1633 292.234 28.5342C293.369 26.9051 294.941 26.0906 296.948 26.0906C298.956 26.0906 300.527 26.9051 301.663 28.5342C302.798 30.1633 303.366 32.4259 303.366 35.322C303.366 37.2473 303.111 38.901 302.601 40.2833C302.091 41.649 301.358 42.7022 300.404 43.4427C299.45 44.1667 298.298 44.5287 296.948 44.5287ZM296.948 42.9243C298.38 42.9243 299.483 42.2661 300.256 40.9497C301.046 39.6333 301.441 37.7574 301.441 35.322C301.441 32.8701 301.046 30.986 300.256 29.6696C299.483 28.3532 298.38 27.695 296.948 27.695C295.517 27.695 294.406 28.3532 293.616 29.6696C292.843 30.986 292.456 32.8701 292.456 35.322C292.456 37.7574 292.843 39.6333 293.616 40.9497C294.406 42.2661 295.517 42.9243 296.948 42.9243ZM312.906 44.5287C311.573 44.5287 310.421 44.1667 309.45 43.4427C308.496 42.7022 307.763 41.649 307.253 40.2833C306.743 38.901 306.488 37.2473 306.488 35.322C306.488 32.4259 307.056 30.1633 308.191 28.5342C309.327 26.9051 310.898 26.0906 312.906 26.0906C314.913 26.0906 316.485 26.9051 317.62 28.5342C318.755 30.1633 319.323 32.4259 319.323 35.322C319.323 37.2473 319.068 38.901 318.558 40.2833C318.048 41.649 317.316 42.7022 316.361 43.4427C315.407 44.1667 314.255 44.5287 312.906 44.5287ZM312.906 42.9243C314.337 42.9243 315.44 42.2661 316.213 40.9497C317.003 39.6333 317.398 37.7574 317.398 35.322C317.398 32.8701 317.003 30.986 316.213 29.6696C315.44 28.3532 314.337 27.695 312.906 27.695C311.474 27.695 310.363 28.3532 309.573 29.6696C308.8 30.986 308.413 32.8701 308.413 35.322C308.413 37.7574 308.8 39.6333 309.573 40.9497C310.363 42.2661 311.474 42.9243 312.906 42.9243Z" fill="#11151D"/>
<path d="M328.326 38.6768H326.956V25.4405H331.306C332.183 25.4405 332.942 25.5948 333.583 25.9033C334.238 26.2119 334.744 26.6438 335.101 27.1992C335.472 27.7546 335.657 28.4025 335.657 29.143C335.657 29.8835 335.472 30.5314 335.101 31.0868C334.744 31.6421 334.238 32.0741 333.583 32.3826C332.942 32.6911 332.183 32.8454 331.306 32.8454H324.624V31.6606H331.306C332.22 31.6606 332.942 31.4385 333.472 30.9942C334.003 30.5499 334.268 29.9328 334.268 29.143C334.268 28.3531 334.003 27.736 333.472 27.2918C332.942 26.8475 332.22 26.6253 331.306 26.6253H328.326V38.6768ZM332.769 34.9743V36.1591H324.624V34.9743H332.769Z" fill="#8A8A8A"/>
<line x1="-120.317" y1="83.3019" x2="336.317" y2="83.3019" stroke="#E5E5E5" stroke-width="1.54268"/>
<path d="M250.524 140.178C248.327 140.178 246.439 139.635 244.859 138.549C243.279 137.463 242.07 135.896 241.231 133.847C240.391 131.774 239.972 129.281 239.972 126.368C239.972 121.975 240.91 118.568 242.786 116.149C244.662 113.731 247.241 112.521 250.524 112.521C253.831 112.521 256.411 113.731 258.262 116.149C260.138 118.568 261.076 121.975 261.076 126.368C261.076 129.281 260.656 131.774 259.817 133.847C258.978 135.896 257.768 137.463 256.189 138.549C254.634 139.635 252.745 140.178 250.524 140.178ZM250.524 136.106C252.276 136.106 253.634 135.291 254.597 133.662C255.559 132.008 256.04 129.577 256.04 126.368C256.04 123.135 255.559 120.703 254.597 119.074C253.634 117.421 252.276 116.594 250.524 116.594C248.796 116.594 247.451 117.421 246.488 119.074C245.526 120.703 245.044 123.135 245.044 126.368C245.044 129.577 245.526 132.008 246.488 133.662C247.451 135.291 248.796 136.106 250.524 136.106ZM267.269 144.436H264.27C265.06 143.548 265.689 142.585 266.158 141.548C266.627 140.536 266.825 139.672 266.751 138.957L267.528 139.882C266.664 139.882 265.936 139.611 265.344 139.068C264.751 138.5 264.455 137.796 264.455 136.957C264.455 136.118 264.739 135.415 265.307 134.847C265.899 134.279 266.603 133.995 267.417 133.995C268.355 133.995 269.12 134.316 269.713 134.958C270.305 135.6 270.601 136.439 270.601 137.476C270.601 138.191 270.441 138.969 270.12 139.808C269.799 140.647 269.392 141.474 268.898 142.289C268.404 143.103 267.861 143.819 267.269 144.436ZM284.475 140.178C282.278 140.178 280.39 139.635 278.81 138.549C277.23 137.463 276.021 135.896 275.182 133.847C274.343 131.774 273.923 129.281 273.923 126.368C273.923 121.975 274.861 118.568 276.737 116.149C278.613 113.731 281.192 112.521 284.475 112.521C287.782 112.521 290.362 113.731 292.213 116.149C294.089 118.568 295.027 121.975 295.027 126.368C295.027 129.281 294.607 131.774 293.768 133.847C292.929 135.896 291.719 137.463 290.14 138.549C288.585 139.635 286.696 140.178 284.475 140.178ZM284.475 136.106C286.227 136.106 287.585 135.291 288.548 133.662C289.51 132.008 289.992 129.577 289.992 126.368C289.992 123.135 289.51 120.703 288.548 119.074C287.585 117.421 286.227 116.594 284.475 116.594C282.747 116.594 281.402 117.421 280.439 119.074C279.477 120.703 278.995 123.135 278.995 126.368C278.995 129.577 279.477 132.008 280.439 133.662C281.402 135.291 282.747 136.106 284.475 136.106ZM308.736 140.178C306.539 140.178 304.651 139.635 303.071 138.549C301.492 137.463 300.282 135.896 299.443 133.847C298.604 131.774 298.184 129.281 298.184 126.368C298.184 121.975 299.122 118.568 300.998 116.149C302.874 113.731 305.453 112.521 308.736 112.521C312.044 112.521 314.623 113.731 316.474 116.149C318.35 118.568 319.288 121.975 319.288 126.368C319.288 129.281 318.868 131.774 318.029 133.847C317.19 135.896 315.98 137.463 314.401 138.549C312.846 139.635 310.957 140.178 308.736 140.178ZM308.736 136.106C310.489 136.106 311.846 135.291 312.809 133.662C313.771 132.008 314.253 129.577 314.253 126.368C314.253 123.135 313.771 120.703 312.809 119.074C311.846 117.421 310.489 116.594 308.736 116.594C307.008 116.594 305.663 117.421 304.7 119.074C303.738 120.703 303.256 123.135 303.256 126.368C303.256 129.577 303.738 132.008 304.7 133.662C305.663 135.291 307.008 136.106 308.736 136.106Z" fill="#11151D"/>
<path d="M328.326 125.214H326.956V111.978H331.306C332.183 111.978 332.942 112.132 333.583 112.44C334.238 112.749 334.744 113.181 335.101 113.736C335.472 114.292 335.657 114.94 335.657 115.68C335.657 116.421 335.472 117.069 335.101 117.624C334.744 118.179 334.238 118.611 333.583 118.92C332.942 119.228 332.183 119.383 331.306 119.383H324.624V118.198H331.306C332.22 118.198 332.942 117.976 333.472 117.531C334.003 117.087 334.268 116.47 334.268 115.68C334.268 114.89 334.003 114.273 333.472 113.829C332.942 113.385 332.22 113.162 331.306 113.162H328.326V125.214ZM332.769 121.511V122.696H324.624V121.511H332.769Z" fill="#8A8A8A"/>
<rect x="-120.317" y="180.439" width="370.293" height="74.1951" rx="37.0976" fill="#1F5FDB"/>
<path d="M8.14371 227.037V209.389H22.1636V227.037H20.263V209.808L21.2997 211.092H9.00761L10.0443 209.808V227.037H8.14371ZM28.305 231.826H26.4785V214.893H28.2803V218.571H27.8361C27.9842 217.765 28.305 217.057 28.7987 216.448C29.3088 215.839 29.9341 215.362 30.6746 215.017C31.4315 214.671 32.2461 214.498 33.1182 214.498C34.303 214.498 35.3561 214.786 36.2776 215.362C37.1991 215.922 37.9149 216.687 38.425 217.658C38.9516 218.628 39.2149 219.731 39.2149 220.965C39.2149 222.216 38.9434 223.326 38.4003 224.297C37.8738 225.268 37.1333 226.033 36.1789 226.593C35.2409 227.152 34.1631 227.432 32.9454 227.432C31.8429 227.432 30.8721 227.21 30.0328 226.766C29.2101 226.305 28.5848 225.688 28.1569 224.914C27.7456 224.125 27.5975 223.244 27.7126 222.273L28.0582 221.78C28.124 222.553 28.3709 223.252 28.7987 223.878C29.2265 224.487 29.786 224.964 30.4771 225.309C31.1683 225.655 31.9252 225.828 32.748 225.828C33.653 225.828 34.4429 225.622 35.1175 225.211C35.7922 224.783 36.3188 224.207 36.6972 223.483C37.0922 222.742 37.2896 221.903 37.2896 220.965C37.2896 220.027 37.1004 219.196 36.7219 218.472C36.3599 217.732 35.8498 217.156 35.1916 216.744C34.5334 216.316 33.7682 216.103 32.8961 216.103C32.0075 216.103 31.2176 216.325 30.5265 216.769C29.8354 217.213 29.2923 217.83 28.8974 218.62C28.5025 219.394 28.305 220.299 28.305 221.335V231.826ZM47.9422 227.432C46.7081 227.432 45.6056 227.152 44.6347 226.593C43.6639 226.033 42.8987 225.268 42.3392 224.297C41.7962 223.326 41.5247 222.216 41.5247 220.965C41.5247 219.715 41.7962 218.604 42.3392 217.633C42.8987 216.662 43.6639 215.897 44.6347 215.337C45.6056 214.778 46.7081 214.498 47.9422 214.498C49.1928 214.498 50.2953 214.778 51.2497 215.337C52.2206 215.897 52.9775 216.662 53.5206 217.633C54.0801 218.604 54.3598 219.715 54.3598 220.965C54.3598 222.216 54.0801 223.326 53.5206 224.297C52.9775 225.268 52.2206 226.033 51.2497 226.593C50.2953 227.152 49.1928 227.432 47.9422 227.432ZM47.9422 225.828C48.8308 225.828 49.6124 225.622 50.2871 225.211C50.9618 224.799 51.4883 224.231 51.8668 223.507C52.2453 222.767 52.4345 221.92 52.4345 220.965C52.4345 220.011 52.2453 219.171 51.8668 218.447C51.4883 217.707 50.9618 217.131 50.2871 216.72C49.6124 216.308 48.8308 216.103 47.9422 216.103C47.0536 216.103 46.272 216.308 45.5974 216.72C44.9227 217.131 44.3961 217.707 44.0176 218.447C43.6392 219.171 43.4499 220.011 43.4499 220.965C43.4499 221.92 43.6392 222.767 44.0176 223.507C44.3961 224.231 44.9227 224.799 45.5974 225.211C46.272 225.622 47.0536 225.828 47.9422 225.828ZM62.9311 227.432C60.8907 227.432 59.3357 226.7 58.2661 225.235C57.2129 223.754 56.6864 221.607 56.6864 218.793C56.6864 216.111 57.1142 214.087 57.9699 212.721C58.842 211.355 60.216 210.516 62.0919 210.203L67.5222 209.29L67.843 210.894L62.4128 211.857C61.4584 212.022 60.6932 212.351 60.1173 212.844C59.5413 213.338 59.1217 214.062 58.8584 215.017C58.5952 215.954 58.4388 217.205 58.3895 218.768L58.0686 219.509C58.1673 218.604 58.48 217.83 59.0065 217.189C59.5331 216.53 60.1913 216.029 60.9812 215.683C61.771 215.321 62.5938 215.14 63.4495 215.14C64.6507 215.14 65.6627 215.411 66.4855 215.954C67.3082 216.481 67.9335 217.197 68.3614 218.102C68.7892 219.007 69.0031 220.027 69.0031 221.163C69.0031 222.43 68.7563 223.54 68.2626 224.495C67.769 225.433 67.0614 226.157 66.1399 226.667C65.2349 227.177 64.1653 227.432 62.9311 227.432ZM62.9064 225.803C64.2064 225.803 65.2266 225.392 65.9671 224.569C66.7241 223.73 67.1025 222.594 67.1025 221.163C67.1025 219.764 66.7488 218.678 66.0412 217.904C65.3501 217.115 64.3874 216.72 63.1533 216.72C62.4128 216.72 61.7217 216.909 61.0799 217.287C60.4546 217.649 59.9198 218.159 59.4755 218.818C59.0312 219.459 58.735 220.208 58.5869 221.064L58.661 219.583C58.6116 221.673 58.9325 223.236 59.6236 224.273C60.3312 225.293 61.4255 225.803 62.9064 225.803ZM72.1323 227.037V214.893H73.9588V224.593L73.7613 224.519L81.6599 214.893H83.2396V227.037H81.4131V217.337L81.6105 217.411L73.712 227.037H72.1323ZM90.3569 227.037V215.411H92.1835V227.037H90.3569ZM85.84 216.448V214.893H96.6758V216.448H85.84ZM99.2738 227.037V214.893H101.1V226.741L99.965 225.482H105.074C105.897 225.482 106.531 225.285 106.975 224.89C107.436 224.478 107.666 223.919 107.666 223.211C107.666 222.52 107.436 221.977 106.975 221.582C106.531 221.187 105.897 220.99 105.074 220.99H100.088V219.435H105.074C106.407 219.435 107.485 219.789 108.308 220.496C109.147 221.187 109.567 222.092 109.567 223.211C109.567 223.935 109.369 224.585 108.974 225.161C108.579 225.737 108.045 226.198 107.37 226.543C106.695 226.873 105.93 227.037 105.074 227.037H99.2738ZM121.013 222.915C119.45 222.915 118.257 222.52 117.434 221.73C116.612 220.924 116.2 219.764 116.2 218.25V214.893H118.027V218.053C118.027 219.303 118.306 220.167 118.866 220.644C119.442 221.105 120.248 221.335 121.285 221.335C122.535 221.335 123.819 220.883 125.135 219.978L125.777 221.187C125.316 221.566 124.823 221.887 124.296 222.15C123.786 222.397 123.251 222.586 122.692 222.718C122.149 222.849 121.589 222.915 121.013 222.915ZM125.012 227.037V214.893H126.839V227.037H125.012ZM140.8 223.581L142.083 224.791C141.441 225.614 140.668 226.264 139.763 226.741C138.858 227.202 137.821 227.432 136.653 227.432C135.369 227.432 134.217 227.152 133.197 226.593C132.193 226.033 131.404 225.268 130.828 224.297C130.252 223.326 129.964 222.216 129.964 220.965C129.964 219.715 130.235 218.604 130.778 217.633C131.338 216.662 132.103 215.897 133.074 215.337C134.045 214.778 135.147 214.498 136.381 214.498C137.566 214.498 138.611 214.778 139.516 215.337C140.438 215.88 141.162 216.629 141.688 217.584C142.215 218.538 142.478 219.64 142.478 220.891V221.039H140.602V220.891C140.602 219.937 140.413 219.106 140.034 218.398C139.672 217.674 139.171 217.115 138.529 216.72C137.903 216.308 137.188 216.103 136.381 216.103C135.493 216.103 134.711 216.308 134.036 216.72C133.362 217.131 132.835 217.699 132.457 218.423C132.078 219.147 131.889 219.986 131.889 220.94C131.889 221.895 132.095 222.742 132.506 223.483C132.918 224.223 133.477 224.799 134.185 225.211C134.909 225.622 135.74 225.828 136.678 225.828C138.389 225.828 139.763 225.079 140.8 223.581ZM142.478 221.607H131.494V220.101H142.083L142.478 220.891V221.607ZM153.847 227.037L146.787 220.743H147.034L153.402 214.893H155.895L149.206 220.965L148.589 220.077L156.512 227.037H153.847ZM145.603 227.037V214.893H147.429V227.037H145.603Z" fill="white"/>
<rect x="274.634" y="184.296" width="49.3659" height="30.8537" rx="15.4268" fill="white"/>
<rect x="275.405" y="185.067" width="47.8232" height="29.311" rx="14.6555" stroke="#8A96AD" stroke-opacity="0.36" stroke-width="1.54268"/>
<rect x="277.719" y="187.381" width="24.6829" height="24.6829" rx="12.3415" fill="black"/>
<path d="M269.552 244.123C268.242 244.123 267.018 243.864 265.88 243.345C264.757 242.813 263.858 242.093 263.181 241.186L264.304 240.127C264.88 240.876 265.614 241.481 266.507 241.942C267.4 242.388 268.393 242.611 269.487 242.611C270.654 242.611 271.676 242.338 272.554 241.79C273.432 241.243 274.116 240.48 274.606 239.501C275.095 238.508 275.34 237.363 275.34 236.067C275.34 234.757 275.088 233.612 274.584 232.633C274.08 231.654 273.382 230.891 272.489 230.344C271.611 229.782 270.596 229.501 269.444 229.501C268.379 229.501 267.428 229.732 266.593 230.192C265.758 230.653 265.024 231.265 264.39 232.028L263.202 230.927C263.937 230.02 264.837 229.307 265.902 228.789C266.968 228.256 268.155 227.99 269.466 227.99C270.546 227.99 271.546 228.191 272.468 228.594C273.404 228.983 274.21 229.537 274.887 230.257C275.578 230.963 276.111 231.812 276.485 232.806C276.874 233.785 277.068 234.872 277.068 236.067C277.068 237.651 276.751 239.047 276.118 240.257C275.484 241.466 274.606 242.417 273.483 243.108C272.36 243.785 271.05 244.123 269.552 244.123ZM266.312 236.499V235.009H276.031V236.499H266.312ZM278.272 243.777V242.395H279.136C279.525 242.395 279.82 242.294 280.021 242.093C280.223 241.877 280.345 241.488 280.389 240.926L281.058 233.151H288.617V243.777H287.019V233.475L288.142 234.512H281.404L282.635 233.475L281.922 241.186C281.836 242.136 281.584 242.805 281.166 243.194C280.763 243.583 280.158 243.777 279.352 243.777H278.272ZM293.954 242.784C293.954 243.115 293.832 243.403 293.587 243.648C293.357 243.878 293.076 243.993 292.745 243.993C292.413 243.993 292.126 243.878 291.881 243.648C291.65 243.403 291.535 243.115 291.535 242.784C291.535 242.453 291.65 242.172 291.881 241.942C292.126 241.697 292.413 241.574 292.745 241.574C293.076 241.574 293.357 241.697 293.587 241.942C293.832 242.172 293.954 242.453 293.954 242.784ZM304.58 240.171C303.212 240.171 302.168 239.825 301.448 239.134C300.728 238.428 300.368 237.413 300.368 236.089V233.151H301.967V235.916C301.967 237.01 302.211 237.766 302.701 238.184C303.205 238.587 303.91 238.788 304.818 238.788C305.912 238.788 307.035 238.392 308.187 237.6L308.748 238.659C308.345 238.99 307.913 239.271 307.452 239.501C307.006 239.717 306.538 239.883 306.049 239.998C305.573 240.113 305.084 240.171 304.58 240.171ZM308.079 243.777V233.151H309.677V243.777H308.079ZM321.893 240.754L323.016 241.812C322.454 242.532 321.778 243.101 320.986 243.518C320.194 243.921 319.287 244.123 318.265 244.123C317.141 244.123 316.134 243.878 315.241 243.389C314.363 242.899 313.671 242.23 313.168 241.38C312.664 240.531 312.412 239.559 312.412 238.464C312.412 237.37 312.649 236.398 313.124 235.549C313.614 234.699 314.283 234.03 315.133 233.54C315.982 233.051 316.947 232.806 318.027 232.806C319.064 232.806 319.978 233.051 320.77 233.54C321.576 234.015 322.21 234.67 322.67 235.505C323.131 236.341 323.362 237.305 323.362 238.4V238.529H321.72V238.4C321.72 237.564 321.555 236.837 321.223 236.218C320.907 235.585 320.467 235.095 319.906 234.75C319.359 234.39 318.732 234.21 318.027 234.21C317.249 234.21 316.566 234.39 315.975 234.75C315.385 235.11 314.924 235.606 314.593 236.24C314.262 236.873 314.096 237.608 314.096 238.443C314.096 239.278 314.276 240.019 314.636 240.667C314.996 241.315 315.486 241.819 316.105 242.179C316.738 242.539 317.465 242.719 318.286 242.719C319.784 242.719 320.986 242.064 321.893 240.754ZM323.362 239.026H313.751V237.708H323.016L323.362 238.4V239.026ZM333.309 243.777L327.132 238.27H327.348L332.92 233.151H335.102L329.249 238.464L328.709 237.687L335.642 243.777H333.309ZM326.096 243.777V233.151H327.694V243.777H326.096Z" fill="#4B4F56"/>
<g clip-path="url(#clip2_76_5978)">
<path d="M-126.488 287.03H342.488V254.634H-126.488V287.03Z" fill="white"/>
<path d="M342.488 285.487C342.488 270.757 361 271.525 361 254.469H342.488V285.487Z" fill="white"/>
</g>
<g clip-path="url(#clip3_76_5978)">
<g clip-path="url(#clip4_76_5978)">
<mask id="path-20-inside-1_76_5978" fill="white">
<path d="M-126.488 287.03H342.488V319.427H-126.488V287.03Z"/>
</mask>
<path d="M-126.488 287.03H342.488V319.427H-126.488V287.03Z" fill="white"/>
<path d="M342.488 287.03V286.259H337.798V287.03V287.802H342.488V287.03ZM328.419 287.03V286.259H319.039V287.03V287.802H328.419V287.03ZM309.66 287.03V286.259H300.28V287.03V287.802H309.66V287.03ZM290.901 287.03V286.259H281.521V287.03V287.802H290.901V287.03ZM272.142 287.03V286.259H262.762V287.03V287.802H272.142V287.03ZM253.382 287.03V286.259H244.003V287.03V287.802H253.382V287.03ZM234.623 287.03V286.259H225.244V287.03V287.802H234.623V287.03ZM215.864 287.03V286.259H206.485V287.03V287.802H215.864V287.03ZM197.105 287.03V286.259H187.726V287.03V287.802H197.105V287.03ZM178.346 287.03V286.259H168.967V287.03V287.802H178.346V287.03ZM159.587 287.03V286.259H150.208V287.03V287.802H159.587V287.03ZM140.828 287.03V286.259H131.449V287.03V287.802H140.828V287.03ZM122.069 287.03V286.259H112.69V287.03V287.802H122.069V287.03ZM103.31 287.03V286.259H93.9307V287.03V287.802H103.31V287.03ZM84.5512 287.03V286.259H75.1717V287.03V287.802H84.5512V287.03ZM65.7922 287.03V286.259H56.4126V287.03V287.802H65.7922V287.03ZM47.0331 287.03V286.259H37.6536V287.03V287.802H47.0331V287.03ZM28.2741 287.03V286.259H18.8946V287.03V287.802H28.2741V287.03ZM9.51504 287.03V286.259H0.135539V287.03V287.802H9.51504V287.03ZM-9.24399 287.03V286.259H-18.6235V287.03V287.802H-9.24399V287.03ZM-28.003 287.03V286.259H-37.3825V287.03V287.802H-28.003V287.03ZM-46.7621 287.03V286.259H-56.1416V287.03V287.802H-46.7621V287.03ZM-65.5211 287.03V286.259H-74.9006V287.03V287.802H-65.5211V287.03ZM-84.2801 287.03V286.259H-93.6596V287.03V287.802H-84.2801V287.03ZM-103.039 287.03V286.259H-112.419V287.03V287.802H-103.039V287.03ZM-121.798 287.03V286.259H-126.488V287.03V287.802H-121.798V287.03ZM342.488 287.03V285.488H337.798V287.03V288.573H342.488V287.03ZM328.419 287.03V285.488H319.039V287.03V288.573H328.419V287.03ZM309.66 287.03V285.488H300.28V287.03V288.573H309.66V287.03ZM290.901 287.03V285.488H281.521V287.03V288.573H290.901V287.03ZM272.142 287.03V285.488H262.762V287.03V288.573H272.142V287.03ZM253.382 287.03V285.488H244.003V287.03V288.573H253.382V287.03ZM234.623 287.03V285.488H225.244V287.03V288.573H234.623V287.03ZM215.864 287.03V285.488H206.485V287.03V288.573H215.864V287.03ZM197.105 287.03V285.488H187.726V287.03V288.573H197.105V287.03ZM178.346 287.03V285.488H168.967V287.03V288.573H178.346V287.03ZM159.587 287.03V285.488H150.208V287.03V288.573H159.587V287.03ZM140.828 287.03V285.488H131.449V287.03V288.573H140.828V287.03ZM122.069 287.03V285.488H112.69V287.03V288.573H122.069V287.03ZM103.31 287.03V285.488H93.9307V287.03V288.573H103.31V287.03ZM84.5512 287.03V285.488H75.1717V287.03V288.573H84.5512V287.03ZM65.7922 287.03V285.488H56.4126V287.03V288.573H65.7922V287.03ZM47.0331 287.03V285.488H37.6536V287.03V288.573H47.0331V287.03ZM28.2741 287.03V285.488H18.8946V287.03V288.573H28.2741V287.03ZM9.51504 287.03V285.488H0.135539V287.03V288.573H9.51504V287.03ZM-9.24399 287.03V285.488H-18.6235V287.03V288.573H-9.24399V287.03ZM-28.003 287.03V285.488H-37.3825V287.03V288.573H-28.003V287.03ZM-46.7621 287.03V285.488H-56.1416V287.03V288.573H-46.7621V287.03ZM-65.5211 287.03V285.488H-74.9006V287.03V288.573H-65.5211V287.03ZM-84.2801 287.03V285.488H-93.6596V287.03V288.573H-84.2801V287.03ZM-103.039 287.03V285.488H-112.419V287.03V288.573H-103.039V287.03ZM-121.798 287.03V285.488H-126.488V287.03V288.573H-121.798V287.03Z" fill="#CECECE" mask="url(#path-20-inside-1_76_5978)"/>
<path d="M342.488 288.573C342.488 303.303 361 302.536 361 319.591H342.488V288.573Z" fill="white"/>
</g>
<path d="M-145 319.427L361 319.427L361 864.378C361 891.642 338.898 913.744 311.634 913.744L-95.6342 913.744C-122.898 913.744 -145 891.642 -145 864.378L-145 319.427Z" fill="white"/>
<rect x="-120.317" y="344.109" width="225.232" height="269.39" rx="30.8537" fill="#F5F5F5"/>
<rect x="111.085" y="344.109" width="225.232" height="269.39" rx="30.8537" fill="#F5F5F5"/>
<path d="M135.769 387.304C135.769 377.08 144.057 368.792 154.281 368.792H197.476C207.7 368.792 215.988 377.08 215.988 387.304V430.499C215.988 440.723 207.7 449.012 197.476 449.012H154.281C144.057 449.012 135.769 440.723 135.769 430.499V387.304Z" fill="#D4FF60"/>
<path d="M-22.269 324.915V309.473H-16.4808C-15.4873 309.473 -14.6234 309.646 -13.8891 309.991C-13.1548 310.322 -12.586 310.797 -12.1829 311.417C-11.7797 312.021 -11.5782 312.734 -11.5782 313.555C-11.5782 314.303 -11.7797 314.966 -12.1829 315.542C-12.586 316.118 -13.1548 316.571 -13.8891 316.902C-14.6234 317.219 -15.4873 317.377 -16.4808 317.377H-20.39V316.341H-15.9841C-14.9618 316.341 -14.0691 316.514 -13.306 316.859C-12.5429 317.205 -11.9525 317.694 -11.535 318.328C-11.103 318.961 -10.887 319.71 -10.887 320.574C-10.887 321.438 -11.103 322.201 -11.535 322.863C-11.9525 323.511 -12.5429 324.015 -13.306 324.375C-14.0691 324.735 -14.9618 324.915 -15.9841 324.915H-22.269ZM-20.6059 323.446H-15.9841C-14.933 323.446 -14.1051 323.194 -13.5003 322.69C-12.8956 322.187 -12.5932 321.481 -12.5932 320.574C-12.5932 319.667 -12.8956 318.961 -13.5003 318.457C-14.1051 317.953 -14.933 317.701 -15.9841 317.701H-20.8219V316.233H-16.4808C-15.4873 316.233 -14.7026 315.995 -14.1267 315.52C-13.5507 315.045 -13.2628 314.39 -13.2628 313.555C-13.2628 312.748 -13.5507 312.115 -14.1267 311.654C-14.7026 311.179 -15.4873 310.941 -16.4808 310.941H-20.6059V323.446ZM-7.99769 324.915V314.289H-6.39947V324.656L-7.39296 323.554H-2.92226C-2.20234 323.554 -1.64801 323.382 -1.25925 323.036C-0.856097 322.676 -0.65452 322.187 -0.65452 321.567C-0.65452 320.963 -0.856097 320.488 -1.25925 320.142C-1.64801 319.796 -2.20234 319.624 -2.92226 319.624H-7.28497V318.263H-2.92226C-1.756 318.263 -0.812902 318.573 -0.0929831 319.192C0.641334 319.796 1.00849 320.588 1.00849 321.567C1.00849 322.201 0.835712 322.77 0.490151 323.274C0.14459 323.778 -0.323357 324.181 -0.91369 324.483C-1.50402 324.771 -2.17355 324.915 -2.92226 324.915H-7.99769ZM2.43393 324.915V314.289H4.03215V324.915H2.43393ZM12.2348 325.261C10.4494 325.261 9.08879 324.62 8.1529 323.338C7.2314 322.043 6.77065 320.164 6.77065 317.701C6.77065 315.355 7.14501 313.584 7.89373 312.388C8.65684 311.193 9.85911 310.459 11.5005 310.186L16.252 309.386L16.5328 310.79L11.7813 311.633C10.9462 311.777 10.2767 312.064 9.77272 312.496C9.26877 312.928 8.90161 313.562 8.67124 314.397C8.44087 315.218 8.30408 316.312 8.26089 317.68L7.98012 318.328C8.06651 317.536 8.34008 316.859 8.80083 316.298C9.26157 315.722 9.83751 315.283 10.5286 314.98C11.2198 314.663 11.9397 314.505 12.6884 314.505C13.7395 314.505 14.625 314.743 15.3449 315.218C16.0648 315.678 16.6119 316.305 16.9863 317.097C17.3607 317.889 17.5478 318.781 17.5478 319.775C17.5478 320.883 17.3319 321.855 16.8999 322.69C16.468 323.511 15.8488 324.145 15.0425 324.591C14.2506 325.037 13.3147 325.261 12.2348 325.261ZM12.2132 323.835C13.3507 323.835 14.2434 323.475 14.8913 322.755C15.5537 322.021 15.8848 321.027 15.8848 319.775C15.8848 318.551 15.5753 317.601 14.9561 316.924C14.3514 316.233 13.5091 315.887 12.4292 315.887C11.7813 315.887 11.1766 316.053 10.615 316.384C10.0679 316.701 9.59994 317.147 9.21118 317.723C8.82242 318.285 8.56325 318.94 8.43367 319.688L8.49846 318.393C8.45526 320.221 8.73603 321.589 9.34077 322.496C9.9599 323.389 10.9174 323.835 12.2132 323.835ZM29.0544 321.891L30.1775 322.95C29.616 323.67 28.9393 324.238 28.1473 324.656C27.3554 325.059 26.4483 325.261 25.4261 325.261C24.303 325.261 23.2951 325.016 22.4024 324.526C21.5241 324.037 20.833 323.367 20.329 322.518C19.8251 321.668 19.5731 320.696 19.5731 319.602C19.5731 318.508 19.8107 317.536 20.2858 316.686C20.7754 315.837 21.4449 315.167 22.2944 314.678C23.1439 314.188 24.1086 313.943 25.1885 313.943C26.2252 313.943 27.1395 314.188 27.9314 314.678C28.7377 315.153 29.3712 315.808 29.832 316.643C30.2927 317.478 30.5231 318.443 30.5231 319.537V319.667H28.8817V319.537C28.8817 318.702 28.7161 317.975 28.3849 317.356C28.0682 316.722 27.629 316.233 27.0675 315.887C26.5203 315.527 25.894 315.347 25.1885 315.347C24.411 315.347 23.727 315.527 23.1367 315.887C22.5464 316.247 22.0856 316.744 21.7545 317.377C21.4233 318.011 21.2577 318.745 21.2577 319.58C21.2577 320.416 21.4377 321.157 21.7977 321.805C22.1576 322.453 22.6472 322.957 23.2663 323.317C23.8998 323.677 24.6269 323.857 25.4477 323.857C26.9451 323.857 28.1473 323.202 29.0544 321.891ZM30.5231 320.164H20.9122V318.846H30.1775L30.5231 319.537V320.164ZM34.8552 329.105H33.257V314.289H34.8337V317.507H34.4449C34.5745 316.802 34.8552 316.182 35.2872 315.65C35.7336 315.117 36.2807 314.699 36.9286 314.397C37.5909 314.095 38.3037 313.943 39.0668 313.943C40.1035 313.943 41.025 314.195 41.8313 314.699C42.6376 315.189 43.2639 315.858 43.7103 316.708C44.171 317.557 44.4014 318.522 44.4014 319.602C44.4014 320.696 44.1638 321.668 43.6887 322.518C43.2279 323.367 42.58 324.037 41.7449 324.526C40.9242 325.016 39.9811 325.261 38.9156 325.261C37.9509 325.261 37.1014 325.066 36.3671 324.677C35.6472 324.274 35.1 323.734 34.7257 323.058C34.3657 322.367 34.2361 321.596 34.3369 320.747L34.6393 320.315C34.6969 320.991 34.9128 321.603 35.2872 322.151C35.6616 322.683 36.1511 323.101 36.7558 323.403C37.3606 323.706 38.0229 323.857 38.7428 323.857C39.5347 323.857 40.2258 323.677 40.8162 323.317C41.4065 322.942 41.8673 322.439 42.1984 321.805C42.544 321.157 42.7168 320.423 42.7168 319.602C42.7168 318.781 42.5512 318.054 42.22 317.421C41.9033 316.773 41.4569 316.269 40.881 315.909C40.305 315.534 39.6355 315.347 38.8724 315.347C38.0949 315.347 37.4038 315.542 36.799 315.93C36.1943 316.319 35.7192 316.859 35.3736 317.55C35.028 318.227 34.8552 319.019 34.8552 319.926V329.105ZM47.1352 324.915V314.289H48.7334V322.777L48.5606 322.712L55.4718 314.289H56.8541V324.915H55.2558V316.427L55.4286 316.492L48.5174 324.915H47.1352ZM63.0817 324.915V314.743H64.68V324.915H63.0817ZM59.1294 315.65V314.289H68.6107V315.65H59.1294ZM79.2308 321.891L80.3539 322.95C79.7924 323.67 79.1156 324.238 78.3237 324.656C77.5318 325.059 76.6247 325.261 75.6024 325.261C74.4793 325.261 73.4715 325.016 72.5788 324.526C71.7005 324.037 71.0093 323.367 70.5054 322.518C70.0015 321.668 69.7495 320.696 69.7495 319.602C69.7495 318.508 69.9871 317.536 70.4622 316.686C70.9517 315.837 71.6213 315.167 72.4708 314.678C73.3203 314.188 74.285 313.943 75.3648 313.943C76.4015 313.943 77.3158 314.188 78.1077 314.678C78.914 315.153 79.5476 315.808 80.0083 316.643C80.4691 317.478 80.6994 318.443 80.6994 319.537V319.667H79.058V319.537C79.058 318.702 78.8925 317.975 78.5613 317.356C78.2445 316.722 77.8054 316.233 77.2438 315.887C76.6967 315.527 76.0704 315.347 75.3648 315.347C74.5873 315.347 73.9034 315.527 73.3131 315.887C72.7227 316.247 72.262 316.744 71.9308 317.377C71.5997 318.011 71.4341 318.745 71.4341 319.58C71.4341 320.416 71.6141 321.157 71.974 321.805C72.334 322.453 72.8235 322.957 73.4427 323.317C74.0762 323.677 74.8033 323.857 75.624 323.857C77.1215 323.857 78.3237 323.202 79.2308 321.891ZM80.6994 320.164H71.0885V318.846H80.3539L80.6994 319.537V320.164ZM95.7508 322.151L96.8954 323.209C96.4059 323.842 95.7868 324.346 95.038 324.721C94.3037 325.081 93.4686 325.261 92.5327 325.261C91.4528 325.261 90.4882 325.016 89.6386 324.526C88.8035 324.037 88.1412 323.367 87.6517 322.518C87.1765 321.668 86.939 320.696 86.939 319.602C86.939 318.508 87.1765 317.536 87.6517 316.686C88.1412 315.837 88.8107 315.167 89.6602 314.678C90.5097 314.188 91.4744 313.943 92.5543 313.943C93.4902 313.943 94.3253 314.131 95.0596 314.505C95.794 314.865 96.4059 315.362 96.8954 315.995L95.7508 317.054C95.4052 316.535 94.9732 316.125 94.4549 315.822C93.9366 315.506 93.303 315.347 92.5543 315.347C91.7768 315.347 91.0929 315.527 90.5025 315.887C89.9122 316.247 89.4515 316.751 89.1203 317.399C88.7891 318.033 88.6236 318.767 88.6236 319.602C88.6236 320.437 88.7891 321.179 89.1203 321.827C89.4515 322.46 89.9122 322.957 90.5025 323.317C91.0929 323.677 91.7768 323.857 92.5543 323.857C93.303 323.857 93.9366 323.706 94.4549 323.403C94.9732 323.086 95.4052 322.669 95.7508 322.151ZM99.4207 324.915V314.289H108.816V324.915H107.217V314.613L108.34 315.65H99.6798L101.019 314.613V324.915H99.4207ZM117.168 325.261C116.088 325.261 115.123 325.016 114.274 324.526C113.424 324.037 112.755 323.367 112.265 322.518C111.79 321.668 111.553 320.696 111.553 319.602C111.553 318.508 111.79 317.536 112.265 316.686C112.755 315.837 113.424 315.167 114.274 314.678C115.123 314.188 116.088 313.943 117.168 313.943C118.262 313.943 119.227 314.188 120.062 314.678C120.912 315.167 121.574 315.837 122.049 316.686C122.539 317.536 122.783 318.508 122.783 319.602C122.783 320.696 122.539 321.668 122.049 322.518C121.574 323.367 120.912 324.037 120.062 324.526C119.227 325.016 118.262 325.261 117.168 325.261ZM117.168 323.857C117.945 323.857 118.629 323.677 119.22 323.317C119.81 322.957 120.271 322.46 120.602 321.827C120.933 321.179 121.099 320.437 121.099 319.602C121.099 318.767 120.933 318.033 120.602 317.399C120.271 316.751 119.81 316.247 119.22 315.887C118.629 315.527 117.945 315.347 117.168 315.347C116.39 315.347 115.707 315.527 115.116 315.887C114.526 316.247 114.065 316.751 113.734 317.399C113.403 318.033 113.237 318.767 113.237 319.602C113.237 320.437 113.403 321.179 113.734 321.827C114.065 322.46 114.526 322.957 115.116 323.317C115.707 323.677 116.39 323.857 117.168 323.857ZM133.631 322.151L134.776 323.209C134.286 323.842 133.667 324.346 132.918 324.721C132.184 325.081 131.349 325.261 130.413 325.261C129.333 325.261 128.368 325.016 127.519 324.526C126.684 324.037 126.021 323.367 125.532 322.518C125.057 321.668 124.819 320.696 124.819 319.602C124.819 318.508 125.057 317.536 125.532 316.686C126.021 315.837 126.691 315.167 127.54 314.678C128.39 314.188 129.355 313.943 130.434 313.943C131.37 313.943 132.205 314.131 132.94 314.505C133.674 314.865 134.286 315.362 134.776 315.995L133.631 317.054C133.285 316.535 132.853 316.125 132.335 315.822C131.817 315.506 131.183 315.347 130.434 315.347C129.657 315.347 128.973 315.527 128.383 315.887C127.792 316.247 127.332 316.751 127 317.399C126.669 318.033 126.504 318.767 126.504 319.602C126.504 320.437 126.669 321.179 127 321.827C127.332 322.46 127.792 322.957 128.383 323.317C128.973 323.677 129.657 323.857 130.434 323.857C131.183 323.857 131.817 323.706 132.335 323.403C132.853 323.086 133.285 322.669 133.631 322.151ZM141.782 325.261C140.702 325.261 139.737 325.016 138.888 324.526C138.038 324.037 137.368 323.367 136.879 322.518C136.404 321.668 136.166 320.696 136.166 319.602C136.166 318.508 136.404 317.536 136.879 316.686C137.368 315.837 138.038 315.167 138.888 314.678C139.737 314.188 140.702 313.943 141.782 313.943C142.876 313.943 143.841 314.188 144.676 314.678C145.525 315.167 146.187 315.837 146.663 316.686C147.152 317.536 147.397 318.508 147.397 319.602C147.397 320.696 147.152 321.668 146.663 322.518C146.187 323.367 145.525 324.037 144.676 324.526C143.841 325.016 142.876 325.261 141.782 325.261ZM141.782 323.857C142.559 323.857 143.243 323.677 143.833 323.317C144.424 322.957 144.884 322.46 145.216 321.827C145.547 321.179 145.712 320.437 145.712 319.602C145.712 318.767 145.547 318.033 145.216 317.399C144.884 316.751 144.424 316.247 143.833 315.887C143.243 315.527 142.559 315.347 141.782 315.347C141.004 315.347 140.32 315.527 139.73 315.887C139.139 316.247 138.679 316.751 138.348 317.399C138.016 318.033 137.851 318.767 137.851 319.602C137.851 320.437 138.016 321.179 138.348 321.827C138.679 322.46 139.139 322.957 139.73 323.317C140.32 323.677 141.004 323.857 141.782 323.857ZM154.897 325.261C153.111 325.261 151.751 324.62 150.815 323.338C149.893 322.043 149.433 320.164 149.433 317.701C149.433 315.355 149.807 313.584 150.556 312.388C151.319 311.193 152.521 310.459 154.163 310.186L158.914 309.386L159.195 310.79L154.443 311.633C153.608 311.777 152.939 312.064 152.435 312.496C151.931 312.928 151.564 313.562 151.333 314.397C151.103 315.218 150.966 316.312 150.923 317.68L150.642 318.328C150.729 317.536 151.002 316.859 151.463 316.298C151.924 315.722 152.5 315.283 153.191 314.98C153.882 314.663 154.602 314.505 155.35 314.505C156.402 314.505 157.287 314.743 158.007 315.218C158.727 315.678 159.274 316.305 159.648 317.097C160.023 317.889 160.21 318.781 160.21 319.775C160.21 320.883 159.994 321.855 159.562 322.69C159.13 323.511 158.511 324.145 157.705 324.591C156.913 325.037 155.977 325.261 154.897 325.261ZM154.875 323.835C156.013 323.835 156.905 323.475 157.553 322.755C158.216 322.021 158.547 321.027 158.547 319.775C158.547 318.551 158.237 317.601 157.618 316.924C157.013 316.233 156.171 315.887 155.091 315.887C154.443 315.887 153.839 316.053 153.277 316.384C152.73 316.701 152.262 317.147 151.873 317.723C151.484 318.285 151.225 318.94 151.096 319.688L151.16 318.393C151.117 320.221 151.398 321.589 152.003 322.496C152.622 323.389 153.579 323.835 154.875 323.835ZM172.069 325.261C170.989 325.261 170.024 325.016 169.175 324.526C168.325 324.037 167.656 323.367 167.166 322.518C166.691 321.668 166.453 320.696 166.453 319.602C166.453 318.508 166.691 317.536 167.166 316.686C167.656 315.837 168.325 315.167 169.175 314.678C170.024 314.188 170.989 313.943 172.069 313.943C173.163 313.943 174.128 314.188 174.963 314.678C175.812 315.167 176.475 315.837 176.95 316.686C177.439 317.536 177.684 318.508 177.684 319.602C177.684 320.696 177.439 321.668 176.95 322.518C176.475 323.367 175.812 324.037 174.963 324.526C174.128 325.016 173.163 325.261 172.069 325.261ZM172.069 323.857C172.846 323.857 173.53 323.677 174.121 323.317C174.711 322.957 175.172 322.46 175.503 321.827C175.834 321.179 176 320.437 176 319.602C176 318.767 175.834 318.033 175.503 317.399C175.172 316.751 174.711 316.247 174.121 315.887C173.53 315.527 172.846 315.347 172.069 315.347C171.291 315.347 170.607 315.527 170.017 315.887C169.427 316.247 168.966 316.751 168.635 317.399C168.304 318.033 168.138 318.767 168.138 319.602C168.138 320.437 168.304 321.179 168.635 321.827C168.966 322.46 169.427 322.957 170.017 323.317C170.607 323.677 171.291 323.857 172.069 323.857ZM180.433 324.915V314.289H189.828V324.915H188.229V314.613L189.352 315.65H180.692L182.031 314.613V324.915H180.433ZM191.981 324.915V323.533H192.845C193.234 323.533 193.529 323.432 193.731 323.23C193.932 323.014 194.055 322.626 194.098 322.064L194.767 314.289H202.327V324.915H200.728V314.613L201.851 315.65H195.113L196.344 314.613L195.631 322.323C195.545 323.274 195.293 323.943 194.875 324.332C194.472 324.721 193.868 324.915 193.061 324.915H191.981ZM214.575 324.915H213.041V322.842L213.02 322.237V318.263C213.02 317.37 212.732 316.658 212.156 316.125C211.58 315.592 210.802 315.326 209.823 315.326C209.118 315.326 208.477 315.477 207.901 315.779C207.339 316.082 206.843 316.492 206.411 317.01L205.288 315.93C205.878 315.297 206.54 314.807 207.275 314.462C208.023 314.116 208.873 313.943 209.823 313.943C210.773 313.943 211.601 314.123 212.307 314.483C213.027 314.829 213.581 315.319 213.97 315.952C214.373 316.586 214.575 317.334 214.575 318.198V324.915ZM208.981 325.261C208.175 325.261 207.462 325.117 206.843 324.829C206.238 324.526 205.763 324.123 205.417 323.619C205.086 323.115 204.921 322.539 204.921 321.891C204.921 321.143 205.129 320.509 205.547 319.991C205.964 319.458 206.533 319.055 207.253 318.781C207.987 318.508 208.815 318.371 209.737 318.371H213.236V319.667H209.953C208.988 319.667 208.182 319.847 207.534 320.207C206.9 320.552 206.584 321.099 206.584 321.848C206.584 322.482 206.821 322.986 207.296 323.36C207.771 323.734 208.398 323.922 209.175 323.922C209.924 323.922 210.601 323.778 211.205 323.49C211.81 323.187 212.292 322.77 212.652 322.237C213.027 321.704 213.236 321.092 213.279 320.401L213.927 320.768C213.927 321.632 213.711 322.403 213.279 323.079C212.861 323.756 212.278 324.289 211.529 324.677C210.781 325.066 209.931 325.261 208.981 325.261ZM220.423 324.915V314.743H222.022V324.915H220.423ZM216.471 315.65V314.289H225.952V315.65H216.471ZM228.226 324.915V314.289H229.824V324.656L228.83 323.554H233.301C234.021 323.554 234.575 323.382 234.964 323.036C235.367 322.676 235.569 322.187 235.569 321.567C235.569 320.963 235.367 320.488 234.964 320.142C234.575 319.796 234.021 319.624 233.301 319.624H228.938V318.263H233.301C234.467 318.263 235.41 318.573 236.13 319.192C236.865 319.796 237.232 320.588 237.232 321.567C237.232 322.201 237.059 322.77 236.713 323.274C236.368 323.778 235.9 324.181 235.31 324.483C234.719 324.771 234.05 324.915 233.301 324.915H228.226ZM238.657 324.915V314.289H240.255V324.915H238.657Z" fill="#8A8A8A"/>
</g>
<rect x="372" y="325" width="47" height="512" transform="rotate(90 372 325)" fill="url(#paint0_linear_76_5978)"/>
<rect x="88" y="372" width="88" height="372" transform="rotate(-180 88 372)" fill="url(#paint1_linear_76_5978)"/>
</g>
<defs>
<linearGradient id="paint0_linear_76_5978" x1="372" y1="581" x2="419" y2="581" gradientUnits="userSpaceOnUse">
<stop stop-color="#F5F5F5" stop-opacity="0"/>
<stop offset="1" stop-color="#F5F5F5"/>
</linearGradient>
<linearGradient id="paint1_linear_76_5978" x1="88" y1="558" x2="176" y2="558" gradientUnits="userSpaceOnUse">
<stop stop-color="#F5F5F5" stop-opacity="0"/>
<stop offset="1" stop-color="#F5F5F5"/>
</linearGradient>
<clipPath id="clip0_76_5978">
<rect width="372" height="372" fill="white"/>
</clipPath>
<clipPath id="clip1_76_5978">
<rect width="218.854" height="32.5427" fill="white" transform="translate(-120.317 19.1338)"/>
</clipPath>
<clipPath id="clip2_76_5978">
<rect width="506" height="32.3963" fill="white" transform="matrix(1 0 0 -1 -145 287.03)"/>
</clipPath>
<clipPath id="clip3_76_5978">
<path d="M-145 317.884C-145 300.844 -131.186 287.03 -114.146 287.03L330.146 287.03C347.186 287.03 361 300.844 361 317.884L361 864.378C361 891.642 338.898 913.744 311.634 913.744L-95.6342 913.744C-122.898 913.744 -145 891.642 -145 864.378L-145 317.884Z" fill="white"/>
</clipPath>
<clipPath id="clip4_76_5978">
<rect width="506" height="32.3963" fill="white" transform="translate(-145 287.03)"/>
</clipPath>
</defs>
</svg>
